<?xml version="1.0" encoding="utf-8" ?>
<svg baseProfile="full" height="78.27cm" version="1.1" width="53.269999999999996cm" xmlns="http://www.w3.org/2000/svg" xmlns:ev="http://www.w3.org/2001/xml-events" xmlns:xlink="http://www.w3.org/1999/xlink"><defs /><rect fill="white" height="12.5cm" shape-rendering="crispEdges" width="12.5cm" x="1.635cm" y="1.635cm" /><rect fill="black" height="7.5cm" shape-rendering="crispEdges" width="7.5cm" x="4.135cm" y="4.135cm" /><rect fill="white" height="1.25cm" shape-rendering="crispEdges" width="1.25cm" x="5.385cm" y="6.634999999999999cm" /><rect fill="white" height="2.5cm" shape-rendering="crispEdges" width="1.25cm" x="6.634999999999999cm" y="7.885000000000001cm" /><rect fill="white" height="1.25cm" shape-rendering="crispEdges" width="1.25cm" x="6.634999999999999cm" y="9.134999999999998cm" /><rect fill="white" height="1.25cm" shape-rendering="crispEdges" width="1.25cm" x="7.885000000000001cm" y="7.885000000000001cm" /><rect fill="white" height="1.25cm" shape-rendering="crispEdges" width="1.25cm" x="9.134999999999998cm" y="5.385cm" /><rect fill="white" height="2.5cm" shape-rendering="crispEdges" width="1.25cm" x="9.134999999999998cm" y="7.885000000000001cm" /><rect fill="white" height="1.25cm" shape-rendering="crispEdges" width="1.25cm" x="9.134999999999998cm" y="9.134999999999998cm" /><rect fill="white" height="1.25cm" shape-rendering="crispEdges" width="1.25cm" x="9.134999999999998cm" y="5.385cm" /><rect fill="white" height="1.25cm" shape-rendering="crispEdges" width="1.25cm" x="5.385cm" y="6.634999999999999cm" /><rect fill="white" height="1.25cm" shape-rendering="crispEdges" width="3.75cm" x="6.634999999999999cm" y="7.885000000000001cm" /><rect fill="white" height="1.25cm" shape-rendering="crispEdges" width="2.5cm" x="7.885000000000001cm" y="7.885000000000001cm" /><rect fill="white" height="1.25cm" shape-rendering="crispEdges" width="1.25cm" x="9.134999999999998cm" y="7.885000000000001cm" /><rect fill="white" height="1.25cm" shape-rendering="crispEdges" width="1.25cm" x="6.634999999999999cm" y="9.134999999999998cm" /><rect fill="white" height="1.25cm" shape-rendering="crispEdges" width="1.25cm" x="9.134999999999998cm" y="9.134999999999998cm" /><text fill="black" font-family="Arial, Helvetica, sans-serif" font-size="1.25cm" shape-rendering="crispEdges" text-anchor="middle" x="7.885000000000001cm" y="2.8850000000000002cm">36</text><rect fill="black" height="12.5cm" shape-rendering="crispEdges" width="12.5cm" x="14.135cm" y="1.635cm" /><rect fill="white" height="12.5cm" shape-rendering="crispEdges" width="12.5cm" x="26.634999999999998cm" y="1.635cm" /><rect fill="black" height="7.5cm" shape-rendering="crispEdges" width="7.5cm" x="29.134999999999998cm" y="4.135cm" /><rect fill="white" height="2.5cm" shape-rendering="crispEdges" width="1.25cm" x="30.385cm" y="7.885000000000001cm" /><rect fill="white" height="1.25cm" shape-rendering="crispEdges" width="1.25cm" x="30.385cm" y="9.134999999999998cm" /><rect fill="white" height="3.75cm" shape-rendering="crispEdges" width="1.25cm" x="31.635cm" y="6.634999999999999cm" /><rect fill="white" height="2.5cm" shape-rendering="crispEdges" width="1.25cm" x="31.635cm" y="7.885000000000001cm" /><rect fill="white" height="1.25cm" shape-rendering="crispEdges" width="1.25cm" x="31.635cm" y="9.134999999999998cm" /><rect fill="white" height="2.5cm" shape-rendering="crispEdges" width="1.25cm" x="32.885cm" y="7.885000000000001cm" /><rect fill="white" height="1.25cm" shape-rendering="crispEdges" width="1.25cm" x="32.885cm" y="9.134999999999998cm" /><rect fill="white" height="2.5cm" shape-rendering="crispEdges" width="1.25cm" x="34.135cm" y="7.885000000000001cm" /><rect fill="white" height="1.25cm" shape-rendering="crispEdges" width="1.25cm" x="34.135cm" y="9.134999999999998cm" /><rect fill="white" height="1.25cm" shape-rendering="crispEdges" width="1.25cm" x="31.635cm" y="6.634999999999999cm" /><rect fill="white" height="1.25cm" shape-rendering="crispEdges" width="5.0cm" x="30.385cm" y="7.885000000000001cm" /><rect fill="white" height="1.25cm" shape-rendering="crispEdges" width="3.75cm" x="31.635cm" y="7.885000000000001cm" /><rect fill="white" height="1.25cm" shape-rendering="crispEdges" width="2.5cm" x="32.885cm" y="7.885000000000001cm" /><rect fill="white" height="1.25cm" shape-rendering="crispEdges" width="1.25cm" x="34.135cm" y="7.885000000000001cm" /><rect fill="white" height="1.25cm" shape-rendering="crispEdges" width="5.0cm" x="30.385cm" y="9.134999999999998cm" /><rect fill="white" height="1.25cm" shape-rendering="crispEdges" width="3.75cm" x="31.635cm" y="9.134999999999998cm" /><rect fill="white" height="1.25cm" shape-rendering="crispEdges" width="2.5cm" x="32.885cm" y="9.134999999999998cm" /><rect fill="white" height="1.25cm" shape-rendering="crispEdges" width="1.25cm" x="34.135cm" y="9.134999999999998cm" /><text fill="black" font-family="Arial, Helvetica, sans-serif" font-size="1.25cm" shape-rendering="crispEdges" text-anchor="middle" x="32.885cm" y="2.8850000000000002cm">37</text><rect fill="black" height="12.5cm" shape-rendering="crispEdges" width="12.5cm" x="39.135cm" y="1.635cm" /><rect fill="black" height="12.5cm" shape-rendering="crispEdges" width="12.5cm" x="1.635cm" y="14.135cm" /><rect fill="white" height="12.5cm" shape-rendering="crispEdges" width="12.5cm" x="14.135cm" y="14.135cm" /><rect fill="black" height="7.5cm" shape-rendering="crispEdges" width="7.5cm" x="16.634999999999998cm" y="16.634999999999998cm" /><rect fill="white" height="2.5cm" shape-rendering="crispEdges" width="1.25cm" x="17.885cm" y="19.134999999999998cm" /><rect fill="white" height="1.25cm" shape-rendering="crispEdges" width="1.25cm" x="17.885cm" y="20.385cm" /><rect fill="white" height="3.75cm" shape-rendering="crispEdges" width="1.25cm" x="19.134999999999998cm" y="19.134999999999998cm" /><rect fill="white" height="2.5cm" shape-rendering="crispEdges" width="1.25cm" x="19.134999999999998cm" y="20.385cm" /><rect fill="white" height="1.25cm" shape-rendering="crispEdges" width="1.25cm" x="19.134999999999998cm" y="21.634999999999998cm" /><rect fill="white" height="2.5cm" shape-rendering="crispEdges" width="1.25cm" x="20.385cm" y="20.385cm" /><rect fill="white" height="1.25cm" shape-rendering="crispEdges" width="1.25cm" x="20.385cm" y="21.634999999999998cm" /><rect fill="white" height="2.5cm" shape-rendering="crispEdges" width="1.25cm" x="21.634999999999998cm" y="19.134999999999998cm" /><rect fill="white" height="1.25cm" shape-rendering="crispEdges" width="1.25cm" x="21.634999999999998cm" y="20.385cm" /><rect fill="white" height="1.25cm" shape-rendering="crispEdges" width="2.5cm" x="17.885cm" y="19.134999999999998cm" /><rect fill="white" height="1.25cm" shape-rendering="crispEdges" width="1.25cm" x="19.134999999999998cm" y="19.134999999999998cm" /><rect fill="white" height="1.25cm" shape-rendering="crispEdges" width="1.25cm" x="21.634999999999998cm" y="19.134999999999998cm" /><rect fill="white" height="1.25cm" shape-rendering="crispEdges" width="5.0cm" x="17.885cm" y="20.385cm" /><rect fill="white" height="1.25cm" shape-rendering="crispEdges" width="3.75cm" x="19.134999999999998cm" y="20.385cm" /><rect fill="white" height="1.25cm" shape-rendering="crispEdges" width="2.5cm" x="20.385cm" y="20.385cm" /><rect fill="white" height="1.25cm" shape-rendering="crispEdges" width="1.25cm" x="21.634999999999998cm" y="20.385cm" /><rect fill="white" height="1.25cm" shape-rendering="crispEdges" width="2.5cm" x="19.134999999999998cm" y="21.634999999999998cm" /><rect fill="white" height="1.25cm" shape-rendering="crispEdges" width="1.25cm" x="20.385cm" y="21.634999999999998cm" /><text fill="black" font-family="Arial, Helvetica, sans-serif" font-size="1.25cm" shape-rendering="crispEdges" text-anchor="middle" x="20.385cm" y="15.385000000000002cm">38</text><rect fill="black" height="12.5cm" shape-rendering="crispEdges" width="12.5cm" x="26.634999999999998cm" y="14.135cm" /><rect fill="white" height="12.5cm" shape-rendering="crispEdges" width="12.5cm" x="39.135cm" y="14.135cm" /><rect fill="black" height="7.5cm" shape-rendering="crispEdges" width="7.5cm" x="41.635cm" y="16.634999999999998cm" /><rect fill="white" height="1.25cm" shape-rendering="crispEdges" width="1.25cm" x="42.885cm" y="19.134999999999998cm" /><rect fill="white" height="1.25cm" shape-rendering="crispEdges" width="1.25cm" x="42.885cm" y="21.634999999999998cm" /><rect fill="white" height="2.5cm" shape-rendering="crispEdges" width="1.25cm" x="44.135000000000005cm" y="19.134999999999998cm" /><rect fill="white" height="1.25cm" shape-rendering="crispEdges" width="1.25cm" x="44.135000000000005cm" y="20.385cm" /><rect fill="white" height="1.25cm" shape-rendering="crispEdges" width="1.25cm" x="45.385cm" y="21.634999999999998cm" /><rect fill="white" height="1.25cm" shape-rendering="crispEdges" width="1.25cm" x="46.635cm" y="17.885cm" /><rect fill="white" height="1.25cm" shape-rendering="crispEdges" width="1.25cm" x="46.635cm" y="20.385cm" /><rect fill="white" height="1.25cm" shape-rendering="crispEdges" width="1.25cm" x="46.635cm" y="17.885cm" /><rect fill="white" height="1.25cm" shape-rendering="crispEdges" width="2.5cm" x="42.885cm" y="19.134999999999998cm" /><rect fill="white" height="1.25cm" shape-rendering="crispEdges" width="1.25cm" x="44.135000000000005cm" y="19.134999999999998cm" /><rect fill="white" height="1.25cm" shape-rendering="crispEdges" width="1.25cm" x="44.135000000000005cm" y="20.385cm" /><rect fill="white" height="1.25cm" shape-rendering="crispEdges" width="1.25cm" x="46.635cm" y="20.385cm" /><rect fill="white" height="1.25cm" shape-rendering="crispEdges" width="1.25cm" x="42.885cm" y="21.634999999999998cm" /><rect fill="white" height="1.25cm" shape-rendering="crispEdges" width="1.25cm" x="45.385cm" y="21.634999999999998cm" /><text fill="black" font-family="Arial, Helvetica, sans-serif" font-size="1.25cm" shape-rendering="crispEdges" text-anchor="middle" x="45.385cm" y="15.385000000000002cm">39</text><rect fill="white" height="12.5cm" shape-rendering="crispEdges" width="12.5cm" x="1.635cm" y="26.634999999999998cm" /><rect fill="black" height="7.5cm" shape-rendering="crispEdges" width="7.5cm" x="4.135cm" y="29.134999999999998cm" /><rect fill="white" height="1.25cm" shape-rendering="crispEdges" width="1.25cm" x="5.385cm" y="34.135cm" /><rect fill="white" height="1.25cm" shape-rendering="crispEdges" width="1.25cm" x="6.634999999999999cm" y="31.635cm" /><rect fill="white" height="1.25cm" shape-rendering="crispEdges" width="1.25cm" x="7.885000000000001cm" y="31.635cm" /><rect fill="white" height="3.75cm" shape-rendering="crispEdges" width="1.25cm" x="9.134999999999998cm" y="30.385cm" /><rect fill="white" height="2.5cm" shape-rendering="crispEdges" width="1.25cm" x="9.134999999999998cm" y="31.635cm" /><rect fill="white" height="1.25cm" shape-rendering="crispEdges" width="1.25cm" x="9.134999999999998cm" y="32.885cm" /><rect fill="white" height="1.25cm" shape-rendering="crispEdges" width="1.25cm" x="9.134999999999998cm" y="30.385cm" /><rect fill="white" height="1.25cm" shape-rendering="crispEdges" width="3.75cm" x="6.634999999999999cm" y="31.635cm" /><rect fill="white" height="1.25cm" shape-rendering="crispEdges" width="2.5cm" x="7.885000000000001cm" y="31.635cm" /><rect fill="white" height="1.25cm" shape-rendering="crispEdges" width="1.25cm" x="9.134999999999998cm" y="31.635cm" /><rect fill="white" height="1.25cm" shape-rendering="crispEdges" width="1.25cm" x="9.134999999999998cm" y="32.885cm" /><rect fill="white" height="1.25cm" shape-rendering="crispEdges" width="1.25cm" x="5.385cm" y="34.135cm" /><text fill="black" font-family="Arial, Helvetica, sans-serif" font-size="1.25cm" shape-rendering="crispEdges" text-anchor="middle" x="7.885000000000001cm" y="27.884999999999998cm">40</text><rect fill="black" height="12.5cm" shape-rendering="crispEdges" width="12.5cm" x="14.135cm" y="26.634999999999998cm" /><rect fill="white" height="12.5cm" shape-rendering="crispEdges" width="12.5cm" x="26.634999999999998cm" y="26.634999999999998cm" /><rect fill="black" height="7.5cm" shape-rendering="crispEdges" width="7.5cm" x="29.134999999999998cm" y="29.134999999999998cm" /><rect fill="white" height="1.25cm" shape-rendering="crispEdges" width="1.25cm" x="30.385cm" y="31.635cm" /><rect fill="white" height="1.25cm" shape-rendering="crispEdges" width="1.25cm" x="30.385cm" y="34.135cm" /><rect fill="white" height="3.75cm" shape-rendering="crispEdges" width="1.25cm" x="32.885cm" y="30.385cm" /><rect fill="white" height="2.5cm" shape-rendering="crispEdges" width="1.25cm" x="32.885cm" y="31.635cm" /><rect fill="white" height="1.25cm" shape-rendering="crispEdges" width="1.25cm" x="32.885cm" y="32.885cm" /><rect fill="white" height="1.25cm" shape-rendering="crispEdges" width="1.25cm" x="32.885cm" y="30.385cm" /><rect fill="white" height="1.25cm" shape-rendering="crispEdges" width="1.25cm" x="30.385cm" y="31.635cm" /><rect fill="white" height="1.25cm" shape-rendering="crispEdges" width="1.25cm" x="32.885cm" y="31.635cm" /><rect fill="white" height="1.25cm" shape-rendering="crispEdges" width="1.25cm" x="32.885cm" y="32.885cm" /><rect fill="white" height="1.25cm" shape-rendering="crispEdges" width="1.25cm" x="30.385cm" y="34.135cm" /><text fill="black" font-family="Arial, Helvetica, sans-serif" font-size="1.25cm" shape-rendering="crispEdges" text-anchor="middle" x="32.885cm" y="27.884999999999998cm">41</text><rect fill="black" height="12.5cm" shape-rendering="crispEdges" width="12.5cm" x="39.135cm" y="26.634999999999998cm" /><rect fill="black" height="12.5cm" shape-rendering="crispEdges" width="12.5cm" x="1.635cm" y="39.135cm" /><rect fill="white" height="12.5cm" shape-rendering="crispEdges" width="12.5cm" x="14.135cm" y="39.135cm" /><rect fill="black" height="7.5cm" shape-rendering="crispEdges" width="7.5cm" x="16.634999999999998cm" y="41.635cm" /><rect fill="white" height="2.5cm" shape-rendering="crispEdges" width="1.25cm" x="17.885cm" y="45.385cm" /><rect fill="white" height="1.25cm" shape-rendering="crispEdges" width="1.25cm" x="17.885cm" y="46.635cm" /><rect fill="white" height="1.25cm" shape-rendering="crispEdges" width="1.25cm" x="19.134999999999998cm" y="46.635cm" /><rect fill="white" height="2.5cm" shape-rendering="crispEdges" width="1.25cm" x="20.385cm" y="42.885cm" /><rect fill="white" height="1.25cm" shape-rendering="crispEdges" width="1.25cm" x="20.385cm" y="44.135000000000005cm" /><rect fill="white" height="1.25cm" shape-rendering="crispEdges" width="1.25cm" x="21.634999999999998cm" y="42.885cm" /><rect fill="white" height="1.25cm" shape-rendering="crispEdges" width="2.5cm" x="20.385cm" y="42.885cm" /><rect fill="white" height="1.25cm" shape-rendering="crispEdges" width="1.25cm" x="21.634999999999998cm" y="42.885cm" /><rect fill="white" height="1.25cm" shape-rendering="crispEdges" width="1.25cm" x="20.385cm" y="44.135000000000005cm" /><rect fill="white" height="1.25cm" shape-rendering="crispEdges" width="1.25cm" x="17.885cm" y="45.385cm" /><rect fill="white" height="1.25cm" shape-rendering="crispEdges" width="2.5cm" x="17.885cm" y="46.635cm" /><rect fill="white" height="1.25cm" shape-rendering="crispEdges" width="1.25cm" x="19.134999999999998cm" y="46.635cm" /><text fill="black" font-family="Arial, Helvetica, sans-serif" font-size="1.25cm" shape-rendering="crispEdges" text-anchor="middle" x="20.385cm" y="40.385cm">42</text><rect fill="black" height="12.5cm" shape-rendering="crispEdges" width="12.5cm" x="26.634999999999998cm" y="39.135cm" /><rect fill="white" height="12.5cm" shape-rendering="crispEdges" width="12.5cm" x="39.135cm" y="39.135cm" /><rect fill="black" height="7.5cm" shape-rendering="crispEdges" width="7.5cm" x="41.635cm" y="41.635cm" /><rect fill="white" height="2.5cm" shape-rendering="crispEdges" width="1.25cm" x="42.885cm" y="44.135000000000005cm" /><rect fill="white" height="1.25cm" shape-rendering="crispEdges" width="1.25cm" x="42.885cm" y="45.385cm" /><rect fill="white" height="1.25cm" shape-rendering="crispEdges" width="1.25cm" x="45.385cm" y="42.885cm" /><rect fill="white" height="2.5cm" shape-rendering="crispEdges" width="1.25cm" x="45.385cm" y="45.385cm" /><rect fill="white" height="1.25cm" shape-rendering="crispEdges" width="1.25cm" x="45.385cm" y="46.635cm" /><rect fill="white" height="1.25cm" shape-rendering="crispEdges" width="1.25cm" x="46.635cm" y="42.885cm" /><rect fill="white" height="1.25cm" shape-rendering="crispEdges" width="1.25cm" x="46.635cm" y="45.385cm" /><rect fill="white" height="1.25cm" shape-rendering="crispEdges" width="2.5cm" x="45.385cm" y="42.885cm" /><rect fill="white" height="1.25cm" shape-rendering="crispEdges" width="1.25cm" x="46.635cm" y="42.885cm" /><rect fill="white" height="1.25cm" shape-rendering="crispEdges" width="1.25cm" x="42.885cm" y="44.135000000000005cm" /><rect fill="white" height="1.25cm" shape-rendering="crispEdges" width="1.25cm" x="42.885cm" y="45.385cm" /><rect fill="white" height="1.25cm" shape-rendering="crispEdges" width="2.5cm" x="45.385cm" y="45.385cm" /><rect fill="white" height="1.25cm" shape-rendering="crispEdges" width="1.25cm" x="46.635cm" y="45.385cm" /><rect fill="white" height="1.25cm" shape-rendering="crispEdges" width="1.25cm" x="45.385cm" y="46.635cm" /><text fill="black" font-family="Arial, Helvetica, sans-serif" font-size="1.25cm" shape-rendering="crispEdges" text-anchor="middle" x="45.385cm" y="40.385cm">43</text><rect fill="white" height="12.5cm" shape-rendering="crispEdges" width="12.5cm" x="1.635cm" y="51.635cm" /><rect fill="black" height="7.5cm" shape-rendering="crispEdges" width="7.5cm" x="4.135cm" y="54.135cm" /><rect fill="white" height="2.5cm" shape-rendering="crispEdges" width="1.25cm" x="5.385cm" y="57.885cm" /><rect fill="white" height="1.25cm" shape-rendering="crispEdges" width="1.25cm" x="5.385cm" y="59.135000000000005cm" /><rect fill="white" height="2.5cm" shape-rendering="crispEdges" width="1.25cm" x="6.634999999999999cm" y="56.635000000000005cm" /><rect fill="white" height="1.25cm" shape-rendering="crispEdges" width="1.25cm" x="6.634999999999999cm" y="57.885cm" /><rect fill="white" height="1.25cm" shape-rendering="crispEdges" width="1.25cm" x="7.885000000000001cm" y="55.385cm" /><rect fill="white" height="1.25cm" shape-rendering="crispEdges" width="1.25cm" x="7.885000000000001cm" y="57.885cm" /><rect fill="white" height="1.25cm" shape-rendering="crispEdges" width="1.25cm" x="7.885000000000001cm" y="55.385cm" /><rect fill="white" height="1.25cm" shape-rendering="crispEdges" width="1.25cm" x="6.634999999999999cm" y="56.635000000000005cm" /><rect fill="white" height="1.25cm" shape-rendering="crispEdges" width="3.75cm" x="5.385cm" y="57.885cm" /><rect fill="white" height="1.25cm" shape-rendering="crispEdges" width="2.5cm" x="6.634999999999999cm" y="57.885cm" /><rect fill="white" height="1.25cm" shape-rendering="crispEdges" width="1.25cm" x="7.885000000000001cm" y="57.885cm" /><rect fill="white" height="1.25cm" shape-rendering="crispEdges" width="1.25cm" x="5.385cm" y="59.135000000000005cm" /><text fill="black" font-family="Arial, Helvetica, sans-serif" font-size="1.25cm" shape-rendering="crispEdges" text-anchor="middle" x="7.885000000000001cm" y="52.88499999999999cm">44</text><rect fill="black" height="12.5cm" shape-rendering="crispEdges" width="12.5cm" x="14.135cm" y="51.635cm" /><rect fill="white" height="12.5cm" shape-rendering="crispEdges" width="12.5cm" x="26.634999999999998cm" y="51.635cm" /><rect fill="black" height="7.5cm" shape-rendering="crispEdges" width="7.5cm" x="29.134999999999998cm" y="54.135cm" /><rect fill="white" height="3.75cm" shape-rendering="crispEdges" width="1.25cm" x="30.385cm" y="56.635000000000005cm" /><rect fill="white" height="2.5cm" shape-rendering="crispEdges" width="1.25cm" x="30.385cm" y="57.885cm" /><rect fill="white" height="1.25cm" shape-rendering="crispEdges" width="1.25cm" x="30.385cm" y="59.135000000000005cm" /><rect fill="white" height="2.5cm" shape-rendering="crispEdges" width="1.25cm" x="31.635cm" y="56.635000000000005cm" /><rect fill="white" height="1.25cm" shape-rendering="crispEdges" width="1.25cm" x="31.635cm" y="57.885cm" /><rect fill="white" height="5.0cm" shape-rendering="crispEdges" width="1.25cm" x="32.885cm" y="55.385cm" /><rect fill="white" height="3.75cm" shape-rendering="crispEdges" width="1.25cm" x="32.885cm" y="56.635000000000005cm" /><rect fill="white" height="2.5cm" shape-rendering="crispEdges" width="1.25cm" x="32.885cm" y="57.885cm" /><rect fill="white" height="1.25cm" shape-rendering="crispEdges" width="1.25cm" x="32.885cm" y="59.135000000000005cm" /><rect fill="white" height="1.25cm" shape-rendering="crispEdges" width="1.25cm" x="34.135cm" y="59.135000000000005cm" /><rect fill="white" height="1.25cm" shape-rendering="crispEdges" width="1.25cm" x="32.885cm" y="55.385cm" /><rect fill="white" height="1.25cm" shape-rendering="crispEdges" width="3.75cm" x="30.385cm" y="56.635000000000005cm" /><rect fill="white" height="1.25cm" shape-rendering="crispEdges" width="2.5cm" x="31.635cm" y="56.635000000000005cm" /><rect fill="white" height="1.25cm" shape-rendering="crispEdges" width="1.25cm" x="32.885cm" y="56.635000000000005cm" /><rect fill="white" height="1.25cm" shape-rendering="crispEdges" width="3.75cm" x="30.385cm" y="57.885cm" /><rect fill="white" height="1.25cm" shape-rendering="crispEdges" width="2.5cm" x="31.635cm" y="57.885cm" /><rect fill="white" height="1.25cm" shape-rendering="crispEdges" width="1.25cm" x="32.885cm" y="57.885cm" /><rect fill="white" height="1.25cm" shape-rendering="crispEdges" width="1.25cm" x="30.385cm" y="59.135000000000005cm" /><rect fill="white" height="1.25cm" shape-rendering="crispEdges" width="2.5cm" x="32.885cm" y="59.135000000000005cm" /><rect fill="white" height="1.25cm" shape-rendering="crispEdges" width="1.25cm" x="34.135cm" y="59.135000000000005cm" /><text fill="black" font-family="Arial, Helvetica, sans-serif" font-size="1.25cm" shape-rendering="crispEdges" text-anchor="middle" x="32.885cm" y="52.88499999999999cm">45</text><rect fill="black" height="12.5cm" shape-rendering="crispEdges" width="12.5cm" x="39.135cm" y="51.635cm" /><rect fill="black" height="12.5cm" shape-rendering="crispEdges" width="12.5cm" x="1.635cm" y="64.13499999999999cm" /><rect fill="white" height="12.5cm" shape-rendering="crispEdges" width="12.5cm" x="14.135cm" y="64.13499999999999cm" /><rect fill="black" height="7.5cm" shape-rendering="crispEdges" width="7.5cm" x="16.634999999999998cm" y="66.635cm" /><rect fill="white" height="1.25cm" shape-rendering="crispEdges" width="1.25cm" x="17.885cm" y="69.135cm" /><rect fill="white" height="1.25cm" shape-rendering="crispEdges" width="1.25cm" x="17.885cm" y="71.635cm" /><rect fill="white" height="1.25cm" shape-rendering="crispEdges" width="1.25cm" x="19.134999999999998cm" y="69.135cm" /><rect fill="white" height="1.25cm" shape-rendering="crispEdges" width="1.25cm" x="19.134999999999998cm" y="71.635cm" /><rect fill="white" height="1.25cm" shape-rendering="crispEdges" width="1.25cm" x="20.385cm" y="67.88499999999999cm" /><rect fill="white" height="2.5cm" shape-rendering="crispEdges" width="1.25cm" x="20.385cm" y="70.38499999999999cm" /><rect fill="white" height="1.25cm" shape-rendering="crispEdges" width="1.25cm" x="20.385cm" y="71.635cm" /><rect fill="white" height="3.75cm" shape-rendering="crispEdges" width="1.25cm" x="21.634999999999998cm" y="69.135cm" /><rect fill="white" height="2.5cm" shape-rendering="crispEdges" width="1.25cm" x="21.634999999999998cm" y="70.38499999999999cm" /><rect fill="white" height="1.25cm" shape-rendering="crispEdges" width="1.25cm" x="21.634999999999998cm" y="71.635cm" /><rect fill="white" height="1.25cm" shape-rendering="crispEdges" width="1.25cm" x="20.385cm" y="67.88499999999999cm" /><rect fill="white" height="1.25cm" shape-rendering="crispEdges" width="2.5cm" x="17.885cm" y="69.135cm" /><rect fill="white" height="1.25cm" shape-rendering="crispEdges" width="1.25cm" x="19.134999999999998cm" y="69.135cm" /><rect fill="white" height="1.25cm" shape-rendering="crispEdges" width="1.25cm" x="21.634999999999998cm" y="69.135cm" /><rect fill="white" height="1.25cm" shape-rendering="crispEdges" width="2.5cm" x="20.385cm" y="70.38499999999999cm" /><rect fill="white" height="1.25cm" shape-rendering="crispEdges" width="1.25cm" x="21.634999999999998cm" y="70.38499999999999cm" /><rect fill="white" height="1.25cm" shape-rendering="crispEdges" width="5.0cm" x="17.885cm" y="71.635cm" /><rect fill="white" height="1.25cm" shape-rendering="crispEdges" width="3.75cm" x="19.134999999999998cm" y="71.635cm" /><rect fill="white" height="1.25cm" shape-rendering="crispEdges" width="2.5cm" x="20.385cm" y="71.635cm" /><rect fill="white" height="1.25cm" shape-rendering="crispEdges" width="1.25cm" x="21.634999999999998cm" y="71.635cm" /><text fill="black" font-family="Arial, Helvetica, sans-serif" font-size="1.25cm" shape-rendering="crispEdges" text-anchor="middle" x="20.385cm" y="65.38499999999999cm">46</text><rect fill="black" height="12.5cm" shape-rendering="crispEdges" width="12.5cm" x="26.634999999999998cm" y="64.13499999999999cm" /><rect fill="white" height="12.5cm" shape-rendering="crispEdges" width="12.5cm" x="39.135cm" y="64.13499999999999cm" /><rect fill="black" height="7.5cm" shape-rendering="crispEdges" width="7.5cm" x="41.635cm" y="66.635cm" /><rect fill="white" height="1.25cm" shape-rendering="crispEdges" width="1.25cm" x="42.885cm" y="69.135cm" /><rect fill="white" height="1.25cm" shape-rendering="crispEdges" width="1.25cm" x="44.135000000000005cm" y="67.88499999999999cm" /><rect fill="white" height="2.5cm" shape-rendering="crispEdges" width="1.25cm" x="44.135000000000005cm" y="70.38499999999999cm" /><rect fill="white" height="1.25cm" shape-rendering="crispEdges" width="1.25cm" x="44.135000000000005cm" y="71.635cm" /><rect fill="white" height="2.5cm" shape-rendering="crispEdges" width="1.25cm" x="45.385cm" y="69.135cm" /><rect fill="white" height="1.25cm" shape-rendering="crispEdges" width="1.25cm" x="45.385cm" y="70.38499999999999cm" /><rect fill="white" height="1.25cm" shape-rendering="crispEdges" width="1.25cm" x="46.635cm" y="69.135cm" /><rect fill="white" height="1.25cm" shape-rendering="crispEdges" width="1.25cm" x="44.135000000000005cm" y="67.88499999999999cm" /><rect fill="white" height="1.25cm" shape-rendering="crispEdges" width="1.25cm" x="42.885cm" y="69.135cm" /><rect fill="white" height="1.25cm" shape-rendering="crispEdges" width="2.5cm" x="45.385cm" y="69.135cm" /><rect fill="white" height="1.25cm" shape-rendering="crispEdges" width="1.25cm" x="46.635cm" y="69.135cm" /><rect fill="white" height="1.25cm" shape-rendering="crispEdges" width="2.5cm" x="44.135000000000005cm" y="70.38499999999999cm" /><rect fill="white" height="1.25cm" shape-rendering="crispEdges" width="1.25cm" x="45.385cm" y="70.38499999999999cm" /><rect fill="white" height="1.25cm" shape-rendering="crispEdges" width="1.25cm" x="44.135000000000005cm" y="71.635cm" /><text fill="black" font-family="Arial, Helvetica, sans-serif" font-size="1.25cm" shape-rendering="crispEdges" text-anchor="middle" x="45.385cm" y="65.38499999999999cm">47</text><text fill="white" font-family="Arial, Helvetica, sans-serif" font-size="0.75cm" shape-rendering="crispEdges" text-anchor="middle" x="20.385cm" y="2.8850000000000002cm">4X4_250, 0.125, 0.075</text><line fill="none" shape-rendering="crispEdges" stroke="black" stroke-width="1" x1="0.0cm" x2="3.7600000000000002cm" y1="0.635cm" y2="0.635cm" /><line fill="none" shape-rendering="crispEdges" stroke="black" stroke-width="1" x1="0.635cm" x2="0.635cm" y1="0.0cm" y2="3.7600000000000002cm" /><line fill="none" shape-rendering="crispEdges" stroke="black" stroke-width="1" x1="53.269999999999996cm" x2="49.51cm" y1="0.635cm" y2="0.635cm" /><line fill="none" shape-rendering="crispEdges" stroke="black" stroke-width="1" x1="52.635cm" x2="52.635cm" y1="0.0cm" y2="3.7600000000000002cm" /><line fill="none" shape-rendering="crispEdges" stroke="black" stroke-width="1" x1="0.0cm" x2="3.7600000000000002cm" y1="77.635cm" y2="77.635cm" /><line fill="none" shape-rendering="crispEdges" stroke="black" stroke-width="1" x1="0.635cm" x2="0.635cm" y1="78.27cm" y2="74.51cm" /><line fill="none" shape-rendering="crispEdges" stroke="black" stroke-width="1" x1="53.269999999999996cm" x2="49.51cm" y1="77.635cm" y2="77.635cm" /><line fill="none" shape-rendering="crispEdges" stroke="black" stroke-width="1" x1="52.635cm" x2="52.635cm" y1="78.27cm" y2="74.51cm" /></svg>