<?xml version="1.0" encoding="utf-8" ?>
<svg baseProfile="full" height="81.13cm" version="1.1" width="54.53cm" xmlns="http://www.w3.org/2000/svg" xmlns:ev="http://www.w3.org/2001/xml-events" xmlns:xlink="http://www.w3.org/1999/xlink"><defs /><circle cx="0.665cm" cy="0.665cm" fill="none" r="0.47022600948905413cm" shape-rendering="crispEdges" stroke="black" stroke-width="1" /><circle cx="53.864999999999995cm" cy="0.665cm" fill="none" r="0.47022600948905413cm" shape-rendering="crispEdges" stroke="black" stroke-width="1" /><circle cx="0.665cm" cy="80.465cm" fill="none" r="0.47022600948905413cm" shape-rendering="crispEdges" stroke="black" stroke-width="1" /><circle cx="53.864999999999995cm" cy="80.465cm" fill="none" r="0.47022600948905413cm" shape-rendering="crispEdges" stroke="black" stroke-width="1" /><rect fill="white" height="13.3cm" shape-rendering="crispEdges" width="13.3cm" x="0.665cm" y="0.665cm" /><rect fill="black" height="8.0cm" shape-rendering="crispEdges" width="8.0cm" x="3.3150000000000004cm" y="3.3150000000000004cm" /><rect fill="white" height="2.666666666666667cm" shape-rendering="crispEdges" width="1.3333333333333335cm" x="4.648333333333334cm" y="5.981666666666667cm" /><rect fill="white" height="1.3333333333333335cm" shape-rendering="crispEdges" width="1.3333333333333335cm" x="4.648333333333334cm" y="7.315cm" /><rect fill="white" height="1.3333333333333335cm" shape-rendering="crispEdges" width="1.3333333333333335cm" x="5.981666666666667cm" y="5.981666666666667cm" /><rect fill="white" height="1.3333333333333335cm" shape-rendering="crispEdges" width="1.3333333333333335cm" x="5.981666666666667cm" y="8.648333333333333cm" /><rect fill="white" height="4.0cm" shape-rendering="crispEdges" width="1.3333333333333335cm" x="7.315cm" y="5.981666666666667cm" /><rect fill="white" height="2.666666666666667cm" shape-rendering="crispEdges" width="1.3333333333333335cm" x="7.315cm" y="7.315cm" /><rect fill="white" height="1.3333333333333335cm" shape-rendering="crispEdges" width="1.3333333333333335cm" x="7.315cm" y="8.648333333333333cm" /><rect fill="white" height="2.666666666666667cm" shape-rendering="crispEdges" width="1.3333333333333335cm" x="8.648333333333333cm" y="7.315cm" /><rect fill="white" height="1.3333333333333335cm" shape-rendering="crispEdges" width="1.3333333333333335cm" x="8.648333333333333cm" y="8.648333333333333cm" /><rect fill="white" height="1.3333333333333335cm" shape-rendering="crispEdges" width="4.0cm" x="4.648333333333334cm" y="5.981666666666667cm" /><rect fill="white" height="1.3333333333333335cm" shape-rendering="crispEdges" width="2.666666666666667cm" x="5.981666666666667cm" y="5.981666666666667cm" /><rect fill="white" height="1.3333333333333335cm" shape-rendering="crispEdges" width="1.3333333333333335cm" x="7.315cm" y="5.981666666666667cm" /><rect fill="white" height="1.3333333333333335cm" shape-rendering="crispEdges" width="1.3333333333333335cm" x="4.648333333333334cm" y="7.315cm" /><rect fill="white" height="1.3333333333333335cm" shape-rendering="crispEdges" width="2.666666666666667cm" x="7.315cm" y="7.315cm" /><rect fill="white" height="1.3333333333333335cm" shape-rendering="crispEdges" width="1.3333333333333335cm" x="8.648333333333333cm" y="7.315cm" /><rect fill="white" height="1.3333333333333335cm" shape-rendering="crispEdges" width="4.0cm" x="5.981666666666667cm" y="8.648333333333333cm" /><rect fill="white" height="1.3333333333333335cm" shape-rendering="crispEdges" width="2.666666666666667cm" x="7.315cm" y="8.648333333333333cm" /><rect fill="white" height="1.3333333333333335cm" shape-rendering="crispEdges" width="1.3333333333333335cm" x="8.648333333333333cm" y="8.648333333333333cm" /><text fill="black" font-family="Arial, Helvetica, sans-serif" font-size="1.33cm" shape-rendering="crispEdges" text-anchor="middle" x="7.315cm" y="1.9950000000000003cm">12</text><rect fill="black" height="13.3cm" shape-rendering="crispEdges" width="13.3cm" x="13.965000000000002cm" y="0.665cm" /><rect fill="white" height="13.3cm" shape-rendering="crispEdges" width="13.3cm" x="27.265cm" y="0.665cm" /><rect fill="black" height="8.0cm" shape-rendering="crispEdges" width="8.0cm" x="29.915000000000003cm" y="3.3150000000000004cm" /><rect fill="white" height="1.3333333333333335cm" shape-rendering="crispEdges" width="1.3333333333333335cm" x="31.248333333333335cm" y="5.981666666666667cm" /><rect fill="white" height="1.3333333333333335cm" shape-rendering="crispEdges" width="1.3333333333333335cm" x="31.248333333333335cm" y="8.648333333333333cm" /><rect fill="white" height="1.3333333333333335cm" shape-rendering="crispEdges" width="1.3333333333333335cm" x="32.58166666666667cm" y="8.648333333333333cm" /><rect fill="white" height="2.666666666666667cm" shape-rendering="crispEdges" width="1.3333333333333335cm" x="33.915cm" y="4.648333333333334cm" /><rect fill="white" height="1.3333333333333335cm" shape-rendering="crispEdges" width="1.3333333333333335cm" x="33.915cm" y="5.981666666666667cm" /><rect fill="white" height="1.3333333333333335cm" shape-rendering="crispEdges" width="1.3333333333333335cm" x="33.915cm" y="8.648333333333333cm" /><rect fill="white" height="1.3333333333333335cm" shape-rendering="crispEdges" width="1.3333333333333335cm" x="35.248333333333335cm" y="8.648333333333333cm" /><rect fill="white" height="1.3333333333333335cm" shape-rendering="crispEdges" width="1.3333333333333335cm" x="33.915cm" y="4.648333333333334cm" /><rect fill="white" height="1.3333333333333335cm" shape-rendering="crispEdges" width="1.3333333333333335cm" x="31.248333333333335cm" y="5.981666666666667cm" /><rect fill="white" height="1.3333333333333335cm" shape-rendering="crispEdges" width="1.3333333333333335cm" x="33.915cm" y="5.981666666666667cm" /><rect fill="white" height="1.3333333333333335cm" shape-rendering="crispEdges" width="5.333333333333334cm" x="31.248333333333335cm" y="8.648333333333333cm" /><rect fill="white" height="1.3333333333333335cm" shape-rendering="crispEdges" width="4.0cm" x="32.58166666666667cm" y="8.648333333333333cm" /><rect fill="white" height="1.3333333333333335cm" shape-rendering="crispEdges" width="2.666666666666667cm" x="33.915cm" y="8.648333333333333cm" /><rect fill="white" height="1.3333333333333335cm" shape-rendering="crispEdges" width="1.3333333333333335cm" x="35.248333333333335cm" y="8.648333333333333cm" /><text fill="black" font-family="Arial, Helvetica, sans-serif" font-size="1.33cm" shape-rendering="crispEdges" text-anchor="middle" x="33.915cm" y="1.9950000000000003cm">13</text><rect fill="black" height="13.3cm" shape-rendering="crispEdges" width="13.3cm" x="40.565cm" y="0.665cm" /><rect fill="black" height="13.3cm" shape-rendering="crispEdges" width="13.3cm" x="0.665cm" y="13.965000000000002cm" /><rect fill="white" height="13.3cm" shape-rendering="crispEdges" width="13.3cm" x="13.965000000000002cm" y="13.965000000000002cm" /><rect fill="black" height="8.0cm" shape-rendering="crispEdges" width="8.0cm" x="16.615000000000002cm" y="16.615000000000002cm" /><rect fill="white" height="1.3333333333333335cm" shape-rendering="crispEdges" width="1.3333333333333335cm" x="17.948333333333334cm" y="20.615000000000002cm" /><rect fill="white" height="1.3333333333333335cm" shape-rendering="crispEdges" width="1.3333333333333335cm" x="19.28166666666667cm" y="19.28166666666667cm" /><rect fill="white" height="1.3333333333333335cm" shape-rendering="crispEdges" width="1.3333333333333335cm" x="20.615000000000002cm" y="17.948333333333334cm" /><rect fill="white" height="1.3333333333333335cm" shape-rendering="crispEdges" width="1.3333333333333335cm" x="20.615000000000002cm" y="20.615000000000002cm" /><rect fill="white" height="2.666666666666667cm" shape-rendering="crispEdges" width="1.3333333333333335cm" x="21.948333333333338cm" y="20.615000000000002cm" /><rect fill="white" height="1.3333333333333335cm" shape-rendering="crispEdges" width="1.3333333333333335cm" x="21.948333333333338cm" y="21.948333333333338cm" /><rect fill="white" height="1.3333333333333335cm" shape-rendering="crispEdges" width="1.3333333333333335cm" x="20.615000000000002cm" y="17.948333333333334cm" /><rect fill="white" height="1.3333333333333335cm" shape-rendering="crispEdges" width="1.3333333333333335cm" x="19.28166666666667cm" y="19.28166666666667cm" /><rect fill="white" height="1.3333333333333335cm" shape-rendering="crispEdges" width="1.3333333333333335cm" x="17.948333333333334cm" y="20.615000000000002cm" /><rect fill="white" height="1.3333333333333335cm" shape-rendering="crispEdges" width="2.666666666666667cm" x="20.615000000000002cm" y="20.615000000000002cm" /><rect fill="white" height="1.3333333333333335cm" shape-rendering="crispEdges" width="1.3333333333333335cm" x="21.948333333333338cm" y="20.615000000000002cm" /><rect fill="white" height="1.3333333333333335cm" shape-rendering="crispEdges" width="1.3333333333333335cm" x="21.948333333333338cm" y="21.948333333333338cm" /><text fill="black" font-family="Arial, Helvetica, sans-serif" font-size="1.33cm" shape-rendering="crispEdges" text-anchor="middle" x="20.615000000000002cm" y="15.295000000000003cm">14</text><rect fill="black" height="13.3cm" shape-rendering="crispEdges" width="13.3cm" x="27.265cm" y="13.965000000000002cm" /><rect fill="white" height="13.3cm" shape-rendering="crispEdges" width="13.3cm" x="40.565cm" y="13.965000000000002cm" /><rect fill="black" height="8.0cm" shape-rendering="crispEdges" width="8.0cm" x="43.215cm" y="16.615000000000002cm" /><rect fill="white" height="1.3333333333333335cm" shape-rendering="crispEdges" width="1.3333333333333335cm" x="44.54833333333333cm" y="21.948333333333338cm" /><rect fill="white" height="1.3333333333333335cm" shape-rendering="crispEdges" width="1.3333333333333335cm" x="45.88166666666667cm" y="19.28166666666667cm" /><rect fill="white" height="1.3333333333333335cm" shape-rendering="crispEdges" width="1.3333333333333335cm" x="45.88166666666667cm" y="21.948333333333338cm" /><rect fill="white" height="5.333333333333334cm" shape-rendering="crispEdges" width="1.3333333333333335cm" x="47.215cm" y="17.948333333333334cm" /><rect fill="white" height="4.0cm" shape-rendering="crispEdges" width="1.3333333333333335cm" x="47.215cm" y="19.28166666666667cm" /><rect fill="white" height="2.666666666666667cm" shape-rendering="crispEdges" width="1.3333333333333335cm" x="47.215cm" y="20.615000000000002cm" /><rect fill="white" height="1.3333333333333335cm" shape-rendering="crispEdges" width="1.3333333333333335cm" x="47.215cm" y="21.948333333333338cm" /><rect fill="white" height="1.3333333333333335cm" shape-rendering="crispEdges" width="1.3333333333333335cm" x="48.54833333333334cm" y="20.615000000000002cm" /><rect fill="white" height="1.3333333333333335cm" shape-rendering="crispEdges" width="1.3333333333333335cm" x="47.215cm" y="17.948333333333334cm" /><rect fill="white" height="1.3333333333333335cm" shape-rendering="crispEdges" width="2.666666666666667cm" x="45.88166666666667cm" y="19.28166666666667cm" /><rect fill="white" height="1.3333333333333335cm" shape-rendering="crispEdges" width="1.3333333333333335cm" x="47.215cm" y="19.28166666666667cm" /><rect fill="white" height="1.3333333333333335cm" shape-rendering="crispEdges" width="2.666666666666667cm" x="47.215cm" y="20.615000000000002cm" /><rect fill="white" height="1.3333333333333335cm" shape-rendering="crispEdges" width="1.3333333333333335cm" x="48.54833333333334cm" y="20.615000000000002cm" /><rect fill="white" height="1.3333333333333335cm" shape-rendering="crispEdges" width="4.0cm" x="44.54833333333333cm" y="21.948333333333338cm" /><rect fill="white" height="1.3333333333333335cm" shape-rendering="crispEdges" width="2.666666666666667cm" x="45.88166666666667cm" y="21.948333333333338cm" /><rect fill="white" height="1.3333333333333335cm" shape-rendering="crispEdges" width="1.3333333333333335cm" x="47.215cm" y="21.948333333333338cm" /><text fill="black" font-family="Arial, Helvetica, sans-serif" font-size="1.33cm" shape-rendering="crispEdges" text-anchor="middle" x="47.215cm" y="15.295000000000003cm">15</text><rect fill="white" height="13.3cm" shape-rendering="crispEdges" width="13.3cm" x="0.665cm" y="27.265cm" /><rect fill="black" height="8.0cm" shape-rendering="crispEdges" width="8.0cm" x="3.3150000000000004cm" y="29.915000000000003cm" /><rect fill="white" height="5.333333333333334cm" shape-rendering="crispEdges" width="1.3333333333333335cm" x="5.981666666666667cm" y="31.248333333333335cm" /><rect fill="white" height="4.0cm" shape-rendering="crispEdges" width="1.3333333333333335cm" x="5.981666666666667cm" y="32.58166666666667cm" /><rect fill="white" height="2.666666666666667cm" shape-rendering="crispEdges" width="1.3333333333333335cm" x="5.981666666666667cm" y="33.915cm" /><rect fill="white" height="1.3333333333333335cm" shape-rendering="crispEdges" width="1.3333333333333335cm" x="5.981666666666667cm" y="35.248333333333335cm" /><rect fill="white" height="2.666666666666667cm" shape-rendering="crispEdges" width="1.3333333333333335cm" x="7.315cm" y="32.58166666666667cm" /><rect fill="white" height="1.3333333333333335cm" shape-rendering="crispEdges" width="1.3333333333333335cm" x="7.315cm" y="33.915cm" /><rect fill="white" height="1.3333333333333335cm" shape-rendering="crispEdges" width="1.3333333333333335cm" x="8.648333333333333cm" y="35.248333333333335cm" /><rect fill="white" height="1.3333333333333335cm" shape-rendering="crispEdges" width="1.3333333333333335cm" x="5.981666666666667cm" y="31.248333333333335cm" /><rect fill="white" height="1.3333333333333335cm" shape-rendering="crispEdges" width="2.666666666666667cm" x="5.981666666666667cm" y="32.58166666666667cm" /><rect fill="white" height="1.3333333333333335cm" shape-rendering="crispEdges" width="1.3333333333333335cm" x="7.315cm" y="32.58166666666667cm" /><rect fill="white" height="1.3333333333333335cm" shape-rendering="crispEdges" width="2.666666666666667cm" x="5.981666666666667cm" y="33.915cm" /><rect fill="white" height="1.3333333333333335cm" shape-rendering="crispEdges" width="1.3333333333333335cm" x="7.315cm" y="33.915cm" /><rect fill="white" height="1.3333333333333335cm" shape-rendering="crispEdges" width="1.3333333333333335cm" x="5.981666666666667cm" y="35.248333333333335cm" /><rect fill="white" height="1.3333333333333335cm" shape-rendering="crispEdges" width="1.3333333333333335cm" x="8.648333333333333cm" y="35.248333333333335cm" /><text fill="black" font-family="Arial, Helvetica, sans-serif" font-size="1.33cm" shape-rendering="crispEdges" text-anchor="middle" x="7.315cm" y="28.595cm">16</text><rect fill="black" height="13.3cm" shape-rendering="crispEdges" width="13.3cm" x="13.965000000000002cm" y="27.265cm" /><rect fill="white" height="13.3cm" shape-rendering="crispEdges" width="13.3cm" x="27.265cm" y="27.265cm" /><rect fill="black" height="8.0cm" shape-rendering="crispEdges" width="8.0cm" x="29.915000000000003cm" y="29.915000000000003cm" /><rect fill="white" height="2.666666666666667cm" shape-rendering="crispEdges" width="1.3333333333333335cm" x="32.58166666666667cm" y="31.248333333333335cm" /><rect fill="white" height="1.3333333333333335cm" shape-rendering="crispEdges" width="1.3333333333333335cm" x="32.58166666666667cm" y="32.58166666666667cm" /><rect fill="white" height="2.666666666666667cm" shape-rendering="crispEdges" width="1.3333333333333335cm" x="33.915cm" y="31.248333333333335cm" /><rect fill="white" height="1.3333333333333335cm" shape-rendering="crispEdges" width="1.3333333333333335cm" x="33.915cm" y="32.58166666666667cm" /><rect fill="white" height="1.3333333333333335cm" shape-rendering="crispEdges" width="2.666666666666667cm" x="32.58166666666667cm" y="31.248333333333335cm" /><rect fill="white" height="1.3333333333333335cm" shape-rendering="crispEdges" width="1.3333333333333335cm" x="33.915cm" y="31.248333333333335cm" /><rect fill="white" height="1.3333333333333335cm" shape-rendering="crispEdges" width="2.666666666666667cm" x="32.58166666666667cm" y="32.58166666666667cm" /><rect fill="white" height="1.3333333333333335cm" shape-rendering="crispEdges" width="1.3333333333333335cm" x="33.915cm" y="32.58166666666667cm" /><text fill="black" font-family="Arial, Helvetica, sans-serif" font-size="1.33cm" shape-rendering="crispEdges" text-anchor="middle" x="33.915cm" y="28.595cm">17</text><rect fill="black" height="13.3cm" shape-rendering="crispEdges" width="13.3cm" x="40.565cm" y="27.265cm" /><rect fill="black" height="13.3cm" shape-rendering="crispEdges" width="13.3cm" x="0.665cm" y="40.565cm" /><rect fill="white" height="13.3cm" shape-rendering="crispEdges" width="13.3cm" x="13.965000000000002cm" y="40.565cm" /><rect fill="black" height="8.0cm" shape-rendering="crispEdges" width="8.0cm" x="16.615000000000002cm" y="43.215cm" /><rect fill="white" height="1.3333333333333335cm" shape-rendering="crispEdges" width="1.3333333333333335cm" x="17.948333333333334cm" y="45.88166666666667cm" /><rect fill="white" height="1.3333333333333335cm" shape-rendering="crispEdges" width="1.3333333333333335cm" x="17.948333333333334cm" y="48.54833333333334cm" /><rect fill="white" height="5.333333333333334cm" shape-rendering="crispEdges" width="1.3333333333333335cm" x="19.28166666666667cm" y="44.54833333333333cm" /><rect fill="white" height="4.0cm" shape-rendering="crispEdges" width="1.3333333333333335cm" x="19.28166666666667cm" y="45.88166666666667cm" /><rect fill="white" height="2.666666666666667cm" shape-rendering="crispEdges" width="1.3333333333333335cm" x="19.28166666666667cm" y="47.215cm" /><rect fill="white" height="1.3333333333333335cm" shape-rendering="crispEdges" width="1.3333333333333335cm" x="19.28166666666667cm" y="48.54833333333334cm" /><rect fill="white" height="1.3333333333333335cm" shape-rendering="crispEdges" width="1.3333333333333335cm" x="20.615000000000002cm" y="44.54833333333333cm" /><rect fill="white" height="1.3333333333333335cm" shape-rendering="crispEdges" width="1.3333333333333335cm" x="20.615000000000002cm" y="48.54833333333334cm" /><rect fill="white" height="1.3333333333333335cm" shape-rendering="crispEdges" width="1.3333333333333335cm" x="21.948333333333338cm" y="47.215cm" /><rect fill="white" height="1.3333333333333335cm" shape-rendering="crispEdges" width="2.666666666666667cm" x="19.28166666666667cm" y="44.54833333333333cm" /><rect fill="white" height="1.3333333333333335cm" shape-rendering="crispEdges" width="1.3333333333333335cm" x="20.615000000000002cm" y="44.54833333333333cm" /><rect fill="white" height="1.3333333333333335cm" shape-rendering="crispEdges" width="2.666666666666667cm" x="17.948333333333334cm" y="45.88166666666667cm" /><rect fill="white" height="1.3333333333333335cm" shape-rendering="crispEdges" width="1.3333333333333335cm" x="19.28166666666667cm" y="45.88166666666667cm" /><rect fill="white" height="1.3333333333333335cm" shape-rendering="crispEdges" width="1.3333333333333335cm" x="19.28166666666667cm" y="47.215cm" /><rect fill="white" height="1.3333333333333335cm" shape-rendering="crispEdges" width="1.3333333333333335cm" x="21.948333333333338cm" y="47.215cm" /><rect fill="white" height="1.3333333333333335cm" shape-rendering="crispEdges" width="4.0cm" x="17.948333333333334cm" y="48.54833333333334cm" /><rect fill="white" height="1.3333333333333335cm" shape-rendering="crispEdges" width="2.666666666666667cm" x="19.28166666666667cm" y="48.54833333333334cm" /><rect fill="white" height="1.3333333333333335cm" shape-rendering="crispEdges" width="1.3333333333333335cm" x="20.615000000000002cm" y="48.54833333333334cm" /><text fill="black" font-family="Arial, Helvetica, sans-serif" font-size="1.33cm" shape-rendering="crispEdges" text-anchor="middle" x="20.615000000000002cm" y="41.894999999999996cm">18</text><rect fill="black" height="13.3cm" shape-rendering="crispEdges" width="13.3cm" x="27.265cm" y="40.565cm" /><rect fill="white" height="13.3cm" shape-rendering="crispEdges" width="13.3cm" x="40.565cm" y="40.565cm" /><rect fill="black" height="8.0cm" shape-rendering="crispEdges" width="8.0cm" x="43.215cm" y="43.215cm" /><rect fill="white" height="2.666666666666667cm" shape-rendering="crispEdges" width="1.3333333333333335cm" x="44.54833333333333cm" y="47.215cm" /><rect fill="white" height="1.3333333333333335cm" shape-rendering="crispEdges" width="1.3333333333333335cm" x="44.54833333333333cm" y="48.54833333333334cm" /><rect fill="white" height="2.666666666666667cm" shape-rendering="crispEdges" width="1.3333333333333335cm" x="45.88166666666667cm" y="44.54833333333333cm" /><rect fill="white" height="1.3333333333333335cm" shape-rendering="crispEdges" width="1.3333333333333335cm" x="45.88166666666667cm" y="45.88166666666667cm" /><rect fill="white" height="1.3333333333333335cm" shape-rendering="crispEdges" width="1.3333333333333335cm" x="45.88166666666667cm" y="48.54833333333334cm" /><rect fill="white" height="5.333333333333334cm" shape-rendering="crispEdges" width="1.3333333333333335cm" x="47.215cm" y="44.54833333333333cm" /><rect fill="white" height="4.0cm" shape-rendering="crispEdges" width="1.3333333333333335cm" x="47.215cm" y="45.88166666666667cm" /><rect fill="white" height="2.666666666666667cm" shape-rendering="crispEdges" width="1.3333333333333335cm" x="47.215cm" y="47.215cm" /><rect fill="white" height="1.3333333333333335cm" shape-rendering="crispEdges" width="1.3333333333333335cm" x="47.215cm" y="48.54833333333334cm" /><rect fill="white" height="1.3333333333333335cm" shape-rendering="crispEdges" width="1.3333333333333335cm" x="48.54833333333334cm" y="44.54833333333333cm" /><rect fill="white" height="1.3333333333333335cm" shape-rendering="crispEdges" width="1.3333333333333335cm" x="48.54833333333334cm" y="48.54833333333334cm" /><rect fill="white" height="1.3333333333333335cm" shape-rendering="crispEdges" width="4.0cm" x="45.88166666666667cm" y="44.54833333333333cm" /><rect fill="white" height="1.3333333333333335cm" shape-rendering="crispEdges" width="2.666666666666667cm" x="47.215cm" y="44.54833333333333cm" /><rect fill="white" height="1.3333333333333335cm" shape-rendering="crispEdges" width="1.3333333333333335cm" x="48.54833333333334cm" y="44.54833333333333cm" /><rect fill="white" height="1.3333333333333335cm" shape-rendering="crispEdges" width="2.666666666666667cm" x="45.88166666666667cm" y="45.88166666666667cm" /><rect fill="white" height="1.3333333333333335cm" shape-rendering="crispEdges" width="1.3333333333333335cm" x="47.215cm" y="45.88166666666667cm" /><rect fill="white" height="1.3333333333333335cm" shape-rendering="crispEdges" width="1.3333333333333335cm" x="44.54833333333333cm" y="47.215cm" /><rect fill="white" height="1.3333333333333335cm" shape-rendering="crispEdges" width="1.3333333333333335cm" x="47.215cm" y="47.215cm" /><rect fill="white" height="1.3333333333333335cm" shape-rendering="crispEdges" width="5.333333333333334cm" x="44.54833333333333cm" y="48.54833333333334cm" /><rect fill="white" height="1.3333333333333335cm" shape-rendering="crispEdges" width="4.0cm" x="45.88166666666667cm" y="48.54833333333334cm" /><rect fill="white" height="1.3333333333333335cm" shape-rendering="crispEdges" width="2.666666666666667cm" x="47.215cm" y="48.54833333333334cm" /><rect fill="white" height="1.3333333333333335cm" shape-rendering="crispEdges" width="1.3333333333333335cm" x="48.54833333333334cm" y="48.54833333333334cm" /><text fill="black" font-family="Arial, Helvetica, sans-serif" font-size="1.33cm" shape-rendering="crispEdges" text-anchor="middle" x="47.215cm" y="41.894999999999996cm">19</text><rect fill="white" height="13.3cm" shape-rendering="crispEdges" width="13.3cm" x="0.665cm" y="53.864999999999995cm" /><rect fill="black" height="8.0cm" shape-rendering="crispEdges" width="8.0cm" x="3.3150000000000004cm" y="56.51499999999999cm" /><rect fill="white" height="1.3333333333333335cm" shape-rendering="crispEdges" width="1.3333333333333335cm" x="4.648333333333334cm" y="57.84833333333332cm" /><rect fill="white" height="2.666666666666667cm" shape-rendering="crispEdges" width="1.3333333333333335cm" x="4.648333333333334cm" y="60.51499999999999cm" /><rect fill="white" height="1.3333333333333335cm" shape-rendering="crispEdges" width="1.3333333333333335cm" x="4.648333333333334cm" y="61.84833333333333cm" /><rect fill="white" height="1.3333333333333335cm" shape-rendering="crispEdges" width="1.3333333333333335cm" x="5.981666666666667cm" y="59.18166666666666cm" /><rect fill="white" height="1.3333333333333335cm" shape-rendering="crispEdges" width="1.3333333333333335cm" x="7.315cm" y="59.18166666666666cm" /><rect fill="white" height="1.3333333333333335cm" shape-rendering="crispEdges" width="1.3333333333333335cm" x="7.315cm" y="61.84833333333333cm" /><rect fill="white" height="1.3333333333333335cm" shape-rendering="crispEdges" width="1.3333333333333335cm" x="8.648333333333333cm" y="61.84833333333333cm" /><rect fill="white" height="1.3333333333333335cm" shape-rendering="crispEdges" width="1.3333333333333335cm" x="4.648333333333334cm" y="57.84833333333332cm" /><rect fill="white" height="1.3333333333333335cm" shape-rendering="crispEdges" width="2.666666666666667cm" x="5.981666666666667cm" y="59.18166666666666cm" /><rect fill="white" height="1.3333333333333335cm" shape-rendering="crispEdges" width="1.3333333333333335cm" x="7.315cm" y="59.18166666666666cm" /><rect fill="white" height="1.3333333333333335cm" shape-rendering="crispEdges" width="1.3333333333333335cm" x="4.648333333333334cm" y="60.51499999999999cm" /><rect fill="white" height="1.3333333333333335cm" shape-rendering="crispEdges" width="1.3333333333333335cm" x="4.648333333333334cm" y="61.84833333333333cm" /><rect fill="white" height="1.3333333333333335cm" shape-rendering="crispEdges" width="2.666666666666667cm" x="7.315cm" y="61.84833333333333cm" /><rect fill="white" height="1.3333333333333335cm" shape-rendering="crispEdges" width="1.3333333333333335cm" x="8.648333333333333cm" y="61.84833333333333cm" /><text fill="black" font-family="Arial, Helvetica, sans-serif" font-size="1.33cm" shape-rendering="crispEdges" text-anchor="middle" x="7.315cm" y="55.19499999999999cm">20</text><rect fill="black" height="13.3cm" shape-rendering="crispEdges" width="13.3cm" x="13.965000000000002cm" y="53.864999999999995cm" /><rect fill="white" height="13.3cm" shape-rendering="crispEdges" width="13.3cm" x="27.265cm" y="53.864999999999995cm" /><rect fill="black" height="8.0cm" shape-rendering="crispEdges" width="8.0cm" x="29.915000000000003cm" y="56.51499999999999cm" /><rect fill="white" height="1.3333333333333335cm" shape-rendering="crispEdges" width="1.3333333333333335cm" x="31.248333333333335cm" y="57.84833333333332cm" /><rect fill="white" height="1.3333333333333335cm" shape-rendering="crispEdges" width="1.3333333333333335cm" x="31.248333333333335cm" y="61.84833333333333cm" /><rect fill="white" height="1.3333333333333335cm" shape-rendering="crispEdges" width="1.3333333333333335cm" x="33.915cm" y="57.84833333333332cm" /><rect fill="white" height="2.666666666666667cm" shape-rendering="crispEdges" width="1.3333333333333335cm" x="33.915cm" y="60.51499999999999cm" /><rect fill="white" height="1.3333333333333335cm" shape-rendering="crispEdges" width="1.3333333333333335cm" x="33.915cm" y="61.84833333333333cm" /><rect fill="white" height="1.3333333333333335cm" shape-rendering="crispEdges" width="1.3333333333333335cm" x="35.248333333333335cm" y="57.84833333333332cm" /><rect fill="white" height="1.3333333333333335cm" shape-rendering="crispEdges" width="1.3333333333333335cm" x="35.248333333333335cm" y="61.84833333333333cm" /><rect fill="white" height="1.3333333333333335cm" shape-rendering="crispEdges" width="1.3333333333333335cm" x="31.248333333333335cm" y="57.84833333333332cm" /><rect fill="white" height="1.3333333333333335cm" shape-rendering="crispEdges" width="2.666666666666667cm" x="33.915cm" y="57.84833333333332cm" /><rect fill="white" height="1.3333333333333335cm" shape-rendering="crispEdges" width="1.3333333333333335cm" x="35.248333333333335cm" y="57.84833333333332cm" /><rect fill="white" height="1.3333333333333335cm" shape-rendering="crispEdges" width="1.3333333333333335cm" x="33.915cm" y="60.51499999999999cm" /><rect fill="white" height="1.3333333333333335cm" shape-rendering="crispEdges" width="1.3333333333333335cm" x="31.248333333333335cm" y="61.84833333333333cm" /><rect fill="white" height="1.3333333333333335cm" shape-rendering="crispEdges" width="2.666666666666667cm" x="33.915cm" y="61.84833333333333cm" /><rect fill="white" height="1.3333333333333335cm" shape-rendering="crispEdges" width="1.3333333333333335cm" x="35.248333333333335cm" y="61.84833333333333cm" /><text fill="black" font-family="Arial, Helvetica, sans-serif" font-size="1.33cm" shape-rendering="crispEdges" text-anchor="middle" x="33.915cm" y="55.19499999999999cm">21</text><rect fill="black" height="13.3cm" shape-rendering="crispEdges" width="13.3cm" x="40.565cm" y="53.864999999999995cm" /><rect fill="black" height="13.3cm" shape-rendering="crispEdges" width="13.3cm" x="0.665cm" y="67.16499999999999cm" /><rect fill="white" height="13.3cm" shape-rendering="crispEdges" width="13.3cm" x="13.965000000000002cm" y="67.16499999999999cm" /><rect fill="black" height="8.0cm" shape-rendering="crispEdges" width="8.0cm" x="16.615000000000002cm" y="69.815cm" /><rect fill="white" height="4.0cm" shape-rendering="crispEdges" width="1.3333333333333335cm" x="17.948333333333334cm" y="71.14833333333333cm" /><rect fill="white" height="2.666666666666667cm" shape-rendering="crispEdges" width="1.3333333333333335cm" x="17.948333333333334cm" y="72.48166666666665cm" /><rect fill="white" height="1.3333333333333335cm" shape-rendering="crispEdges" width="1.3333333333333335cm" x="17.948333333333334cm" y="73.815cm" /><rect fill="white" height="5.333333333333334cm" shape-rendering="crispEdges" width="1.3333333333333335cm" x="19.28166666666667cm" y="71.14833333333333cm" /><rect fill="white" height="4.0cm" shape-rendering="crispEdges" width="1.3333333333333335cm" x="19.28166666666667cm" y="72.48166666666665cm" /><rect fill="white" height="2.666666666666667cm" shape-rendering="crispEdges" width="1.3333333333333335cm" x="19.28166666666667cm" y="73.815cm" /><rect fill="white" height="1.3333333333333335cm" shape-rendering="crispEdges" width="1.3333333333333335cm" x="19.28166666666667cm" y="75.14833333333333cm" /><rect fill="white" height="2.666666666666667cm" shape-rendering="crispEdges" width="1.3333333333333335cm" x="21.948333333333338cm" y="73.815cm" /><rect fill="white" height="1.3333333333333335cm" shape-rendering="crispEdges" width="1.3333333333333335cm" x="21.948333333333338cm" y="75.14833333333333cm" /><rect fill="white" height="1.3333333333333335cm" shape-rendering="crispEdges" width="2.666666666666667cm" x="17.948333333333334cm" y="71.14833333333333cm" /><rect fill="white" height="1.3333333333333335cm" shape-rendering="crispEdges" width="1.3333333333333335cm" x="19.28166666666667cm" y="71.14833333333333cm" /><rect fill="white" height="1.3333333333333335cm" shape-rendering="crispEdges" width="2.666666666666667cm" x="17.948333333333334cm" y="72.48166666666665cm" /><rect fill="white" height="1.3333333333333335cm" shape-rendering="crispEdges" width="1.3333333333333335cm" x="19.28166666666667cm" y="72.48166666666665cm" /><rect fill="white" height="1.3333333333333335cm" shape-rendering="crispEdges" width="2.666666666666667cm" x="17.948333333333334cm" y="73.815cm" /><rect fill="white" height="1.3333333333333335cm" shape-rendering="crispEdges" width="1.3333333333333335cm" x="19.28166666666667cm" y="73.815cm" /><rect fill="white" height="1.3333333333333335cm" shape-rendering="crispEdges" width="1.3333333333333335cm" x="21.948333333333338cm" y="73.815cm" /><rect fill="white" height="1.3333333333333335cm" shape-rendering="crispEdges" width="1.3333333333333335cm" x="19.28166666666667cm" y="75.14833333333333cm" /><rect fill="white" height="1.3333333333333335cm" shape-rendering="crispEdges" width="1.3333333333333335cm" x="21.948333333333338cm" y="75.14833333333333cm" /><text fill="black" font-family="Arial, Helvetica, sans-serif" font-size="1.33cm" shape-rendering="crispEdges" text-anchor="middle" x="20.615000000000002cm" y="68.49499999999999cm">22</text><rect fill="black" height="13.3cm" shape-rendering="crispEdges" width="13.3cm" x="27.265cm" y="67.16499999999999cm" /><rect fill="white" height="13.3cm" shape-rendering="crispEdges" width="13.3cm" x="40.565cm" y="67.16499999999999cm" /><rect fill="black" height="8.0cm" shape-rendering="crispEdges" width="8.0cm" x="43.215cm" y="69.815cm" /><rect fill="white" height="4.0cm" shape-rendering="crispEdges" width="1.3333333333333335cm" x="44.54833333333333cm" y="71.14833333333333cm" /><rect fill="white" height="2.666666666666667cm" shape-rendering="crispEdges" width="1.3333333333333335cm" x="44.54833333333333cm" y="72.48166666666665cm" /><rect fill="white" height="1.3333333333333335cm" shape-rendering="crispEdges" width="1.3333333333333335cm" x="44.54833333333333cm" y="73.815cm" /><rect fill="white" height="2.666666666666667cm" shape-rendering="crispEdges" width="1.3333333333333335cm" x="45.88166666666667cm" y="71.14833333333333cm" /><rect fill="white" height="1.3333333333333335cm" shape-rendering="crispEdges" width="1.3333333333333335cm" x="45.88166666666667cm" y="72.48166666666665cm" /><rect fill="white" height="1.3333333333333335cm" shape-rendering="crispEdges" width="1.3333333333333335cm" x="47.215cm" y="75.14833333333333cm" /><rect fill="white" height="2.666666666666667cm" shape-rendering="crispEdges" width="1.3333333333333335cm" x="48.54833333333334cm" y="71.14833333333333cm" /><rect fill="white" height="1.3333333333333335cm" shape-rendering="crispEdges" width="1.3333333333333335cm" x="48.54833333333334cm" y="72.48166666666665cm" /><rect fill="white" height="1.3333333333333335cm" shape-rendering="crispEdges" width="2.666666666666667cm" x="44.54833333333333cm" y="71.14833333333333cm" /><rect fill="white" height="1.3333333333333335cm" shape-rendering="crispEdges" width="1.3333333333333335cm" x="45.88166666666667cm" y="71.14833333333333cm" /><rect fill="white" height="1.3333333333333335cm" shape-rendering="crispEdges" width="1.3333333333333335cm" x="48.54833333333334cm" y="71.14833333333333cm" /><rect fill="white" height="1.3333333333333335cm" shape-rendering="crispEdges" width="2.666666666666667cm" x="44.54833333333333cm" y="72.48166666666665cm" /><rect fill="white" height="1.3333333333333335cm" shape-rendering="crispEdges" width="1.3333333333333335cm" x="45.88166666666667cm" y="72.48166666666665cm" /><rect fill="white" height="1.3333333333333335cm" shape-rendering="crispEdges" width="1.3333333333333335cm" x="48.54833333333334cm" y="72.48166666666665cm" /><rect fill="white" height="1.3333333333333335cm" shape-rendering="crispEdges" width="1.3333333333333335cm" x="44.54833333333333cm" y="73.815cm" /><rect fill="white" height="1.3333333333333335cm" shape-rendering="crispEdges" width="1.3333333333333335cm" x="47.215cm" y="75.14833333333333cm" /><text fill="black" font-family="Arial, Helvetica, sans-serif" font-size="1.33cm" shape-rendering="crispEdges" text-anchor="middle" x="47.215cm" y="68.49499999999999cm">23</text><text fill="white" font-family="Arial, Helvetica, sans-serif" font-size="0.7979999999999999cm" shape-rendering="crispEdges" text-anchor="middle" x="20.615000000000002cm" y="1.9950000000000003cm">4X4_250, 0.133, 0.08</text><line fill="none" shape-rendering="crispEdges" stroke="black" stroke-width="1" x1="0.0cm" x2="3.9899999999999998cm" y1="0.665cm" y2="0.665cm" /><line fill="none" shape-rendering="crispEdges" stroke="black" stroke-width="1" x1="0.665cm" x2="0.665cm" y1="0.0cm" y2="3.9899999999999998cm" /><line fill="none" shape-rendering="crispEdges" stroke="black" stroke-width="1" x1="54.53cm" x2="50.54cm" y1="0.665cm" y2="0.665cm" /><line fill="none" shape-rendering="crispEdges" stroke="black" stroke-width="1" x1="53.864999999999995cm" x2="53.864999999999995cm" y1="0.0cm" y2="3.9899999999999998cm" /><line fill="none" shape-rendering="crispEdges" stroke="black" stroke-width="1" x1="0.0cm" x2="3.9899999999999998cm" y1="80.465cm" y2="80.465cm" /><line fill="none" shape-rendering="crispEdges" stroke="black" stroke-width="1" x1="0.665cm" x2="0.665cm" y1="81.13cm" y2="77.14cm" /><line fill="none" shape-rendering="crispEdges" stroke="black" stroke-width="1" x1="54.53cm" x2="50.54cm" y1="80.465cm" y2="80.465cm" /><line fill="none" shape-rendering="crispEdges" stroke="black" stroke-width="1" x1="53.864999999999995cm" x2="53.864999999999995cm" y1="81.13cm" y2="77.14cm" /></svg>