<?xml version="1.0" encoding="utf-8" ?>
<svg baseProfile="full" height="91.44000000000001cm" version="1.1" width="91.44000000000001cm" xmlns="http://www.w3.org/2000/svg" xmlns:ev="http://www.w3.org/2001/xml-events" xmlns:xlink="http://www.w3.org/1999/xlink"><defs /><rect fill="white" height="15.24cm" shape-rendering="crispEdges" width="15.24cm" x="0.0cm" y="0.0cm" /><rect fill="black" height="9.2cm" shape-rendering="crispEdges" width="9.2cm" x="3.0200000000000005cm" y="3.0200000000000005cm" /><rect fill="white" height="1.5333333333333332cm" shape-rendering="crispEdges" width="1.5333333333333332cm" x="4.553333333333334cm" y="6.086666666666667cm" /><rect fill="white" height="1.5333333333333332cm" shape-rendering="crispEdges" width="1.5333333333333332cm" x="4.553333333333334cm" y="9.153333333333332cm" /><rect fill="white" height="1.5333333333333332cm" shape-rendering="crispEdges" width="1.5333333333333332cm" x="6.086666666666667cm" y="6.086666666666667cm" /><rect fill="white" height="1.5333333333333332cm" shape-rendering="crispEdges" width="1.5333333333333332cm" x="6.086666666666667cm" y="9.153333333333332cm" /><rect fill="white" height="1.5333333333333332cm" shape-rendering="crispEdges" width="1.5333333333333332cm" x="7.62cm" y="9.153333333333332cm" /><rect fill="white" height="1.5333333333333332cm" shape-rendering="crispEdges" width="3.0666666666666664cm" x="4.553333333333334cm" y="6.086666666666667cm" /><rect fill="white" height="1.5333333333333332cm" shape-rendering="crispEdges" width="1.5333333333333332cm" x="6.086666666666667cm" y="6.086666666666667cm" /><rect fill="white" height="1.5333333333333332cm" shape-rendering="crispEdges" width="4.6cm" x="4.553333333333334cm" y="9.153333333333332cm" /><rect fill="white" height="1.5333333333333332cm" shape-rendering="crispEdges" width="3.0666666666666664cm" x="6.086666666666667cm" y="9.153333333333332cm" /><rect fill="white" height="1.5333333333333332cm" shape-rendering="crispEdges" width="1.5333333333333332cm" x="7.62cm" y="9.153333333333332cm" /><text fill="black" font-family="Arial, Helvetica, sans-serif" font-size="1.5240000000000002cm" shape-rendering="crispEdges" text-anchor="middle" x="7.62cm" y="1.5240000000000002cm">126</text><rect fill="black" height="15.24cm" shape-rendering="crispEdges" width="15.24cm" x="15.24cm" y="0.0cm" /><rect fill="white" height="15.24cm" shape-rendering="crispEdges" width="15.24cm" x="30.48cm" y="0.0cm" /><rect fill="black" height="9.2cm" shape-rendering="crispEdges" width="9.2cm" x="33.5cm" y="3.0200000000000005cm" /><rect fill="white" height="3.0666666666666664cm" shape-rendering="crispEdges" width="1.5333333333333332cm" x="35.03333333333333cm" y="6.086666666666667cm" /><rect fill="white" height="1.5333333333333332cm" shape-rendering="crispEdges" width="1.5333333333333332cm" x="35.03333333333333cm" y="7.62cm" /><rect fill="white" height="3.0666666666666664cm" shape-rendering="crispEdges" width="1.5333333333333332cm" x="36.56666666666667cm" y="6.086666666666667cm" /><rect fill="white" height="1.5333333333333332cm" shape-rendering="crispEdges" width="1.5333333333333332cm" x="36.56666666666667cm" y="7.62cm" /><rect fill="white" height="1.5333333333333332cm" shape-rendering="crispEdges" width="1.5333333333333332cm" x="38.1cm" y="7.62cm" /><rect fill="white" height="3.0666666666666664cm" shape-rendering="crispEdges" width="1.5333333333333332cm" x="39.63333333333334cm" y="7.62cm" /><rect fill="white" height="1.5333333333333332cm" shape-rendering="crispEdges" width="1.5333333333333332cm" x="39.63333333333334cm" y="9.153333333333332cm" /><rect fill="white" height="1.5333333333333332cm" shape-rendering="crispEdges" width="3.0666666666666664cm" x="35.03333333333333cm" y="6.086666666666667cm" /><rect fill="white" height="1.5333333333333332cm" shape-rendering="crispEdges" width="1.5333333333333332cm" x="36.56666666666667cm" y="6.086666666666667cm" /><rect fill="white" height="1.5333333333333332cm" shape-rendering="crispEdges" width="6.133333333333333cm" x="35.03333333333333cm" y="7.62cm" /><rect fill="white" height="1.5333333333333332cm" shape-rendering="crispEdges" width="4.6cm" x="36.56666666666667cm" y="7.62cm" /><rect fill="white" height="1.5333333333333332cm" shape-rendering="crispEdges" width="3.0666666666666664cm" x="38.1cm" y="7.62cm" /><rect fill="white" height="1.5333333333333332cm" shape-rendering="crispEdges" width="1.5333333333333332cm" x="39.63333333333334cm" y="7.62cm" /><rect fill="white" height="1.5333333333333332cm" shape-rendering="crispEdges" width="1.5333333333333332cm" x="39.63333333333334cm" y="9.153333333333332cm" /><text fill="black" font-family="Arial, Helvetica, sans-serif" font-size="1.5240000000000002cm" shape-rendering="crispEdges" text-anchor="middle" x="38.1cm" y="1.5240000000000002cm">127</text><rect fill="black" height="15.24cm" shape-rendering="crispEdges" width="15.24cm" x="45.720000000000006cm" y="0.0cm" /><rect fill="white" height="15.24cm" shape-rendering="crispEdges" width="15.24cm" x="60.96cm" y="0.0cm" /><rect fill="black" height="9.2cm" shape-rendering="crispEdges" width="9.2cm" x="63.980000000000004cm" y="3.0200000000000005cm" /><rect fill="white" height="1.5333333333333332cm" shape-rendering="crispEdges" width="1.5333333333333332cm" x="67.04666666666667cm" y="6.086666666666667cm" /><rect fill="white" height="3.0666666666666664cm" shape-rendering="crispEdges" width="1.5333333333333332cm" x="68.58000000000001cm" y="7.62cm" /><rect fill="white" height="1.5333333333333332cm" shape-rendering="crispEdges" width="1.5333333333333332cm" x="68.58000000000001cm" y="9.153333333333332cm" /><rect fill="white" height="3.0666666666666664cm" shape-rendering="crispEdges" width="1.5333333333333332cm" x="70.11333333333334cm" y="7.62cm" /><rect fill="white" height="1.5333333333333332cm" shape-rendering="crispEdges" width="1.5333333333333332cm" x="70.11333333333334cm" y="9.153333333333332cm" /><rect fill="white" height="1.5333333333333332cm" shape-rendering="crispEdges" width="1.5333333333333332cm" x="67.04666666666667cm" y="6.086666666666667cm" /><rect fill="white" height="1.5333333333333332cm" shape-rendering="crispEdges" width="3.0666666666666664cm" x="68.58000000000001cm" y="7.62cm" /><rect fill="white" height="1.5333333333333332cm" shape-rendering="crispEdges" width="1.5333333333333332cm" x="70.11333333333334cm" y="7.62cm" /><rect fill="white" height="1.5333333333333332cm" shape-rendering="crispEdges" width="3.0666666666666664cm" x="68.58000000000001cm" y="9.153333333333332cm" /><rect fill="white" height="1.5333333333333332cm" shape-rendering="crispEdges" width="1.5333333333333332cm" x="70.11333333333334cm" y="9.153333333333332cm" /><text fill="black" font-family="Arial, Helvetica, sans-serif" font-size="1.5240000000000002cm" shape-rendering="crispEdges" text-anchor="middle" x="68.58000000000001cm" y="1.5240000000000002cm">128</text><rect fill="black" height="15.24cm" shape-rendering="crispEdges" width="15.24cm" x="76.2cm" y="0.0cm" /><rect fill="black" height="15.24cm" shape-rendering="crispEdges" width="15.24cm" x="0.0cm" y="15.24cm" /><rect fill="white" height="15.24cm" shape-rendering="crispEdges" width="15.24cm" x="15.24cm" y="15.24cm" /><rect fill="black" height="9.2cm" shape-rendering="crispEdges" width="9.2cm" x="18.26cm" y="18.26cm" /><rect fill="white" height="4.6cm" shape-rendering="crispEdges" width="1.5333333333333332cm" x="19.793333333333337cm" y="21.326666666666668cm" /><rect fill="white" height="3.0666666666666664cm" shape-rendering="crispEdges" width="1.5333333333333332cm" x="19.793333333333337cm" y="22.860000000000003cm" /><rect fill="white" height="1.5333333333333332cm" shape-rendering="crispEdges" width="1.5333333333333332cm" x="19.793333333333337cm" y="24.393333333333334cm" /><rect fill="white" height="1.5333333333333332cm" shape-rendering="crispEdges" width="1.5333333333333332cm" x="21.326666666666668cm" y="21.326666666666668cm" /><rect fill="white" height="1.5333333333333332cm" shape-rendering="crispEdges" width="1.5333333333333332cm" x="21.326666666666668cm" y="24.393333333333334cm" /><rect fill="white" height="1.5333333333333332cm" shape-rendering="crispEdges" width="1.5333333333333332cm" x="22.860000000000003cm" y="24.393333333333334cm" /><rect fill="white" height="3.0666666666666664cm" shape-rendering="crispEdges" width="1.5333333333333332cm" x="24.393333333333334cm" y="22.860000000000003cm" /><rect fill="white" height="1.5333333333333332cm" shape-rendering="crispEdges" width="1.5333333333333332cm" x="24.393333333333334cm" y="24.393333333333334cm" /><rect fill="white" height="1.5333333333333332cm" shape-rendering="crispEdges" width="3.0666666666666664cm" x="19.793333333333337cm" y="21.326666666666668cm" /><rect fill="white" height="1.5333333333333332cm" shape-rendering="crispEdges" width="1.5333333333333332cm" x="21.326666666666668cm" y="21.326666666666668cm" /><rect fill="white" height="1.5333333333333332cm" shape-rendering="crispEdges" width="1.5333333333333332cm" x="19.793333333333337cm" y="22.860000000000003cm" /><rect fill="white" height="1.5333333333333332cm" shape-rendering="crispEdges" width="1.5333333333333332cm" x="24.393333333333334cm" y="22.860000000000003cm" /><rect fill="white" height="1.5333333333333332cm" shape-rendering="crispEdges" width="6.133333333333333cm" x="19.793333333333337cm" y="24.393333333333334cm" /><rect fill="white" height="1.5333333333333332cm" shape-rendering="crispEdges" width="4.6cm" x="21.326666666666668cm" y="24.393333333333334cm" /><rect fill="white" height="1.5333333333333332cm" shape-rendering="crispEdges" width="3.0666666666666664cm" x="22.860000000000003cm" y="24.393333333333334cm" /><rect fill="white" height="1.5333333333333332cm" shape-rendering="crispEdges" width="1.5333333333333332cm" x="24.393333333333334cm" y="24.393333333333334cm" /><text fill="black" font-family="Arial, Helvetica, sans-serif" font-size="1.5240000000000002cm" shape-rendering="crispEdges" text-anchor="middle" x="22.860000000000003cm" y="16.764000000000003cm">129</text><rect fill="black" height="15.24cm" shape-rendering="crispEdges" width="15.24cm" x="30.48cm" y="15.24cm" /><rect fill="white" height="15.24cm" shape-rendering="crispEdges" width="15.24cm" x="45.720000000000006cm" y="15.24cm" /><rect fill="black" height="9.2cm" shape-rendering="crispEdges" width="9.2cm" x="48.74000000000001cm" y="18.26cm" /><rect fill="white" height="3.0666666666666664cm" shape-rendering="crispEdges" width="1.5333333333333332cm" x="50.27333333333333cm" y="21.326666666666668cm" /><rect fill="white" height="1.5333333333333332cm" shape-rendering="crispEdges" width="1.5333333333333332cm" x="50.27333333333333cm" y="22.860000000000003cm" /><rect fill="white" height="3.0666666666666664cm" shape-rendering="crispEdges" width="1.5333333333333332cm" x="51.806666666666665cm" y="21.326666666666668cm" /><rect fill="white" height="1.5333333333333332cm" shape-rendering="crispEdges" width="1.5333333333333332cm" x="51.806666666666665cm" y="22.860000000000003cm" /><rect fill="white" height="4.6cm" shape-rendering="crispEdges" width="1.5333333333333332cm" x="53.34000000000001cm" y="21.326666666666668cm" /><rect fill="white" height="3.0666666666666664cm" shape-rendering="crispEdges" width="1.5333333333333332cm" x="53.34000000000001cm" y="22.860000000000003cm" /><rect fill="white" height="1.5333333333333332cm" shape-rendering="crispEdges" width="1.5333333333333332cm" x="53.34000000000001cm" y="24.393333333333334cm" /><rect fill="white" height="1.5333333333333332cm" shape-rendering="crispEdges" width="1.5333333333333332cm" x="54.87333333333334cm" y="22.860000000000003cm" /><rect fill="white" height="1.5333333333333332cm" shape-rendering="crispEdges" width="4.6cm" x="50.27333333333333cm" y="21.326666666666668cm" /><rect fill="white" height="1.5333333333333332cm" shape-rendering="crispEdges" width="3.0666666666666664cm" x="51.806666666666665cm" y="21.326666666666668cm" /><rect fill="white" height="1.5333333333333332cm" shape-rendering="crispEdges" width="1.5333333333333332cm" x="53.34000000000001cm" y="21.326666666666668cm" /><rect fill="white" height="1.5333333333333332cm" shape-rendering="crispEdges" width="6.133333333333333cm" x="50.27333333333333cm" y="22.860000000000003cm" /><rect fill="white" height="1.5333333333333332cm" shape-rendering="crispEdges" width="4.6cm" x="51.806666666666665cm" y="22.860000000000003cm" /><rect fill="white" height="1.5333333333333332cm" shape-rendering="crispEdges" width="3.0666666666666664cm" x="53.34000000000001cm" y="22.860000000000003cm" /><rect fill="white" height="1.5333333333333332cm" shape-rendering="crispEdges" width="1.5333333333333332cm" x="54.87333333333334cm" y="22.860000000000003cm" /><rect fill="white" height="1.5333333333333332cm" shape-rendering="crispEdges" width="1.5333333333333332cm" x="53.34000000000001cm" y="24.393333333333334cm" /><text fill="black" font-family="Arial, Helvetica, sans-serif" font-size="1.5240000000000002cm" shape-rendering="crispEdges" text-anchor="middle" x="53.339999999999996cm" y="16.764000000000003cm">130</text><rect fill="black" height="15.24cm" shape-rendering="crispEdges" width="15.24cm" x="60.96cm" y="15.24cm" /><rect fill="white" height="15.24cm" shape-rendering="crispEdges" width="15.24cm" x="76.2cm" y="15.24cm" /><rect fill="black" height="9.2cm" shape-rendering="crispEdges" width="9.2cm" x="79.22cm" y="18.26cm" /><rect fill="white" height="4.6cm" shape-rendering="crispEdges" width="1.5333333333333332cm" x="80.75333333333333cm" y="21.326666666666668cm" /><rect fill="white" height="3.0666666666666664cm" shape-rendering="crispEdges" width="1.5333333333333332cm" x="80.75333333333333cm" y="22.860000000000003cm" /><rect fill="white" height="1.5333333333333332cm" shape-rendering="crispEdges" width="1.5333333333333332cm" x="80.75333333333333cm" y="24.393333333333334cm" /><rect fill="white" height="4.6cm" shape-rendering="crispEdges" width="1.5333333333333332cm" x="82.28666666666666cm" y="21.326666666666668cm" /><rect fill="white" height="3.0666666666666664cm" shape-rendering="crispEdges" width="1.5333333333333332cm" x="82.28666666666666cm" y="22.860000000000003cm" /><rect fill="white" height="1.5333333333333332cm" shape-rendering="crispEdges" width="1.5333333333333332cm" x="82.28666666666666cm" y="24.393333333333334cm" /><rect fill="white" height="3.0666666666666664cm" shape-rendering="crispEdges" width="1.5333333333333332cm" x="83.82000000000001cm" y="21.326666666666668cm" /><rect fill="white" height="1.5333333333333332cm" shape-rendering="crispEdges" width="1.5333333333333332cm" x="83.82000000000001cm" y="22.860000000000003cm" /><rect fill="white" height="3.0666666666666664cm" shape-rendering="crispEdges" width="1.5333333333333332cm" x="85.35333333333334cm" y="22.860000000000003cm" /><rect fill="white" height="1.5333333333333332cm" shape-rendering="crispEdges" width="1.5333333333333332cm" x="85.35333333333334cm" y="24.393333333333334cm" /><rect fill="white" height="1.5333333333333332cm" shape-rendering="crispEdges" width="4.6cm" x="80.75333333333333cm" y="21.326666666666668cm" /><rect fill="white" height="1.5333333333333332cm" shape-rendering="crispEdges" width="3.0666666666666664cm" x="82.28666666666666cm" y="21.326666666666668cm" /><rect fill="white" height="1.5333333333333332cm" shape-rendering="crispEdges" width="1.5333333333333332cm" x="83.82000000000001cm" y="21.326666666666668cm" /><rect fill="white" height="1.5333333333333332cm" shape-rendering="crispEdges" width="6.133333333333333cm" x="80.75333333333333cm" y="22.860000000000003cm" /><rect fill="white" height="1.5333333333333332cm" shape-rendering="crispEdges" width="4.6cm" x="82.28666666666666cm" y="22.860000000000003cm" /><rect fill="white" height="1.5333333333333332cm" shape-rendering="crispEdges" width="3.0666666666666664cm" x="83.82000000000001cm" y="22.860000000000003cm" /><rect fill="white" height="1.5333333333333332cm" shape-rendering="crispEdges" width="1.5333333333333332cm" x="85.35333333333334cm" y="22.860000000000003cm" /><rect fill="white" height="1.5333333333333332cm" shape-rendering="crispEdges" width="3.0666666666666664cm" x="80.75333333333333cm" y="24.393333333333334cm" /><rect fill="white" height="1.5333333333333332cm" shape-rendering="crispEdges" width="1.5333333333333332cm" x="82.28666666666666cm" y="24.393333333333334cm" /><rect fill="white" height="1.5333333333333332cm" shape-rendering="crispEdges" width="1.5333333333333332cm" x="85.35333333333334cm" y="24.393333333333334cm" /><text fill="black" font-family="Arial, Helvetica, sans-serif" font-size="1.5240000000000002cm" shape-rendering="crispEdges" text-anchor="middle" x="83.82000000000001cm" y="16.764000000000003cm">131</text><rect fill="white" height="15.24cm" shape-rendering="crispEdges" width="15.24cm" x="0.0cm" y="30.48cm" /><rect fill="black" height="9.2cm" shape-rendering="crispEdges" width="9.2cm" x="3.0200000000000005cm" y="33.5cm" /><rect fill="white" height="1.5333333333333332cm" shape-rendering="crispEdges" width="1.5333333333333332cm" x="4.553333333333334cm" y="39.63333333333334cm" /><rect fill="white" height="4.6cm" shape-rendering="crispEdges" width="1.5333333333333332cm" x="6.086666666666667cm" y="36.56666666666667cm" /><rect fill="white" height="3.0666666666666664cm" shape-rendering="crispEdges" width="1.5333333333333332cm" x="6.086666666666667cm" y="38.1cm" /><rect fill="white" height="1.5333333333333332cm" shape-rendering="crispEdges" width="1.5333333333333332cm" x="6.086666666666667cm" y="39.63333333333334cm" /><rect fill="white" height="1.5333333333333332cm" shape-rendering="crispEdges" width="1.5333333333333332cm" x="7.62cm" y="36.56666666666667cm" /><rect fill="white" height="1.5333333333333332cm" shape-rendering="crispEdges" width="1.5333333333333332cm" x="9.153333333333332cm" y="36.56666666666667cm" /><rect fill="white" height="1.5333333333333332cm" shape-rendering="crispEdges" width="4.6cm" x="6.086666666666667cm" y="36.56666666666667cm" /><rect fill="white" height="1.5333333333333332cm" shape-rendering="crispEdges" width="3.0666666666666664cm" x="7.62cm" y="36.56666666666667cm" /><rect fill="white" height="1.5333333333333332cm" shape-rendering="crispEdges" width="1.5333333333333332cm" x="9.153333333333332cm" y="36.56666666666667cm" /><rect fill="white" height="1.5333333333333332cm" shape-rendering="crispEdges" width="1.5333333333333332cm" x="6.086666666666667cm" y="38.1cm" /><rect fill="white" height="1.5333333333333332cm" shape-rendering="crispEdges" width="3.0666666666666664cm" x="4.553333333333334cm" y="39.63333333333334cm" /><rect fill="white" height="1.5333333333333332cm" shape-rendering="crispEdges" width="1.5333333333333332cm" x="6.086666666666667cm" y="39.63333333333334cm" /><text fill="black" font-family="Arial, Helvetica, sans-serif" font-size="1.5240000000000002cm" shape-rendering="crispEdges" text-anchor="middle" x="7.62cm" y="32.004000000000005cm">132</text><rect fill="black" height="15.24cm" shape-rendering="crispEdges" width="15.24cm" x="15.24cm" y="30.48cm" /><rect fill="white" height="15.24cm" shape-rendering="crispEdges" width="15.24cm" x="30.48cm" y="30.48cm" /><rect fill="black" height="9.2cm" shape-rendering="crispEdges" width="9.2cm" x="33.5cm" y="33.5cm" /><rect fill="white" height="3.0666666666666664cm" shape-rendering="crispEdges" width="1.5333333333333332cm" x="35.03333333333333cm" y="36.56666666666667cm" /><rect fill="white" height="1.5333333333333332cm" shape-rendering="crispEdges" width="1.5333333333333332cm" x="35.03333333333333cm" y="38.1cm" /><rect fill="white" height="1.5333333333333332cm" shape-rendering="crispEdges" width="1.5333333333333332cm" x="36.56666666666667cm" y="36.56666666666667cm" /><rect fill="white" height="1.5333333333333332cm" shape-rendering="crispEdges" width="1.5333333333333332cm" x="36.56666666666667cm" y="39.63333333333334cm" /><rect fill="white" height="3.0666666666666664cm" shape-rendering="crispEdges" width="1.5333333333333332cm" x="38.1cm" y="36.56666666666667cm" /><rect fill="white" height="1.5333333333333332cm" shape-rendering="crispEdges" width="1.5333333333333332cm" x="38.1cm" y="38.1cm" /><rect fill="white" height="1.5333333333333332cm" shape-rendering="crispEdges" width="1.5333333333333332cm" x="39.63333333333334cm" y="36.56666666666667cm" /><rect fill="white" height="1.5333333333333332cm" shape-rendering="crispEdges" width="6.133333333333333cm" x="35.03333333333333cm" y="36.56666666666667cm" /><rect fill="white" height="1.5333333333333332cm" shape-rendering="crispEdges" width="4.6cm" x="36.56666666666667cm" y="36.56666666666667cm" /><rect fill="white" height="1.5333333333333332cm" shape-rendering="crispEdges" width="3.0666666666666664cm" x="38.1cm" y="36.56666666666667cm" /><rect fill="white" height="1.5333333333333332cm" shape-rendering="crispEdges" width="1.5333333333333332cm" x="39.63333333333334cm" y="36.56666666666667cm" /><rect fill="white" height="1.5333333333333332cm" shape-rendering="crispEdges" width="1.5333333333333332cm" x="35.03333333333333cm" y="38.1cm" /><rect fill="white" height="1.5333333333333332cm" shape-rendering="crispEdges" width="1.5333333333333332cm" x="38.1cm" y="38.1cm" /><rect fill="white" height="1.5333333333333332cm" shape-rendering="crispEdges" width="1.5333333333333332cm" x="36.56666666666667cm" y="39.63333333333334cm" /><text fill="black" font-family="Arial, Helvetica, sans-serif" font-size="1.5240000000000002cm" shape-rendering="crispEdges" text-anchor="middle" x="38.1cm" y="32.004000000000005cm">133</text><rect fill="black" height="15.24cm" shape-rendering="crispEdges" width="15.24cm" x="45.720000000000006cm" y="30.48cm" /><rect fill="white" height="15.24cm" shape-rendering="crispEdges" width="15.24cm" x="60.96cm" y="30.48cm" /><rect fill="black" height="9.2cm" shape-rendering="crispEdges" width="9.2cm" x="63.980000000000004cm" y="33.5cm" /><rect fill="white" height="1.5333333333333332cm" shape-rendering="crispEdges" width="1.5333333333333332cm" x="65.51333333333334cm" y="39.63333333333334cm" /><rect fill="white" height="1.5333333333333332cm" shape-rendering="crispEdges" width="1.5333333333333332cm" x="67.04666666666667cm" y="36.56666666666667cm" /><rect fill="white" height="1.5333333333333332cm" shape-rendering="crispEdges" width="1.5333333333333332cm" x="67.04666666666667cm" y="39.63333333333334cm" /><rect fill="white" height="4.6cm" shape-rendering="crispEdges" width="1.5333333333333332cm" x="68.58000000000001cm" y="36.56666666666667cm" /><rect fill="white" height="3.0666666666666664cm" shape-rendering="crispEdges" width="1.5333333333333332cm" x="68.58000000000001cm" y="38.1cm" /><rect fill="white" height="1.5333333333333332cm" shape-rendering="crispEdges" width="1.5333333333333332cm" x="68.58000000000001cm" y="39.63333333333334cm" /><rect fill="white" height="1.5333333333333332cm" shape-rendering="crispEdges" width="1.5333333333333332cm" x="70.11333333333334cm" y="36.56666666666667cm" /><rect fill="white" height="1.5333333333333332cm" shape-rendering="crispEdges" width="1.5333333333333332cm" x="70.11333333333334cm" y="39.63333333333334cm" /><rect fill="white" height="1.5333333333333332cm" shape-rendering="crispEdges" width="4.6cm" x="67.04666666666667cm" y="36.56666666666667cm" /><rect fill="white" height="1.5333333333333332cm" shape-rendering="crispEdges" width="3.0666666666666664cm" x="68.58000000000001cm" y="36.56666666666667cm" /><rect fill="white" height="1.5333333333333332cm" shape-rendering="crispEdges" width="1.5333333333333332cm" x="70.11333333333334cm" y="36.56666666666667cm" /><rect fill="white" height="1.5333333333333332cm" shape-rendering="crispEdges" width="1.5333333333333332cm" x="68.58000000000001cm" y="38.1cm" /><rect fill="white" height="1.5333333333333332cm" shape-rendering="crispEdges" width="6.133333333333333cm" x="65.51333333333334cm" y="39.63333333333334cm" /><rect fill="white" height="1.5333333333333332cm" shape-rendering="crispEdges" width="4.6cm" x="67.04666666666667cm" y="39.63333333333334cm" /><rect fill="white" height="1.5333333333333332cm" shape-rendering="crispEdges" width="3.0666666666666664cm" x="68.58000000000001cm" y="39.63333333333334cm" /><rect fill="white" height="1.5333333333333332cm" shape-rendering="crispEdges" width="1.5333333333333332cm" x="70.11333333333334cm" y="39.63333333333334cm" /><text fill="black" font-family="Arial, Helvetica, sans-serif" font-size="1.5240000000000002cm" shape-rendering="crispEdges" text-anchor="middle" x="68.58000000000001cm" y="32.004000000000005cm">134</text><rect fill="black" height="15.24cm" shape-rendering="crispEdges" width="15.24cm" x="76.2cm" y="30.48cm" /><rect fill="black" height="15.24cm" shape-rendering="crispEdges" width="15.24cm" x="0.0cm" y="45.720000000000006cm" /><rect fill="white" height="15.24cm" shape-rendering="crispEdges" width="15.24cm" x="15.24cm" y="45.720000000000006cm" /><rect fill="black" height="9.2cm" shape-rendering="crispEdges" width="9.2cm" x="18.26cm" y="48.74000000000001cm" /><rect fill="white" height="1.5333333333333332cm" shape-rendering="crispEdges" width="1.5333333333333332cm" x="19.793333333333337cm" y="53.34000000000001cm" /><rect fill="white" height="1.5333333333333332cm" shape-rendering="crispEdges" width="1.5333333333333332cm" x="21.326666666666668cm" y="51.806666666666665cm" /><rect fill="white" height="1.5333333333333332cm" shape-rendering="crispEdges" width="1.5333333333333332cm" x="21.326666666666668cm" y="54.87333333333334cm" /><rect fill="white" height="1.5333333333333332cm" shape-rendering="crispEdges" width="1.5333333333333332cm" x="22.860000000000003cm" y="53.34000000000001cm" /><rect fill="white" height="4.6cm" shape-rendering="crispEdges" width="1.5333333333333332cm" x="24.393333333333334cm" y="51.806666666666665cm" /><rect fill="white" height="3.0666666666666664cm" shape-rendering="crispEdges" width="1.5333333333333332cm" x="24.393333333333334cm" y="53.34000000000001cm" /><rect fill="white" height="1.5333333333333332cm" shape-rendering="crispEdges" width="1.5333333333333332cm" x="24.393333333333334cm" y="54.87333333333334cm" /><rect fill="white" height="1.5333333333333332cm" shape-rendering="crispEdges" width="1.5333333333333332cm" x="21.326666666666668cm" y="51.806666666666665cm" /><rect fill="white" height="1.5333333333333332cm" shape-rendering="crispEdges" width="1.5333333333333332cm" x="24.393333333333334cm" y="51.806666666666665cm" /><rect fill="white" height="1.5333333333333332cm" shape-rendering="crispEdges" width="1.5333333333333332cm" x="19.793333333333337cm" y="53.34000000000001cm" /><rect fill="white" height="1.5333333333333332cm" shape-rendering="crispEdges" width="3.0666666666666664cm" x="22.860000000000003cm" y="53.34000000000001cm" /><rect fill="white" height="1.5333333333333332cm" shape-rendering="crispEdges" width="1.5333333333333332cm" x="24.393333333333334cm" y="53.34000000000001cm" /><rect fill="white" height="1.5333333333333332cm" shape-rendering="crispEdges" width="1.5333333333333332cm" x="21.326666666666668cm" y="54.87333333333334cm" /><rect fill="white" height="1.5333333333333332cm" shape-rendering="crispEdges" width="1.5333333333333332cm" x="24.393333333333334cm" y="54.87333333333334cm" /><text fill="black" font-family="Arial, Helvetica, sans-serif" font-size="1.5240000000000002cm" shape-rendering="crispEdges" text-anchor="middle" x="22.860000000000003cm" y="47.244cm">135</text><rect fill="black" height="15.24cm" shape-rendering="crispEdges" width="15.24cm" x="30.48cm" y="45.720000000000006cm" /><rect fill="white" height="15.24cm" shape-rendering="crispEdges" width="15.24cm" x="45.720000000000006cm" y="45.720000000000006cm" /><rect fill="black" height="9.2cm" shape-rendering="crispEdges" width="9.2cm" x="48.74000000000001cm" y="48.74000000000001cm" /><rect fill="white" height="3.0666666666666664cm" shape-rendering="crispEdges" width="1.5333333333333332cm" x="50.27333333333333cm" y="51.806666666666665cm" /><rect fill="white" height="1.5333333333333332cm" shape-rendering="crispEdges" width="1.5333333333333332cm" x="50.27333333333333cm" y="53.34000000000001cm" /><rect fill="white" height="1.5333333333333332cm" shape-rendering="crispEdges" width="1.5333333333333332cm" x="51.806666666666665cm" y="51.806666666666665cm" /><rect fill="white" height="1.5333333333333332cm" shape-rendering="crispEdges" width="1.5333333333333332cm" x="53.34000000000001cm" y="51.806666666666665cm" /><rect fill="white" height="4.6cm" shape-rendering="crispEdges" width="1.5333333333333332cm" x="54.87333333333334cm" y="51.806666666666665cm" /><rect fill="white" height="3.0666666666666664cm" shape-rendering="crispEdges" width="1.5333333333333332cm" x="54.87333333333334cm" y="53.34000000000001cm" /><rect fill="white" height="1.5333333333333332cm" shape-rendering="crispEdges" width="1.5333333333333332cm" x="54.87333333333334cm" y="54.87333333333334cm" /><rect fill="white" height="1.5333333333333332cm" shape-rendering="crispEdges" width="6.133333333333333cm" x="50.27333333333333cm" y="51.806666666666665cm" /><rect fill="white" height="1.5333333333333332cm" shape-rendering="crispEdges" width="4.6cm" x="51.806666666666665cm" y="51.806666666666665cm" /><rect fill="white" height="1.5333333333333332cm" shape-rendering="crispEdges" width="3.0666666666666664cm" x="53.34000000000001cm" y="51.806666666666665cm" /><rect fill="white" height="1.5333333333333332cm" shape-rendering="crispEdges" width="1.5333333333333332cm" x="54.87333333333334cm" y="51.806666666666665cm" /><rect fill="white" height="1.5333333333333332cm" shape-rendering="crispEdges" width="1.5333333333333332cm" x="50.27333333333333cm" y="53.34000000000001cm" /><rect fill="white" height="1.5333333333333332cm" shape-rendering="crispEdges" width="1.5333333333333332cm" x="54.87333333333334cm" y="53.34000000000001cm" /><rect fill="white" height="1.5333333333333332cm" shape-rendering="crispEdges" width="1.5333333333333332cm" x="54.87333333333334cm" y="54.87333333333334cm" /><text fill="black" font-family="Arial, Helvetica, sans-serif" font-size="1.5240000000000002cm" shape-rendering="crispEdges" text-anchor="middle" x="53.339999999999996cm" y="47.244cm">136</text><rect fill="black" height="15.24cm" shape-rendering="crispEdges" width="15.24cm" x="60.96cm" y="45.720000000000006cm" /><rect fill="white" height="15.24cm" shape-rendering="crispEdges" width="15.24cm" x="76.2cm" y="45.720000000000006cm" /><rect fill="black" height="9.2cm" shape-rendering="crispEdges" width="9.2cm" x="79.22cm" y="48.74000000000001cm" /><rect fill="white" height="3.0666666666666664cm" shape-rendering="crispEdges" width="1.5333333333333332cm" x="80.75333333333333cm" y="53.34000000000001cm" /><rect fill="white" height="1.5333333333333332cm" shape-rendering="crispEdges" width="1.5333333333333332cm" x="80.75333333333333cm" y="54.87333333333334cm" /><rect fill="white" height="3.0666666666666664cm" shape-rendering="crispEdges" width="1.5333333333333332cm" x="82.28666666666666cm" y="51.806666666666665cm" /><rect fill="white" height="1.5333333333333332cm" shape-rendering="crispEdges" width="1.5333333333333332cm" x="82.28666666666666cm" y="53.34000000000001cm" /><rect fill="white" height="1.5333333333333332cm" shape-rendering="crispEdges" width="1.5333333333333332cm" x="83.82000000000001cm" y="51.806666666666665cm" /><rect fill="white" height="1.5333333333333332cm" shape-rendering="crispEdges" width="1.5333333333333332cm" x="83.82000000000001cm" y="54.87333333333334cm" /><rect fill="white" height="4.6cm" shape-rendering="crispEdges" width="1.5333333333333332cm" x="85.35333333333334cm" y="51.806666666666665cm" /><rect fill="white" height="3.0666666666666664cm" shape-rendering="crispEdges" width="1.5333333333333332cm" x="85.35333333333334cm" y="53.34000000000001cm" /><rect fill="white" height="1.5333333333333332cm" shape-rendering="crispEdges" width="1.5333333333333332cm" x="85.35333333333334cm" y="54.87333333333334cm" /><rect fill="white" height="1.5333333333333332cm" shape-rendering="crispEdges" width="4.6cm" x="82.28666666666666cm" y="51.806666666666665cm" /><rect fill="white" height="1.5333333333333332cm" shape-rendering="crispEdges" width="3.0666666666666664cm" x="83.82000000000001cm" y="51.806666666666665cm" /><rect fill="white" height="1.5333333333333332cm" shape-rendering="crispEdges" width="1.5333333333333332cm" x="85.35333333333334cm" y="51.806666666666665cm" /><rect fill="white" height="1.5333333333333332cm" shape-rendering="crispEdges" width="3.0666666666666664cm" x="80.75333333333333cm" y="53.34000000000001cm" /><rect fill="white" height="1.5333333333333332cm" shape-rendering="crispEdges" width="1.5333333333333332cm" x="82.28666666666666cm" y="53.34000000000001cm" /><rect fill="white" height="1.5333333333333332cm" shape-rendering="crispEdges" width="1.5333333333333332cm" x="85.35333333333334cm" y="53.34000000000001cm" /><rect fill="white" height="1.5333333333333332cm" shape-rendering="crispEdges" width="1.5333333333333332cm" x="80.75333333333333cm" y="54.87333333333334cm" /><rect fill="white" height="1.5333333333333332cm" shape-rendering="crispEdges" width="3.0666666666666664cm" x="83.82000000000001cm" y="54.87333333333334cm" /><rect fill="white" height="1.5333333333333332cm" shape-rendering="crispEdges" width="1.5333333333333332cm" x="85.35333333333334cm" y="54.87333333333334cm" /><text fill="black" font-family="Arial, Helvetica, sans-serif" font-size="1.5240000000000002cm" shape-rendering="crispEdges" text-anchor="middle" x="83.82000000000001cm" y="47.244cm">137</text><rect fill="white" height="15.24cm" shape-rendering="crispEdges" width="15.24cm" x="0.0cm" y="60.96cm" /><rect fill="black" height="9.2cm" shape-rendering="crispEdges" width="9.2cm" x="3.0200000000000005cm" y="63.980000000000004cm" /><rect fill="white" height="3.0666666666666664cm" shape-rendering="crispEdges" width="1.5333333333333332cm" x="4.553333333333334cm" y="67.04666666666667cm" /><rect fill="white" height="1.5333333333333332cm" shape-rendering="crispEdges" width="1.5333333333333332cm" x="4.553333333333334cm" y="68.58000000000001cm" /><rect fill="white" height="4.6cm" shape-rendering="crispEdges" width="1.5333333333333332cm" x="6.086666666666667cm" y="67.04666666666667cm" /><rect fill="white" height="3.0666666666666664cm" shape-rendering="crispEdges" width="1.5333333333333332cm" x="6.086666666666667cm" y="68.58000000000001cm" /><rect fill="white" height="1.5333333333333332cm" shape-rendering="crispEdges" width="1.5333333333333332cm" x="6.086666666666667cm" y="70.11333333333334cm" /><rect fill="white" height="3.0666666666666664cm" shape-rendering="crispEdges" width="1.5333333333333332cm" x="7.62cm" y="67.04666666666667cm" /><rect fill="white" height="1.5333333333333332cm" shape-rendering="crispEdges" width="1.5333333333333332cm" x="7.62cm" y="68.58000000000001cm" /><rect fill="white" height="1.5333333333333332cm" shape-rendering="crispEdges" width="1.5333333333333332cm" x="9.153333333333332cm" y="65.51333333333334cm" /><rect fill="white" height="1.5333333333333332cm" shape-rendering="crispEdges" width="1.5333333333333332cm" x="9.153333333333332cm" y="65.51333333333334cm" /><rect fill="white" height="1.5333333333333332cm" shape-rendering="crispEdges" width="4.6cm" x="4.553333333333334cm" y="67.04666666666667cm" /><rect fill="white" height="1.5333333333333332cm" shape-rendering="crispEdges" width="3.0666666666666664cm" x="6.086666666666667cm" y="67.04666666666667cm" /><rect fill="white" height="1.5333333333333332cm" shape-rendering="crispEdges" width="1.5333333333333332cm" x="7.62cm" y="67.04666666666667cm" /><rect fill="white" height="1.5333333333333332cm" shape-rendering="crispEdges" width="4.6cm" x="4.553333333333334cm" y="68.58000000000001cm" /><rect fill="white" height="1.5333333333333332cm" shape-rendering="crispEdges" width="3.0666666666666664cm" x="6.086666666666667cm" y="68.58000000000001cm" /><rect fill="white" height="1.5333333333333332cm" shape-rendering="crispEdges" width="1.5333333333333332cm" x="7.62cm" y="68.58000000000001cm" /><rect fill="white" height="1.5333333333333332cm" shape-rendering="crispEdges" width="1.5333333333333332cm" x="6.086666666666667cm" y="70.11333333333334cm" /><text fill="black" font-family="Arial, Helvetica, sans-serif" font-size="1.5240000000000002cm" shape-rendering="crispEdges" text-anchor="middle" x="7.62cm" y="62.483999999999995cm">138</text><rect fill="black" height="15.24cm" shape-rendering="crispEdges" width="15.24cm" x="15.24cm" y="60.96cm" /><rect fill="white" height="15.24cm" shape-rendering="crispEdges" width="15.24cm" x="30.48cm" y="60.96cm" /><rect fill="black" height="9.2cm" shape-rendering="crispEdges" width="9.2cm" x="33.5cm" y="63.980000000000004cm" /><rect fill="white" height="1.5333333333333332cm" shape-rendering="crispEdges" width="1.5333333333333332cm" x="35.03333333333333cm" y="70.11333333333334cm" /><rect fill="white" height="1.5333333333333332cm" shape-rendering="crispEdges" width="1.5333333333333332cm" x="36.56666666666667cm" y="67.04666666666667cm" /><rect fill="white" height="1.5333333333333332cm" shape-rendering="crispEdges" width="1.5333333333333332cm" x="38.1cm" y="68.58000000000001cm" /><rect fill="white" height="1.5333333333333332cm" shape-rendering="crispEdges" width="1.5333333333333332cm" x="39.63333333333334cm" y="65.51333333333334cm" /><rect fill="white" height="3.0666666666666664cm" shape-rendering="crispEdges" width="1.5333333333333332cm" x="39.63333333333334cm" y="68.58000000000001cm" /><rect fill="white" height="1.5333333333333332cm" shape-rendering="crispEdges" width="1.5333333333333332cm" x="39.63333333333334cm" y="70.11333333333334cm" /><rect fill="white" height="1.5333333333333332cm" shape-rendering="crispEdges" width="1.5333333333333332cm" x="39.63333333333334cm" y="65.51333333333334cm" /><rect fill="white" height="1.5333333333333332cm" shape-rendering="crispEdges" width="1.5333333333333332cm" x="36.56666666666667cm" y="67.04666666666667cm" /><rect fill="white" height="1.5333333333333332cm" shape-rendering="crispEdges" width="3.0666666666666664cm" x="38.1cm" y="68.58000000000001cm" /><rect fill="white" height="1.5333333333333332cm" shape-rendering="crispEdges" width="1.5333333333333332cm" x="39.63333333333334cm" y="68.58000000000001cm" /><rect fill="white" height="1.5333333333333332cm" shape-rendering="crispEdges" width="1.5333333333333332cm" x="35.03333333333333cm" y="70.11333333333334cm" /><rect fill="white" height="1.5333333333333332cm" shape-rendering="crispEdges" width="1.5333333333333332cm" x="39.63333333333334cm" y="70.11333333333334cm" /><text fill="black" font-family="Arial, Helvetica, sans-serif" font-size="1.5240000000000002cm" shape-rendering="crispEdges" text-anchor="middle" x="38.1cm" y="62.483999999999995cm">139</text><rect fill="black" height="15.24cm" shape-rendering="crispEdges" width="15.24cm" x="45.720000000000006cm" y="60.96cm" /><rect fill="white" height="15.24cm" shape-rendering="crispEdges" width="15.24cm" x="60.96cm" y="60.96cm" /><rect fill="black" height="9.2cm" shape-rendering="crispEdges" width="9.2cm" x="63.980000000000004cm" y="63.980000000000004cm" /><rect fill="white" height="3.0666666666666664cm" shape-rendering="crispEdges" width="1.5333333333333332cm" x="65.51333333333334cm" y="67.04666666666667cm" /><rect fill="white" height="1.5333333333333332cm" shape-rendering="crispEdges" width="1.5333333333333332cm" x="65.51333333333334cm" y="68.58000000000001cm" /><rect fill="white" height="1.5333333333333332cm" shape-rendering="crispEdges" width="1.5333333333333332cm" x="67.04666666666667cm" y="67.04666666666667cm" /><rect fill="white" height="3.0666666666666664cm" shape-rendering="crispEdges" width="1.5333333333333332cm" x="70.11333333333334cm" y="65.51333333333334cm" /><rect fill="white" height="1.5333333333333332cm" shape-rendering="crispEdges" width="1.5333333333333332cm" x="70.11333333333334cm" y="67.04666666666667cm" /><rect fill="white" height="1.5333333333333332cm" shape-rendering="crispEdges" width="1.5333333333333332cm" x="70.11333333333334cm" y="65.51333333333334cm" /><rect fill="white" height="1.5333333333333332cm" shape-rendering="crispEdges" width="3.0666666666666664cm" x="65.51333333333334cm" y="67.04666666666667cm" /><rect fill="white" height="1.5333333333333332cm" shape-rendering="crispEdges" width="1.5333333333333332cm" x="67.04666666666667cm" y="67.04666666666667cm" /><rect fill="white" height="1.5333333333333332cm" shape-rendering="crispEdges" width="1.5333333333333332cm" x="70.11333333333334cm" y="67.04666666666667cm" /><rect fill="white" height="1.5333333333333332cm" shape-rendering="crispEdges" width="1.5333333333333332cm" x="65.51333333333334cm" y="68.58000000000001cm" /><text fill="black" font-family="Arial, Helvetica, sans-serif" font-size="1.5240000000000002cm" shape-rendering="crispEdges" text-anchor="middle" x="68.58000000000001cm" y="62.483999999999995cm">140</text><rect fill="black" height="15.24cm" shape-rendering="crispEdges" width="15.24cm" x="76.2cm" y="60.96cm" /><rect fill="black" height="15.24cm" shape-rendering="crispEdges" width="15.24cm" x="0.0cm" y="76.2cm" /><rect fill="white" height="15.24cm" shape-rendering="crispEdges" width="15.24cm" x="15.24cm" y="76.2cm" /><rect fill="black" height="9.2cm" shape-rendering="crispEdges" width="9.2cm" x="18.26cm" y="79.22cm" /><rect fill="white" height="3.0666666666666664cm" shape-rendering="crispEdges" width="1.5333333333333332cm" x="19.793333333333337cm" y="83.82000000000001cm" /><rect fill="white" height="1.5333333333333332cm" shape-rendering="crispEdges" width="1.5333333333333332cm" x="19.793333333333337cm" y="85.35333333333334cm" /><rect fill="white" height="3.0666666666666664cm" shape-rendering="crispEdges" width="1.5333333333333332cm" x="21.326666666666668cm" y="82.28666666666666cm" /><rect fill="white" height="1.5333333333333332cm" shape-rendering="crispEdges" width="1.5333333333333332cm" x="21.326666666666668cm" y="83.82000000000001cm" /><rect fill="white" height="3.0666666666666664cm" shape-rendering="crispEdges" width="1.5333333333333332cm" x="24.393333333333334cm" y="80.75333333333333cm" /><rect fill="white" height="1.5333333333333332cm" shape-rendering="crispEdges" width="1.5333333333333332cm" x="24.393333333333334cm" y="82.28666666666666cm" /><rect fill="white" height="1.5333333333333332cm" shape-rendering="crispEdges" width="1.5333333333333332cm" x="24.393333333333334cm" y="80.75333333333333cm" /><rect fill="white" height="1.5333333333333332cm" shape-rendering="crispEdges" width="1.5333333333333332cm" x="21.326666666666668cm" y="82.28666666666666cm" /><rect fill="white" height="1.5333333333333332cm" shape-rendering="crispEdges" width="1.5333333333333332cm" x="24.393333333333334cm" y="82.28666666666666cm" /><rect fill="white" height="1.5333333333333332cm" shape-rendering="crispEdges" width="3.0666666666666664cm" x="19.793333333333337cm" y="83.82000000000001cm" /><rect fill="white" height="1.5333333333333332cm" shape-rendering="crispEdges" width="1.5333333333333332cm" x="21.326666666666668cm" y="83.82000000000001cm" /><rect fill="white" height="1.5333333333333332cm" shape-rendering="crispEdges" width="1.5333333333333332cm" x="19.793333333333337cm" y="85.35333333333334cm" /><text fill="black" font-family="Arial, Helvetica, sans-serif" font-size="1.5240000000000002cm" shape-rendering="crispEdges" text-anchor="middle" x="22.860000000000003cm" y="77.72399999999999cm">141</text><rect fill="black" height="15.24cm" shape-rendering="crispEdges" width="15.24cm" x="30.48cm" y="76.2cm" /><rect fill="white" height="15.24cm" shape-rendering="crispEdges" width="15.24cm" x="45.720000000000006cm" y="76.2cm" /><rect fill="black" height="9.2cm" shape-rendering="crispEdges" width="9.2cm" x="48.74000000000001cm" y="79.22cm" /><rect fill="white" height="4.6cm" shape-rendering="crispEdges" width="1.5333333333333332cm" x="50.27333333333333cm" y="82.28666666666666cm" /><rect fill="white" height="3.0666666666666664cm" shape-rendering="crispEdges" width="1.5333333333333332cm" x="50.27333333333333cm" y="83.82000000000001cm" /><rect fill="white" height="1.5333333333333332cm" shape-rendering="crispEdges" width="1.5333333333333332cm" x="50.27333333333333cm" y="85.35333333333334cm" /><rect fill="white" height="1.5333333333333332cm" shape-rendering="crispEdges" width="1.5333333333333332cm" x="51.806666666666665cm" y="82.28666666666666cm" /><rect fill="white" height="1.5333333333333332cm" shape-rendering="crispEdges" width="1.5333333333333332cm" x="53.34000000000001cm" y="82.28666666666666cm" /><rect fill="white" height="1.5333333333333332cm" shape-rendering="crispEdges" width="1.5333333333333332cm" x="53.34000000000001cm" y="85.35333333333334cm" /><rect fill="white" height="3.0666666666666664cm" shape-rendering="crispEdges" width="1.5333333333333332cm" x="54.87333333333334cm" y="80.75333333333333cm" /><rect fill="white" height="1.5333333333333332cm" shape-rendering="crispEdges" width="1.5333333333333332cm" x="54.87333333333334cm" y="82.28666666666666cm" /><rect fill="white" height="1.5333333333333332cm" shape-rendering="crispEdges" width="1.5333333333333332cm" x="54.87333333333334cm" y="85.35333333333334cm" /><rect fill="white" height="1.5333333333333332cm" shape-rendering="crispEdges" width="1.5333333333333332cm" x="54.87333333333334cm" y="80.75333333333333cm" /><rect fill="white" height="1.5333333333333332cm" shape-rendering="crispEdges" width="6.133333333333333cm" x="50.27333333333333cm" y="82.28666666666666cm" /><rect fill="white" height="1.5333333333333332cm" shape-rendering="crispEdges" width="4.6cm" x="51.806666666666665cm" y="82.28666666666666cm" /><rect fill="white" height="1.5333333333333332cm" shape-rendering="crispEdges" width="3.0666666666666664cm" x="53.34000000000001cm" y="82.28666666666666cm" /><rect fill="white" height="1.5333333333333332cm" shape-rendering="crispEdges" width="1.5333333333333332cm" x="54.87333333333334cm" y="82.28666666666666cm" /><rect fill="white" height="1.5333333333333332cm" shape-rendering="crispEdges" width="1.5333333333333332cm" x="50.27333333333333cm" y="83.82000000000001cm" /><rect fill="white" height="1.5333333333333332cm" shape-rendering="crispEdges" width="1.5333333333333332cm" x="50.27333333333333cm" y="85.35333333333334cm" /><rect fill="white" height="1.5333333333333332cm" shape-rendering="crispEdges" width="3.0666666666666664cm" x="53.34000000000001cm" y="85.35333333333334cm" /><rect fill="white" height="1.5333333333333332cm" shape-rendering="crispEdges" width="1.5333333333333332cm" x="54.87333333333334cm" y="85.35333333333334cm" /><text fill="black" font-family="Arial, Helvetica, sans-serif" font-size="1.5240000000000002cm" shape-rendering="crispEdges" text-anchor="middle" x="53.339999999999996cm" y="77.72399999999999cm">142</text><rect fill="black" height="15.24cm" shape-rendering="crispEdges" width="15.24cm" x="60.96cm" y="76.2cm" /><rect fill="white" height="15.24cm" shape-rendering="crispEdges" width="15.24cm" x="76.2cm" y="76.2cm" /><rect fill="black" height="9.2cm" shape-rendering="crispEdges" width="9.2cm" x="79.22cm" y="79.22cm" /><rect fill="white" height="3.0666666666666664cm" shape-rendering="crispEdges" width="1.5333333333333332cm" x="80.75333333333333cm" y="83.82000000000001cm" /><rect fill="white" height="1.5333333333333332cm" shape-rendering="crispEdges" width="1.5333333333333332cm" x="80.75333333333333cm" y="85.35333333333334cm" /><rect fill="white" height="1.5333333333333332cm" shape-rendering="crispEdges" width="1.5333333333333332cm" x="82.28666666666666cm" y="82.28666666666666cm" /><rect fill="white" height="3.0666666666666664cm" shape-rendering="crispEdges" width="1.5333333333333332cm" x="83.82000000000001cm" y="83.82000000000001cm" /><rect fill="white" height="1.5333333333333332cm" shape-rendering="crispEdges" width="1.5333333333333332cm" x="83.82000000000001cm" y="85.35333333333334cm" /><rect fill="white" height="4.6cm" shape-rendering="crispEdges" width="1.5333333333333332cm" x="85.35333333333334cm" y="80.75333333333333cm" /><rect fill="white" height="3.0666666666666664cm" shape-rendering="crispEdges" width="1.5333333333333332cm" x="85.35333333333334cm" y="82.28666666666666cm" /><rect fill="white" height="1.5333333333333332cm" shape-rendering="crispEdges" width="1.5333333333333332cm" x="85.35333333333334cm" y="83.82000000000001cm" /><rect fill="white" height="1.5333333333333332cm" shape-rendering="crispEdges" width="1.5333333333333332cm" x="85.35333333333334cm" y="80.75333333333333cm" /><rect fill="white" height="1.5333333333333332cm" shape-rendering="crispEdges" width="1.5333333333333332cm" x="82.28666666666666cm" y="82.28666666666666cm" /><rect fill="white" height="1.5333333333333332cm" shape-rendering="crispEdges" width="1.5333333333333332cm" x="85.35333333333334cm" y="82.28666666666666cm" /><rect fill="white" height="1.5333333333333332cm" shape-rendering="crispEdges" width="1.5333333333333332cm" x="80.75333333333333cm" y="83.82000000000001cm" /><rect fill="white" height="1.5333333333333332cm" shape-rendering="crispEdges" width="3.0666666666666664cm" x="83.82000000000001cm" y="83.82000000000001cm" /><rect fill="white" height="1.5333333333333332cm" shape-rendering="crispEdges" width="1.5333333333333332cm" x="85.35333333333334cm" y="83.82000000000001cm" /><rect fill="white" height="1.5333333333333332cm" shape-rendering="crispEdges" width="1.5333333333333332cm" x="80.75333333333333cm" y="85.35333333333334cm" /><rect fill="white" height="1.5333333333333332cm" shape-rendering="crispEdges" width="1.5333333333333332cm" x="83.82000000000001cm" y="85.35333333333334cm" /><text fill="black" font-family="Arial, Helvetica, sans-serif" font-size="1.5240000000000002cm" shape-rendering="crispEdges" text-anchor="middle" x="83.82000000000001cm" y="77.72399999999999cm">143</text><text fill="white" font-family="Arial, Helvetica, sans-serif" font-size="0.9144000000000001cm" shape-rendering="crispEdges" text-anchor="middle" x="22.860000000000003cm" y="1.5240000000000002cm">4X4_250, 0.1524, 0.092</text></svg>