<?xml version="1.0" encoding="utf-8" ?>
<svg baseProfile="full" height="92.964cm" version="1.1" width="92.964cm" xmlns="http://www.w3.org/2000/svg" xmlns:ev="http://www.w3.org/2001/xml-events" xmlns:xlink="http://www.w3.org/1999/xlink"><defs /><circle cx="0.7620000000000001cm" cy="0.7620000000000001cm" fill="none" r="0.5388153672641492cm" shape-rendering="crispEdges" stroke="black" stroke-width="1" /><circle cx="92.20200000000001cm" cy="0.7620000000000001cm" fill="none" r="0.5388153672641492cm" shape-rendering="crispEdges" stroke="black" stroke-width="1" /><circle cx="0.7620000000000001cm" cy="92.20200000000001cm" fill="none" r="0.5388153672641492cm" shape-rendering="crispEdges" stroke="black" stroke-width="1" /><circle cx="92.20200000000001cm" cy="92.20200000000001cm" fill="none" r="0.5388153672641492cm" shape-rendering="crispEdges" stroke="black" stroke-width="1" /><rect fill="white" height="15.24cm" shape-rendering="crispEdges" width="15.24cm" x="0.7620000000000001cm" y="0.7620000000000001cm" /><rect fill="black" height="9.2cm" shape-rendering="crispEdges" width="9.2cm" x="3.7820000000000005cm" y="3.7820000000000005cm" /><rect fill="white" height="1.5333333333333332cm" shape-rendering="crispEdges" width="1.5333333333333332cm" x="5.315333333333334cm" y="6.8486666666666665cm" /><rect fill="white" height="3.0666666666666664cm" shape-rendering="crispEdges" width="1.5333333333333332cm" x="6.8486666666666665cm" y="8.382000000000001cm" /><rect fill="white" height="1.5333333333333332cm" shape-rendering="crispEdges" width="1.5333333333333332cm" x="6.8486666666666665cm" y="9.915333333333335cm" /><rect fill="white" height="1.5333333333333332cm" shape-rendering="crispEdges" width="1.5333333333333332cm" x="8.382000000000001cm" y="8.382000000000001cm" /><rect fill="white" height="1.5333333333333332cm" shape-rendering="crispEdges" width="1.5333333333333332cm" x="9.915333333333335cm" y="5.315333333333334cm" /><rect fill="white" height="3.0666666666666664cm" shape-rendering="crispEdges" width="1.5333333333333332cm" x="9.915333333333335cm" y="8.382000000000001cm" /><rect fill="white" height="1.5333333333333332cm" shape-rendering="crispEdges" width="1.5333333333333332cm" x="9.915333333333335cm" y="9.915333333333335cm" /><rect fill="white" height="1.5333333333333332cm" shape-rendering="crispEdges" width="1.5333333333333332cm" x="9.915333333333335cm" y="5.315333333333334cm" /><rect fill="white" height="1.5333333333333332cm" shape-rendering="crispEdges" width="1.5333333333333332cm" x="5.315333333333334cm" y="6.8486666666666665cm" /><rect fill="white" height="1.5333333333333332cm" shape-rendering="crispEdges" width="4.6cm" x="6.8486666666666665cm" y="8.382000000000001cm" /><rect fill="white" height="1.5333333333333332cm" shape-rendering="crispEdges" width="3.0666666666666664cm" x="8.382000000000001cm" y="8.382000000000001cm" /><rect fill="white" height="1.5333333333333332cm" shape-rendering="crispEdges" width="1.5333333333333332cm" x="9.915333333333335cm" y="8.382000000000001cm" /><rect fill="white" height="1.5333333333333332cm" shape-rendering="crispEdges" width="1.5333333333333332cm" x="6.8486666666666665cm" y="9.915333333333335cm" /><rect fill="white" height="1.5333333333333332cm" shape-rendering="crispEdges" width="1.5333333333333332cm" x="9.915333333333335cm" y="9.915333333333335cm" /><text fill="black" font-family="Arial, Helvetica, sans-serif" font-size="1.5240000000000002cm" shape-rendering="crispEdges" text-anchor="middle" x="8.382000000000001cm" y="2.2860000000000005cm">36</text><rect fill="black" height="15.24cm" shape-rendering="crispEdges" width="15.24cm" x="16.002000000000002cm" y="0.7620000000000001cm" /><rect fill="white" height="15.24cm" shape-rendering="crispEdges" width="15.24cm" x="31.241999999999997cm" y="0.7620000000000001cm" /><rect fill="black" height="9.2cm" shape-rendering="crispEdges" width="9.2cm" x="34.262cm" y="3.7820000000000005cm" /><rect fill="white" height="3.0666666666666664cm" shape-rendering="crispEdges" width="1.5333333333333332cm" x="35.79533333333333cm" y="8.382000000000001cm" /><rect fill="white" height="1.5333333333333332cm" shape-rendering="crispEdges" width="1.5333333333333332cm" x="35.79533333333333cm" y="9.915333333333335cm" /><rect fill="white" height="4.6cm" shape-rendering="crispEdges" width="1.5333333333333332cm" x="37.32866666666666cm" y="6.8486666666666665cm" /><rect fill="white" height="3.0666666666666664cm" shape-rendering="crispEdges" width="1.5333333333333332cm" x="37.32866666666666cm" y="8.382000000000001cm" /><rect fill="white" height="1.5333333333333332cm" shape-rendering="crispEdges" width="1.5333333333333332cm" x="37.32866666666666cm" y="9.915333333333335cm" /><rect fill="white" height="3.0666666666666664cm" shape-rendering="crispEdges" width="1.5333333333333332cm" x="38.861999999999995cm" y="8.382000000000001cm" /><rect fill="white" height="1.5333333333333332cm" shape-rendering="crispEdges" width="1.5333333333333332cm" x="38.861999999999995cm" y="9.915333333333335cm" /><rect fill="white" height="3.0666666666666664cm" shape-rendering="crispEdges" width="1.5333333333333332cm" x="40.39533333333333cm" y="8.382000000000001cm" /><rect fill="white" height="1.5333333333333332cm" shape-rendering="crispEdges" width="1.5333333333333332cm" x="40.39533333333333cm" y="9.915333333333335cm" /><rect fill="white" height="1.5333333333333332cm" shape-rendering="crispEdges" width="1.5333333333333332cm" x="37.32866666666666cm" y="6.8486666666666665cm" /><rect fill="white" height="1.5333333333333332cm" shape-rendering="crispEdges" width="6.133333333333333cm" x="35.79533333333333cm" y="8.382000000000001cm" /><rect fill="white" height="1.5333333333333332cm" shape-rendering="crispEdges" width="4.6cm" x="37.32866666666666cm" y="8.382000000000001cm" /><rect fill="white" height="1.5333333333333332cm" shape-rendering="crispEdges" width="3.0666666666666664cm" x="38.861999999999995cm" y="8.382000000000001cm" /><rect fill="white" height="1.5333333333333332cm" shape-rendering="crispEdges" width="1.5333333333333332cm" x="40.39533333333333cm" y="8.382000000000001cm" /><rect fill="white" height="1.5333333333333332cm" shape-rendering="crispEdges" width="6.133333333333333cm" x="35.79533333333333cm" y="9.915333333333335cm" /><rect fill="white" height="1.5333333333333332cm" shape-rendering="crispEdges" width="4.6cm" x="37.32866666666666cm" y="9.915333333333335cm" /><rect fill="white" height="1.5333333333333332cm" shape-rendering="crispEdges" width="3.0666666666666664cm" x="38.861999999999995cm" y="9.915333333333335cm" /><rect fill="white" height="1.5333333333333332cm" shape-rendering="crispEdges" width="1.5333333333333332cm" x="40.39533333333333cm" y="9.915333333333335cm" /><text fill="black" font-family="Arial, Helvetica, sans-serif" font-size="1.5240000000000002cm" shape-rendering="crispEdges" text-anchor="middle" x="38.861999999999995cm" y="2.2860000000000005cm">37</text><rect fill="black" height="15.24cm" shape-rendering="crispEdges" width="15.24cm" x="46.482cm" y="0.7620000000000001cm" /><rect fill="white" height="15.24cm" shape-rendering="crispEdges" width="15.24cm" x="61.722cm" y="0.7620000000000001cm" /><rect fill="black" height="9.2cm" shape-rendering="crispEdges" width="9.2cm" x="64.742cm" y="3.7820000000000005cm" /><rect fill="white" height="3.0666666666666664cm" shape-rendering="crispEdges" width="1.5333333333333332cm" x="66.27533333333334cm" y="6.8486666666666665cm" /><rect fill="white" height="1.5333333333333332cm" shape-rendering="crispEdges" width="1.5333333333333332cm" x="66.27533333333334cm" y="8.382000000000001cm" /><rect fill="white" height="4.6cm" shape-rendering="crispEdges" width="1.5333333333333332cm" x="67.80866666666667cm" y="6.8486666666666665cm" /><rect fill="white" height="3.0666666666666664cm" shape-rendering="crispEdges" width="1.5333333333333332cm" x="67.80866666666667cm" y="8.382000000000001cm" /><rect fill="white" height="1.5333333333333332cm" shape-rendering="crispEdges" width="1.5333333333333332cm" x="67.80866666666667cm" y="9.915333333333335cm" /><rect fill="white" height="3.0666666666666664cm" shape-rendering="crispEdges" width="1.5333333333333332cm" x="69.342cm" y="8.382000000000001cm" /><rect fill="white" height="1.5333333333333332cm" shape-rendering="crispEdges" width="1.5333333333333332cm" x="69.342cm" y="9.915333333333335cm" /><rect fill="white" height="3.0666666666666664cm" shape-rendering="crispEdges" width="1.5333333333333332cm" x="70.87533333333333cm" y="6.8486666666666665cm" /><rect fill="white" height="1.5333333333333332cm" shape-rendering="crispEdges" width="1.5333333333333332cm" x="70.87533333333333cm" y="8.382000000000001cm" /><rect fill="white" height="1.5333333333333332cm" shape-rendering="crispEdges" width="3.0666666666666664cm" x="66.27533333333334cm" y="6.8486666666666665cm" /><rect fill="white" height="1.5333333333333332cm" shape-rendering="crispEdges" width="1.5333333333333332cm" x="67.80866666666667cm" y="6.8486666666666665cm" /><rect fill="white" height="1.5333333333333332cm" shape-rendering="crispEdges" width="1.5333333333333332cm" x="70.87533333333333cm" y="6.8486666666666665cm" /><rect fill="white" height="1.5333333333333332cm" shape-rendering="crispEdges" width="6.133333333333333cm" x="66.27533333333334cm" y="8.382000000000001cm" /><rect fill="white" height="1.5333333333333332cm" shape-rendering="crispEdges" width="4.6cm" x="67.80866666666667cm" y="8.382000000000001cm" /><rect fill="white" height="1.5333333333333332cm" shape-rendering="crispEdges" width="3.0666666666666664cm" x="69.342cm" y="8.382000000000001cm" /><rect fill="white" height="1.5333333333333332cm" shape-rendering="crispEdges" width="1.5333333333333332cm" x="70.87533333333333cm" y="8.382000000000001cm" /><rect fill="white" height="1.5333333333333332cm" shape-rendering="crispEdges" width="3.0666666666666664cm" x="67.80866666666667cm" y="9.915333333333335cm" /><rect fill="white" height="1.5333333333333332cm" shape-rendering="crispEdges" width="1.5333333333333332cm" x="69.342cm" y="9.915333333333335cm" /><text fill="black" font-family="Arial, Helvetica, sans-serif" font-size="1.5240000000000002cm" shape-rendering="crispEdges" text-anchor="middle" x="69.342cm" y="2.2860000000000005cm">38</text><rect fill="black" height="15.24cm" shape-rendering="crispEdges" width="15.24cm" x="76.962cm" y="0.7620000000000001cm" /><rect fill="black" height="15.24cm" shape-rendering="crispEdges" width="15.24cm" x="0.7620000000000001cm" y="16.002000000000002cm" /><rect fill="white" height="15.24cm" shape-rendering="crispEdges" width="15.24cm" x="16.002000000000002cm" y="16.002000000000002cm" /><rect fill="black" height="9.2cm" shape-rendering="crispEdges" width="9.2cm" x="19.022000000000002cm" y="19.022000000000002cm" /><rect fill="white" height="1.5333333333333332cm" shape-rendering="crispEdges" width="1.5333333333333332cm" x="20.555333333333337cm" y="22.088666666666672cm" /><rect fill="white" height="1.5333333333333332cm" shape-rendering="crispEdges" width="1.5333333333333332cm" x="20.555333333333337cm" y="25.155333333333335cm" /><rect fill="white" height="3.0666666666666664cm" shape-rendering="crispEdges" width="1.5333333333333332cm" x="22.088666666666672cm" y="22.088666666666672cm" /><rect fill="white" height="1.5333333333333332cm" shape-rendering="crispEdges" width="1.5333333333333332cm" x="22.088666666666672cm" y="23.622000000000003cm" /><rect fill="white" height="1.5333333333333332cm" shape-rendering="crispEdges" width="1.5333333333333332cm" x="23.622000000000003cm" y="25.155333333333335cm" /><rect fill="white" height="1.5333333333333332cm" shape-rendering="crispEdges" width="1.5333333333333332cm" x="25.155333333333335cm" y="20.555333333333337cm" /><rect fill="white" height="1.5333333333333332cm" shape-rendering="crispEdges" width="1.5333333333333332cm" x="25.155333333333335cm" y="23.622000000000003cm" /><rect fill="white" height="1.5333333333333332cm" shape-rendering="crispEdges" width="1.5333333333333332cm" x="25.155333333333335cm" y="20.555333333333337cm" /><rect fill="white" height="1.5333333333333332cm" shape-rendering="crispEdges" width="3.0666666666666664cm" x="20.555333333333337cm" y="22.088666666666672cm" /><rect fill="white" height="1.5333333333333332cm" shape-rendering="crispEdges" width="1.5333333333333332cm" x="22.088666666666672cm" y="22.088666666666672cm" /><rect fill="white" height="1.5333333333333332cm" shape-rendering="crispEdges" width="1.5333333333333332cm" x="22.088666666666672cm" y="23.622000000000003cm" /><rect fill="white" height="1.5333333333333332cm" shape-rendering="crispEdges" width="1.5333333333333332cm" x="25.155333333333335cm" y="23.622000000000003cm" /><rect fill="white" height="1.5333333333333332cm" shape-rendering="crispEdges" width="1.5333333333333332cm" x="20.555333333333337cm" y="25.155333333333335cm" /><rect fill="white" height="1.5333333333333332cm" shape-rendering="crispEdges" width="1.5333333333333332cm" x="23.622000000000003cm" y="25.155333333333335cm" /><text fill="black" font-family="Arial, Helvetica, sans-serif" font-size="1.5240000000000002cm" shape-rendering="crispEdges" text-anchor="middle" x="23.622cm" y="17.526000000000003cm">39</text><rect fill="black" height="15.24cm" shape-rendering="crispEdges" width="15.24cm" x="31.241999999999997cm" y="16.002000000000002cm" /><rect fill="white" height="15.24cm" shape-rendering="crispEdges" width="15.24cm" x="46.482cm" y="16.002000000000002cm" /><rect fill="black" height="9.2cm" shape-rendering="crispEdges" width="9.2cm" x="49.502cm" y="19.022000000000002cm" /><rect fill="white" height="1.5333333333333332cm" shape-rendering="crispEdges" width="1.5333333333333332cm" x="51.035333333333334cm" y="25.155333333333335cm" /><rect fill="white" height="1.5333333333333332cm" shape-rendering="crispEdges" width="1.5333333333333332cm" x="52.568666666666665cm" y="22.088666666666672cm" /><rect fill="white" height="1.5333333333333332cm" shape-rendering="crispEdges" width="1.5333333333333332cm" x="54.102000000000004cm" y="22.088666666666672cm" /><rect fill="white" height="4.6cm" shape-rendering="crispEdges" width="1.5333333333333332cm" x="55.635333333333335cm" y="20.555333333333337cm" /><rect fill="white" height="3.0666666666666664cm" shape-rendering="crispEdges" width="1.5333333333333332cm" x="55.635333333333335cm" y="22.088666666666672cm" /><rect fill="white" height="1.5333333333333332cm" shape-rendering="crispEdges" width="1.5333333333333332cm" x="55.635333333333335cm" y="23.622000000000003cm" /><rect fill="white" height="1.5333333333333332cm" shape-rendering="crispEdges" width="1.5333333333333332cm" x="55.635333333333335cm" y="20.555333333333337cm" /><rect fill="white" height="1.5333333333333332cm" shape-rendering="crispEdges" width="4.6cm" x="52.568666666666665cm" y="22.088666666666672cm" /><rect fill="white" height="1.5333333333333332cm" shape-rendering="crispEdges" width="3.0666666666666664cm" x="54.102000000000004cm" y="22.088666666666672cm" /><rect fill="white" height="1.5333333333333332cm" shape-rendering="crispEdges" width="1.5333333333333332cm" x="55.635333333333335cm" y="22.088666666666672cm" /><rect fill="white" height="1.5333333333333332cm" shape-rendering="crispEdges" width="1.5333333333333332cm" x="55.635333333333335cm" y="23.622000000000003cm" /><rect fill="white" height="1.5333333333333332cm" shape-rendering="crispEdges" width="1.5333333333333332cm" x="51.035333333333334cm" y="25.155333333333335cm" /><text fill="black" font-family="Arial, Helvetica, sans-serif" font-size="1.5240000000000002cm" shape-rendering="crispEdges" text-anchor="middle" x="54.102cm" y="17.526000000000003cm">40</text><rect fill="black" height="15.24cm" shape-rendering="crispEdges" width="15.24cm" x="61.722cm" y="16.002000000000002cm" /><rect fill="white" height="15.24cm" shape-rendering="crispEdges" width="15.24cm" x="76.962cm" y="16.002000000000002cm" /><rect fill="black" height="9.2cm" shape-rendering="crispEdges" width="9.2cm" x="79.982cm" y="19.022000000000002cm" /><rect fill="white" height="1.5333333333333332cm" shape-rendering="crispEdges" width="1.5333333333333332cm" x="81.51533333333333cm" y="22.088666666666672cm" /><rect fill="white" height="1.5333333333333332cm" shape-rendering="crispEdges" width="1.5333333333333332cm" x="81.51533333333333cm" y="25.155333333333335cm" /><rect fill="white" height="4.6cm" shape-rendering="crispEdges" width="1.5333333333333332cm" x="84.58200000000001cm" y="20.555333333333337cm" /><rect fill="white" height="3.0666666666666664cm" shape-rendering="crispEdges" width="1.5333333333333332cm" x="84.58200000000001cm" y="22.088666666666672cm" /><rect fill="white" height="1.5333333333333332cm" shape-rendering="crispEdges" width="1.5333333333333332cm" x="84.58200000000001cm" y="23.622000000000003cm" /><rect fill="white" height="1.5333333333333332cm" shape-rendering="crispEdges" width="1.5333333333333332cm" x="84.58200000000001cm" y="20.555333333333337cm" /><rect fill="white" height="1.5333333333333332cm" shape-rendering="crispEdges" width="1.5333333333333332cm" x="81.51533333333333cm" y="22.088666666666672cm" /><rect fill="white" height="1.5333333333333332cm" shape-rendering="crispEdges" width="1.5333333333333332cm" x="84.58200000000001cm" y="22.088666666666672cm" /><rect fill="white" height="1.5333333333333332cm" shape-rendering="crispEdges" width="1.5333333333333332cm" x="84.58200000000001cm" y="23.622000000000003cm" /><rect fill="white" height="1.5333333333333332cm" shape-rendering="crispEdges" width="1.5333333333333332cm" x="81.51533333333333cm" y="25.155333333333335cm" /><text fill="black" font-family="Arial, Helvetica, sans-serif" font-size="1.5240000000000002cm" shape-rendering="crispEdges" text-anchor="middle" x="84.58200000000001cm" y="17.526000000000003cm">41</text><rect fill="white" height="15.24cm" shape-rendering="crispEdges" width="15.24cm" x="0.7620000000000001cm" y="31.241999999999997cm" /><rect fill="black" height="9.2cm" shape-rendering="crispEdges" width="9.2cm" x="3.7820000000000005cm" y="34.262cm" /><rect fill="white" height="3.0666666666666664cm" shape-rendering="crispEdges" width="1.5333333333333332cm" x="5.315333333333334cm" y="38.861999999999995cm" /><rect fill="white" height="1.5333333333333332cm" shape-rendering="crispEdges" width="1.5333333333333332cm" x="5.315333333333334cm" y="40.39533333333333cm" /><rect fill="white" height="1.5333333333333332cm" shape-rendering="crispEdges" width="1.5333333333333332cm" x="6.8486666666666665cm" y="40.39533333333333cm" /><rect fill="white" height="3.0666666666666664cm" shape-rendering="crispEdges" width="1.5333333333333332cm" x="8.382000000000001cm" y="35.79533333333333cm" /><rect fill="white" height="1.5333333333333332cm" shape-rendering="crispEdges" width="1.5333333333333332cm" x="8.382000000000001cm" y="37.32866666666666cm" /><rect fill="white" height="1.5333333333333332cm" shape-rendering="crispEdges" width="1.5333333333333332cm" x="9.915333333333335cm" y="35.79533333333333cm" /><rect fill="white" height="1.5333333333333332cm" shape-rendering="crispEdges" width="3.0666666666666664cm" x="8.382000000000001cm" y="35.79533333333333cm" /><rect fill="white" height="1.5333333333333332cm" shape-rendering="crispEdges" width="1.5333333333333332cm" x="9.915333333333335cm" y="35.79533333333333cm" /><rect fill="white" height="1.5333333333333332cm" shape-rendering="crispEdges" width="1.5333333333333332cm" x="8.382000000000001cm" y="37.32866666666666cm" /><rect fill="white" height="1.5333333333333332cm" shape-rendering="crispEdges" width="1.5333333333333332cm" x="5.315333333333334cm" y="38.861999999999995cm" /><rect fill="white" height="1.5333333333333332cm" shape-rendering="crispEdges" width="3.0666666666666664cm" x="5.315333333333334cm" y="40.39533333333333cm" /><rect fill="white" height="1.5333333333333332cm" shape-rendering="crispEdges" width="1.5333333333333332cm" x="6.8486666666666665cm" y="40.39533333333333cm" /><text fill="black" font-family="Arial, Helvetica, sans-serif" font-size="1.5240000000000002cm" shape-rendering="crispEdges" text-anchor="middle" x="8.382000000000001cm" y="32.766cm">42</text><rect fill="black" height="15.24cm" shape-rendering="crispEdges" width="15.24cm" x="16.002000000000002cm" y="31.241999999999997cm" /><rect fill="white" height="15.24cm" shape-rendering="crispEdges" width="15.24cm" x="31.241999999999997cm" y="31.241999999999997cm" /><rect fill="black" height="9.2cm" shape-rendering="crispEdges" width="9.2cm" x="34.262cm" y="34.262cm" /><rect fill="white" height="3.0666666666666664cm" shape-rendering="crispEdges" width="1.5333333333333332cm" x="35.79533333333333cm" y="37.32866666666666cm" /><rect fill="white" height="1.5333333333333332cm" shape-rendering="crispEdges" width="1.5333333333333332cm" x="35.79533333333333cm" y="38.861999999999995cm" /><rect fill="white" height="1.5333333333333332cm" shape-rendering="crispEdges" width="1.5333333333333332cm" x="38.861999999999995cm" y="35.79533333333333cm" /><rect fill="white" height="3.0666666666666664cm" shape-rendering="crispEdges" width="1.5333333333333332cm" x="38.861999999999995cm" y="38.861999999999995cm" /><rect fill="white" height="1.5333333333333332cm" shape-rendering="crispEdges" width="1.5333333333333332cm" x="38.861999999999995cm" y="40.39533333333333cm" /><rect fill="white" height="1.5333333333333332cm" shape-rendering="crispEdges" width="1.5333333333333332cm" x="40.39533333333333cm" y="35.79533333333333cm" /><rect fill="white" height="1.5333333333333332cm" shape-rendering="crispEdges" width="1.5333333333333332cm" x="40.39533333333333cm" y="38.861999999999995cm" /><rect fill="white" height="1.5333333333333332cm" shape-rendering="crispEdges" width="3.0666666666666664cm" x="38.861999999999995cm" y="35.79533333333333cm" /><rect fill="white" height="1.5333333333333332cm" shape-rendering="crispEdges" width="1.5333333333333332cm" x="40.39533333333333cm" y="35.79533333333333cm" /><rect fill="white" height="1.5333333333333332cm" shape-rendering="crispEdges" width="1.5333333333333332cm" x="35.79533333333333cm" y="37.32866666666666cm" /><rect fill="white" height="1.5333333333333332cm" shape-rendering="crispEdges" width="1.5333333333333332cm" x="35.79533333333333cm" y="38.861999999999995cm" /><rect fill="white" height="1.5333333333333332cm" shape-rendering="crispEdges" width="3.0666666666666664cm" x="38.861999999999995cm" y="38.861999999999995cm" /><rect fill="white" height="1.5333333333333332cm" shape-rendering="crispEdges" width="1.5333333333333332cm" x="40.39533333333333cm" y="38.861999999999995cm" /><rect fill="white" height="1.5333333333333332cm" shape-rendering="crispEdges" width="1.5333333333333332cm" x="38.861999999999995cm" y="40.39533333333333cm" /><text fill="black" font-family="Arial, Helvetica, sans-serif" font-size="1.5240000000000002cm" shape-rendering="crispEdges" text-anchor="middle" x="38.861999999999995cm" y="32.766cm">43</text><rect fill="black" height="15.24cm" shape-rendering="crispEdges" width="15.24cm" x="46.482cm" y="31.241999999999997cm" /><rect fill="white" height="15.24cm" shape-rendering="crispEdges" width="15.24cm" x="61.722cm" y="31.241999999999997cm" /><rect fill="black" height="9.2cm" shape-rendering="crispEdges" width="9.2cm" x="64.742cm" y="34.262cm" /><rect fill="white" height="3.0666666666666664cm" shape-rendering="crispEdges" width="1.5333333333333332cm" x="66.27533333333334cm" y="38.861999999999995cm" /><rect fill="white" height="1.5333333333333332cm" shape-rendering="crispEdges" width="1.5333333333333332cm" x="66.27533333333334cm" y="40.39533333333333cm" /><rect fill="white" height="3.0666666666666664cm" shape-rendering="crispEdges" width="1.5333333333333332cm" x="67.80866666666667cm" y="37.32866666666666cm" /><rect fill="white" height="1.5333333333333332cm" shape-rendering="crispEdges" width="1.5333333333333332cm" x="67.80866666666667cm" y="38.861999999999995cm" /><rect fill="white" height="1.5333333333333332cm" shape-rendering="crispEdges" width="1.5333333333333332cm" x="69.342cm" y="35.79533333333333cm" /><rect fill="white" height="1.5333333333333332cm" shape-rendering="crispEdges" width="1.5333333333333332cm" x="69.342cm" y="38.861999999999995cm" /><rect fill="white" height="1.5333333333333332cm" shape-rendering="crispEdges" width="1.5333333333333332cm" x="69.342cm" y="35.79533333333333cm" /><rect fill="white" height="1.5333333333333332cm" shape-rendering="crispEdges" width="1.5333333333333332cm" x="67.80866666666667cm" y="37.32866666666666cm" /><rect fill="white" height="1.5333333333333332cm" shape-rendering="crispEdges" width="4.6cm" x="66.27533333333334cm" y="38.861999999999995cm" /><rect fill="white" height="1.5333333333333332cm" shape-rendering="crispEdges" width="3.0666666666666664cm" x="67.80866666666667cm" y="38.861999999999995cm" /><rect fill="white" height="1.5333333333333332cm" shape-rendering="crispEdges" width="1.5333333333333332cm" x="69.342cm" y="38.861999999999995cm" /><rect fill="white" height="1.5333333333333332cm" shape-rendering="crispEdges" width="1.5333333333333332cm" x="66.27533333333334cm" y="40.39533333333333cm" /><text fill="black" font-family="Arial, Helvetica, sans-serif" font-size="1.5240000000000002cm" shape-rendering="crispEdges" text-anchor="middle" x="69.342cm" y="32.766cm">44</text><rect fill="black" height="15.24cm" shape-rendering="crispEdges" width="15.24cm" x="76.962cm" y="31.241999999999997cm" /><rect fill="black" height="15.24cm" shape-rendering="crispEdges" width="15.24cm" x="0.7620000000000001cm" y="46.482cm" /><rect fill="white" height="15.24cm" shape-rendering="crispEdges" width="15.24cm" x="16.002000000000002cm" y="46.482cm" /><rect fill="black" height="9.2cm" shape-rendering="crispEdges" width="9.2cm" x="19.022000000000002cm" y="49.502cm" /><rect fill="white" height="4.6cm" shape-rendering="crispEdges" width="1.5333333333333332cm" x="20.555333333333337cm" y="52.568666666666665cm" /><rect fill="white" height="3.0666666666666664cm" shape-rendering="crispEdges" width="1.5333333333333332cm" x="20.555333333333337cm" y="54.102000000000004cm" /><rect fill="white" height="1.5333333333333332cm" shape-rendering="crispEdges" width="1.5333333333333332cm" x="20.555333333333337cm" y="55.635333333333335cm" /><rect fill="white" height="3.0666666666666664cm" shape-rendering="crispEdges" width="1.5333333333333332cm" x="22.088666666666672cm" y="52.568666666666665cm" /><rect fill="white" height="1.5333333333333332cm" shape-rendering="crispEdges" width="1.5333333333333332cm" x="22.088666666666672cm" y="54.102000000000004cm" /><rect fill="white" height="6.133333333333333cm" shape-rendering="crispEdges" width="1.5333333333333332cm" x="23.622000000000003cm" y="51.035333333333334cm" /><rect fill="white" height="4.6cm" shape-rendering="crispEdges" width="1.5333333333333332cm" x="23.622000000000003cm" y="52.568666666666665cm" /><rect fill="white" height="3.0666666666666664cm" shape-rendering="crispEdges" width="1.5333333333333332cm" x="23.622000000000003cm" y="54.102000000000004cm" /><rect fill="white" height="1.5333333333333332cm" shape-rendering="crispEdges" width="1.5333333333333332cm" x="23.622000000000003cm" y="55.635333333333335cm" /><rect fill="white" height="1.5333333333333332cm" shape-rendering="crispEdges" width="1.5333333333333332cm" x="25.155333333333335cm" y="55.635333333333335cm" /><rect fill="white" height="1.5333333333333332cm" shape-rendering="crispEdges" width="1.5333333333333332cm" x="23.622000000000003cm" y="51.035333333333334cm" /><rect fill="white" height="1.5333333333333332cm" shape-rendering="crispEdges" width="4.6cm" x="20.555333333333337cm" y="52.568666666666665cm" /><rect fill="white" height="1.5333333333333332cm" shape-rendering="crispEdges" width="3.0666666666666664cm" x="22.088666666666672cm" y="52.568666666666665cm" /><rect fill="white" height="1.5333333333333332cm" shape-rendering="crispEdges" width="1.5333333333333332cm" x="23.622000000000003cm" y="52.568666666666665cm" /><rect fill="white" height="1.5333333333333332cm" shape-rendering="crispEdges" width="4.6cm" x="20.555333333333337cm" y="54.102000000000004cm" /><rect fill="white" height="1.5333333333333332cm" shape-rendering="crispEdges" width="3.0666666666666664cm" x="22.088666666666672cm" y="54.102000000000004cm" /><rect fill="white" height="1.5333333333333332cm" shape-rendering="crispEdges" width="1.5333333333333332cm" x="23.622000000000003cm" y="54.102000000000004cm" /><rect fill="white" height="1.5333333333333332cm" shape-rendering="crispEdges" width="1.5333333333333332cm" x="20.555333333333337cm" y="55.635333333333335cm" /><rect fill="white" height="1.5333333333333332cm" shape-rendering="crispEdges" width="3.0666666666666664cm" x="23.622000000000003cm" y="55.635333333333335cm" /><rect fill="white" height="1.5333333333333332cm" shape-rendering="crispEdges" width="1.5333333333333332cm" x="25.155333333333335cm" y="55.635333333333335cm" /><text fill="black" font-family="Arial, Helvetica, sans-serif" font-size="1.5240000000000002cm" shape-rendering="crispEdges" text-anchor="middle" x="23.622cm" y="48.006cm">45</text><rect fill="black" height="15.24cm" shape-rendering="crispEdges" width="15.24cm" x="31.241999999999997cm" y="46.482cm" /><rect fill="white" height="15.24cm" shape-rendering="crispEdges" width="15.24cm" x="46.482cm" y="46.482cm" /><rect fill="black" height="9.2cm" shape-rendering="crispEdges" width="9.2cm" x="49.502cm" y="49.502cm" /><rect fill="white" height="1.5333333333333332cm" shape-rendering="crispEdges" width="1.5333333333333332cm" x="51.035333333333334cm" y="52.568666666666665cm" /><rect fill="white" height="1.5333333333333332cm" shape-rendering="crispEdges" width="1.5333333333333332cm" x="51.035333333333334cm" y="55.635333333333335cm" /><rect fill="white" height="1.5333333333333332cm" shape-rendering="crispEdges" width="1.5333333333333332cm" x="52.568666666666665cm" y="52.568666666666665cm" /><rect fill="white" height="1.5333333333333332cm" shape-rendering="crispEdges" width="1.5333333333333332cm" x="52.568666666666665cm" y="55.635333333333335cm" /><rect fill="white" height="1.5333333333333332cm" shape-rendering="crispEdges" width="1.5333333333333332cm" x="54.102000000000004cm" y="51.035333333333334cm" /><rect fill="white" height="3.0666666666666664cm" shape-rendering="crispEdges" width="1.5333333333333332cm" x="54.102000000000004cm" y="54.102000000000004cm" /><rect fill="white" height="1.5333333333333332cm" shape-rendering="crispEdges" width="1.5333333333333332cm" x="54.102000000000004cm" y="55.635333333333335cm" /><rect fill="white" height="4.6cm" shape-rendering="crispEdges" width="1.5333333333333332cm" x="55.635333333333335cm" y="52.568666666666665cm" /><rect fill="white" height="3.0666666666666664cm" shape-rendering="crispEdges" width="1.5333333333333332cm" x="55.635333333333335cm" y="54.102000000000004cm" /><rect fill="white" height="1.5333333333333332cm" shape-rendering="crispEdges" width="1.5333333333333332cm" x="55.635333333333335cm" y="55.635333333333335cm" /><rect fill="white" height="1.5333333333333332cm" shape-rendering="crispEdges" width="1.5333333333333332cm" x="54.102000000000004cm" y="51.035333333333334cm" /><rect fill="white" height="1.5333333333333332cm" shape-rendering="crispEdges" width="3.0666666666666664cm" x="51.035333333333334cm" y="52.568666666666665cm" /><rect fill="white" height="1.5333333333333332cm" shape-rendering="crispEdges" width="1.5333333333333332cm" x="52.568666666666665cm" y="52.568666666666665cm" /><rect fill="white" height="1.5333333333333332cm" shape-rendering="crispEdges" width="1.5333333333333332cm" x="55.635333333333335cm" y="52.568666666666665cm" /><rect fill="white" height="1.5333333333333332cm" shape-rendering="crispEdges" width="3.0666666666666664cm" x="54.102000000000004cm" y="54.102000000000004cm" /><rect fill="white" height="1.5333333333333332cm" shape-rendering="crispEdges" width="1.5333333333333332cm" x="55.635333333333335cm" y="54.102000000000004cm" /><rect fill="white" height="1.5333333333333332cm" shape-rendering="crispEdges" width="6.133333333333333cm" x="51.035333333333334cm" y="55.635333333333335cm" /><rect fill="white" height="1.5333333333333332cm" shape-rendering="crispEdges" width="4.6cm" x="52.568666666666665cm" y="55.635333333333335cm" /><rect fill="white" height="1.5333333333333332cm" shape-rendering="crispEdges" width="3.0666666666666664cm" x="54.102000000000004cm" y="55.635333333333335cm" /><rect fill="white" height="1.5333333333333332cm" shape-rendering="crispEdges" width="1.5333333333333332cm" x="55.635333333333335cm" y="55.635333333333335cm" /><text fill="black" font-family="Arial, Helvetica, sans-serif" font-size="1.5240000000000002cm" shape-rendering="crispEdges" text-anchor="middle" x="54.102cm" y="48.006cm">46</text><rect fill="black" height="15.24cm" shape-rendering="crispEdges" width="15.24cm" x="61.722cm" y="46.482cm" /><rect fill="white" height="15.24cm" shape-rendering="crispEdges" width="15.24cm" x="76.962cm" y="46.482cm" /><rect fill="black" height="9.2cm" shape-rendering="crispEdges" width="9.2cm" x="79.982cm" y="49.502cm" /><rect fill="white" height="1.5333333333333332cm" shape-rendering="crispEdges" width="1.5333333333333332cm" x="81.51533333333333cm" y="52.568666666666665cm" /><rect fill="white" height="1.5333333333333332cm" shape-rendering="crispEdges" width="1.5333333333333332cm" x="83.04866666666666cm" y="51.035333333333334cm" /><rect fill="white" height="3.0666666666666664cm" shape-rendering="crispEdges" width="1.5333333333333332cm" x="83.04866666666666cm" y="54.102000000000004cm" /><rect fill="white" height="1.5333333333333332cm" shape-rendering="crispEdges" width="1.5333333333333332cm" x="83.04866666666666cm" y="55.635333333333335cm" /><rect fill="white" height="3.0666666666666664cm" shape-rendering="crispEdges" width="1.5333333333333332cm" x="84.58200000000001cm" y="52.568666666666665cm" /><rect fill="white" height="1.5333333333333332cm" shape-rendering="crispEdges" width="1.5333333333333332cm" x="84.58200000000001cm" y="54.102000000000004cm" /><rect fill="white" height="1.5333333333333332cm" shape-rendering="crispEdges" width="1.5333333333333332cm" x="86.11533333333334cm" y="52.568666666666665cm" /><rect fill="white" height="1.5333333333333332cm" shape-rendering="crispEdges" width="1.5333333333333332cm" x="83.04866666666666cm" y="51.035333333333334cm" /><rect fill="white" height="1.5333333333333332cm" shape-rendering="crispEdges" width="1.5333333333333332cm" x="81.51533333333333cm" y="52.568666666666665cm" /><rect fill="white" height="1.5333333333333332cm" shape-rendering="crispEdges" width="3.0666666666666664cm" x="84.58200000000001cm" y="52.568666666666665cm" /><rect fill="white" height="1.5333333333333332cm" shape-rendering="crispEdges" width="1.5333333333333332cm" x="86.11533333333334cm" y="52.568666666666665cm" /><rect fill="white" height="1.5333333333333332cm" shape-rendering="crispEdges" width="3.0666666666666664cm" x="83.04866666666666cm" y="54.102000000000004cm" /><rect fill="white" height="1.5333333333333332cm" shape-rendering="crispEdges" width="1.5333333333333332cm" x="84.58200000000001cm" y="54.102000000000004cm" /><rect fill="white" height="1.5333333333333332cm" shape-rendering="crispEdges" width="1.5333333333333332cm" x="83.04866666666666cm" y="55.635333333333335cm" /><text fill="black" font-family="Arial, Helvetica, sans-serif" font-size="1.5240000000000002cm" shape-rendering="crispEdges" text-anchor="middle" x="84.58200000000001cm" y="48.006cm">47</text><rect fill="white" height="15.24cm" shape-rendering="crispEdges" width="15.24cm" x="0.7620000000000001cm" y="61.722cm" /><rect fill="black" height="9.2cm" shape-rendering="crispEdges" width="9.2cm" x="3.7820000000000005cm" y="64.742cm" /><rect fill="white" height="1.5333333333333332cm" shape-rendering="crispEdges" width="1.5333333333333332cm" x="5.315333333333334cm" y="70.87533333333333cm" /><rect fill="white" height="1.5333333333333332cm" shape-rendering="crispEdges" width="1.5333333333333332cm" x="6.8486666666666665cm" y="66.27533333333334cm" /><rect fill="white" height="1.5333333333333332cm" shape-rendering="crispEdges" width="1.5333333333333332cm" x="6.8486666666666665cm" y="70.87533333333333cm" /><rect fill="white" height="3.0666666666666664cm" shape-rendering="crispEdges" width="1.5333333333333332cm" x="8.382000000000001cm" y="69.342cm" /><rect fill="white" height="1.5333333333333332cm" shape-rendering="crispEdges" width="1.5333333333333332cm" x="8.382000000000001cm" y="70.87533333333333cm" /><rect fill="white" height="1.5333333333333332cm" shape-rendering="crispEdges" width="1.5333333333333332cm" x="9.915333333333335cm" y="66.27533333333334cm" /><rect fill="white" height="1.5333333333333332cm" shape-rendering="crispEdges" width="1.5333333333333332cm" x="6.8486666666666665cm" y="66.27533333333334cm" /><rect fill="white" height="1.5333333333333332cm" shape-rendering="crispEdges" width="1.5333333333333332cm" x="9.915333333333335cm" y="66.27533333333334cm" /><rect fill="white" height="1.5333333333333332cm" shape-rendering="crispEdges" width="1.5333333333333332cm" x="8.382000000000001cm" y="69.342cm" /><rect fill="white" height="1.5333333333333332cm" shape-rendering="crispEdges" width="4.6cm" x="5.315333333333334cm" y="70.87533333333333cm" /><rect fill="white" height="1.5333333333333332cm" shape-rendering="crispEdges" width="3.0666666666666664cm" x="6.8486666666666665cm" y="70.87533333333333cm" /><rect fill="white" height="1.5333333333333332cm" shape-rendering="crispEdges" width="1.5333333333333332cm" x="8.382000000000001cm" y="70.87533333333333cm" /><text fill="black" font-family="Arial, Helvetica, sans-serif" font-size="1.5240000000000002cm" shape-rendering="crispEdges" text-anchor="middle" x="8.382000000000001cm" y="63.24599999999999cm">48</text><rect fill="black" height="15.24cm" shape-rendering="crispEdges" width="15.24cm" x="16.002000000000002cm" y="61.722cm" /><rect fill="white" height="15.24cm" shape-rendering="crispEdges" width="15.24cm" x="31.241999999999997cm" y="61.722cm" /><rect fill="black" height="9.2cm" shape-rendering="crispEdges" width="9.2cm" x="34.262cm" y="64.742cm" /><rect fill="white" height="1.5333333333333332cm" shape-rendering="crispEdges" width="1.5333333333333332cm" x="37.32866666666666cm" y="66.27533333333334cm" /><rect fill="white" height="1.5333333333333332cm" shape-rendering="crispEdges" width="1.5333333333333332cm" x="38.861999999999995cm" y="70.87533333333333cm" /><rect fill="white" height="1.5333333333333332cm" shape-rendering="crispEdges" width="1.5333333333333332cm" x="40.39533333333333cm" y="66.27533333333334cm" /><rect fill="white" height="3.0666666666666664cm" shape-rendering="crispEdges" width="1.5333333333333332cm" x="40.39533333333333cm" y="69.342cm" /><rect fill="white" height="1.5333333333333332cm" shape-rendering="crispEdges" width="1.5333333333333332cm" x="40.39533333333333cm" y="70.87533333333333cm" /><rect fill="white" height="1.5333333333333332cm" shape-rendering="crispEdges" width="1.5333333333333332cm" x="37.32866666666666cm" y="66.27533333333334cm" /><rect fill="white" height="1.5333333333333332cm" shape-rendering="crispEdges" width="1.5333333333333332cm" x="40.39533333333333cm" y="66.27533333333334cm" /><rect fill="white" height="1.5333333333333332cm" shape-rendering="crispEdges" width="1.5333333333333332cm" x="40.39533333333333cm" y="69.342cm" /><rect fill="white" height="1.5333333333333332cm" shape-rendering="crispEdges" width="3.0666666666666664cm" x="38.861999999999995cm" y="70.87533333333333cm" /><rect fill="white" height="1.5333333333333332cm" shape-rendering="crispEdges" width="1.5333333333333332cm" x="40.39533333333333cm" y="70.87533333333333cm" /><text fill="black" font-family="Arial, Helvetica, sans-serif" font-size="1.5240000000000002cm" shape-rendering="crispEdges" text-anchor="middle" x="38.861999999999995cm" y="63.24599999999999cm">49</text><rect fill="black" height="15.24cm" shape-rendering="crispEdges" width="15.24cm" x="46.482cm" y="61.722cm" /><rect fill="white" height="15.24cm" shape-rendering="crispEdges" width="15.24cm" x="61.722cm" y="61.722cm" /><rect fill="black" height="9.2cm" shape-rendering="crispEdges" width="9.2cm" x="64.742cm" y="64.742cm" /><rect fill="white" height="1.5333333333333332cm" shape-rendering="crispEdges" width="1.5333333333333332cm" x="66.27533333333334cm" y="69.342cm" /><rect fill="white" height="1.5333333333333332cm" shape-rendering="crispEdges" width="1.5333333333333332cm" x="67.80866666666667cm" y="66.27533333333334cm" /><rect fill="white" height="1.5333333333333332cm" shape-rendering="crispEdges" width="1.5333333333333332cm" x="67.80866666666667cm" y="70.87533333333333cm" /><rect fill="white" height="4.6cm" shape-rendering="crispEdges" width="1.5333333333333332cm" x="70.87533333333333cm" y="66.27533333333334cm" /><rect fill="white" height="3.0666666666666664cm" shape-rendering="crispEdges" width="1.5333333333333332cm" x="70.87533333333333cm" y="67.80866666666667cm" /><rect fill="white" height="1.5333333333333332cm" shape-rendering="crispEdges" width="1.5333333333333332cm" x="70.87533333333333cm" y="69.342cm" /><rect fill="white" height="1.5333333333333332cm" shape-rendering="crispEdges" width="1.5333333333333332cm" x="67.80866666666667cm" y="66.27533333333334cm" /><rect fill="white" height="1.5333333333333332cm" shape-rendering="crispEdges" width="1.5333333333333332cm" x="70.87533333333333cm" y="66.27533333333334cm" /><rect fill="white" height="1.5333333333333332cm" shape-rendering="crispEdges" width="1.5333333333333332cm" x="70.87533333333333cm" y="67.80866666666667cm" /><rect fill="white" height="1.5333333333333332cm" shape-rendering="crispEdges" width="1.5333333333333332cm" x="66.27533333333334cm" y="69.342cm" /><rect fill="white" height="1.5333333333333332cm" shape-rendering="crispEdges" width="1.5333333333333332cm" x="70.87533333333333cm" y="69.342cm" /><rect fill="white" height="1.5333333333333332cm" shape-rendering="crispEdges" width="1.5333333333333332cm" x="67.80866666666667cm" y="70.87533333333333cm" /><text fill="black" font-family="Arial, Helvetica, sans-serif" font-size="1.5240000000000002cm" shape-rendering="crispEdges" text-anchor="middle" x="69.342cm" y="63.24599999999999cm">50</text><rect fill="black" height="15.24cm" shape-rendering="crispEdges" width="15.24cm" x="76.962cm" y="61.722cm" /><rect fill="black" height="15.24cm" shape-rendering="crispEdges" width="15.24cm" x="0.7620000000000001cm" y="76.962cm" /><rect fill="white" height="15.24cm" shape-rendering="crispEdges" width="15.24cm" x="16.002000000000002cm" y="76.962cm" /><rect fill="black" height="9.2cm" shape-rendering="crispEdges" width="9.2cm" x="19.022000000000002cm" y="79.982cm" /><rect fill="white" height="1.5333333333333332cm" shape-rendering="crispEdges" width="1.5333333333333332cm" x="20.555333333333337cm" y="86.11533333333334cm" /><rect fill="white" height="4.6cm" shape-rendering="crispEdges" width="1.5333333333333332cm" x="22.088666666666672cm" y="81.51533333333333cm" /><rect fill="white" height="3.0666666666666664cm" shape-rendering="crispEdges" width="1.5333333333333332cm" x="22.088666666666672cm" y="83.04866666666666cm" /><rect fill="white" height="1.5333333333333332cm" shape-rendering="crispEdges" width="1.5333333333333332cm" x="22.088666666666672cm" y="84.58200000000001cm" /><rect fill="white" height="1.5333333333333332cm" shape-rendering="crispEdges" width="1.5333333333333332cm" x="23.622000000000003cm" y="84.58200000000001cm" /><rect fill="white" height="3.0666666666666664cm" shape-rendering="crispEdges" width="1.5333333333333332cm" x="25.155333333333335cm" y="81.51533333333333cm" /><rect fill="white" height="1.5333333333333332cm" shape-rendering="crispEdges" width="1.5333333333333332cm" x="25.155333333333335cm" y="83.04866666666666cm" /><rect fill="white" height="1.5333333333333332cm" shape-rendering="crispEdges" width="1.5333333333333332cm" x="22.088666666666672cm" y="81.51533333333333cm" /><rect fill="white" height="1.5333333333333332cm" shape-rendering="crispEdges" width="1.5333333333333332cm" x="25.155333333333335cm" y="81.51533333333333cm" /><rect fill="white" height="1.5333333333333332cm" shape-rendering="crispEdges" width="1.5333333333333332cm" x="22.088666666666672cm" y="83.04866666666666cm" /><rect fill="white" height="1.5333333333333332cm" shape-rendering="crispEdges" width="1.5333333333333332cm" x="25.155333333333335cm" y="83.04866666666666cm" /><rect fill="white" height="1.5333333333333332cm" shape-rendering="crispEdges" width="3.0666666666666664cm" x="22.088666666666672cm" y="84.58200000000001cm" /><rect fill="white" height="1.5333333333333332cm" shape-rendering="crispEdges" width="1.5333333333333332cm" x="23.622000000000003cm" y="84.58200000000001cm" /><rect fill="white" height="1.5333333333333332cm" shape-rendering="crispEdges" width="1.5333333333333332cm" x="20.555333333333337cm" y="86.11533333333334cm" /><text fill="black" font-family="Arial, Helvetica, sans-serif" font-size="1.5240000000000002cm" shape-rendering="crispEdges" text-anchor="middle" x="23.622cm" y="78.486cm">51</text><rect fill="black" height="15.24cm" shape-rendering="crispEdges" width="15.24cm" x="31.241999999999997cm" y="76.962cm" /><rect fill="white" height="15.24cm" shape-rendering="crispEdges" width="15.24cm" x="46.482cm" y="76.962cm" /><rect fill="black" height="9.2cm" shape-rendering="crispEdges" width="9.2cm" x="49.502cm" y="79.982cm" /><rect fill="white" height="1.5333333333333332cm" shape-rendering="crispEdges" width="1.5333333333333332cm" x="51.035333333333334cm" y="83.04866666666666cm" /><rect fill="white" height="4.6cm" shape-rendering="crispEdges" width="1.5333333333333332cm" x="52.568666666666665cm" y="81.51533333333333cm" /><rect fill="white" height="3.0666666666666664cm" shape-rendering="crispEdges" width="1.5333333333333332cm" x="52.568666666666665cm" y="83.04866666666666cm" /><rect fill="white" height="1.5333333333333332cm" shape-rendering="crispEdges" width="1.5333333333333332cm" x="52.568666666666665cm" y="84.58200000000001cm" /><rect fill="white" height="3.0666666666666664cm" shape-rendering="crispEdges" width="1.5333333333333332cm" x="55.635333333333335cm" y="81.51533333333333cm" /><rect fill="white" height="1.5333333333333332cm" shape-rendering="crispEdges" width="1.5333333333333332cm" x="55.635333333333335cm" y="83.04866666666666cm" /><rect fill="white" height="1.5333333333333332cm" shape-rendering="crispEdges" width="1.5333333333333332cm" x="55.635333333333335cm" y="86.11533333333334cm" /><rect fill="white" height="1.5333333333333332cm" shape-rendering="crispEdges" width="1.5333333333333332cm" x="52.568666666666665cm" y="81.51533333333333cm" /><rect fill="white" height="1.5333333333333332cm" shape-rendering="crispEdges" width="1.5333333333333332cm" x="55.635333333333335cm" y="81.51533333333333cm" /><rect fill="white" height="1.5333333333333332cm" shape-rendering="crispEdges" width="3.0666666666666664cm" x="51.035333333333334cm" y="83.04866666666666cm" /><rect fill="white" height="1.5333333333333332cm" shape-rendering="crispEdges" width="1.5333333333333332cm" x="52.568666666666665cm" y="83.04866666666666cm" /><rect fill="white" height="1.5333333333333332cm" shape-rendering="crispEdges" width="1.5333333333333332cm" x="55.635333333333335cm" y="83.04866666666666cm" /><rect fill="white" height="1.5333333333333332cm" shape-rendering="crispEdges" width="1.5333333333333332cm" x="52.568666666666665cm" y="84.58200000000001cm" /><rect fill="white" height="1.5333333333333332cm" shape-rendering="crispEdges" width="1.5333333333333332cm" x="55.635333333333335cm" y="86.11533333333334cm" /><text fill="black" font-family="Arial, Helvetica, sans-serif" font-size="1.5240000000000002cm" shape-rendering="crispEdges" text-anchor="middle" x="54.102cm" y="78.486cm">52</text><rect fill="black" height="15.24cm" shape-rendering="crispEdges" width="15.24cm" x="61.722cm" y="76.962cm" /><rect fill="white" height="15.24cm" shape-rendering="crispEdges" width="15.24cm" x="76.962cm" y="76.962cm" /><rect fill="black" height="9.2cm" shape-rendering="crispEdges" width="9.2cm" x="79.982cm" y="79.982cm" /><rect fill="white" height="3.0666666666666664cm" shape-rendering="crispEdges" width="1.5333333333333332cm" x="81.51533333333333cm" y="83.04866666666666cm" /><rect fill="white" height="1.5333333333333332cm" shape-rendering="crispEdges" width="1.5333333333333332cm" x="81.51533333333333cm" y="84.58200000000001cm" /><rect fill="white" height="3.0666666666666664cm" shape-rendering="crispEdges" width="1.5333333333333332cm" x="83.04866666666666cm" y="81.51533333333333cm" /><rect fill="white" height="1.5333333333333332cm" shape-rendering="crispEdges" width="1.5333333333333332cm" x="83.04866666666666cm" y="83.04866666666666cm" /><rect fill="white" height="1.5333333333333332cm" shape-rendering="crispEdges" width="1.5333333333333332cm" x="83.04866666666666cm" y="86.11533333333334cm" /><rect fill="white" height="1.5333333333333332cm" shape-rendering="crispEdges" width="1.5333333333333332cm" x="84.58200000000001cm" y="83.04866666666666cm" /><rect fill="white" height="1.5333333333333332cm" shape-rendering="crispEdges" width="1.5333333333333332cm" x="84.58200000000001cm" y="86.11533333333334cm" /><rect fill="white" height="6.133333333333333cm" shape-rendering="crispEdges" width="1.5333333333333332cm" x="86.11533333333334cm" y="81.51533333333333cm" /><rect fill="white" height="4.6cm" shape-rendering="crispEdges" width="1.5333333333333332cm" x="86.11533333333334cm" y="83.04866666666666cm" /><rect fill="white" height="3.0666666666666664cm" shape-rendering="crispEdges" width="1.5333333333333332cm" x="86.11533333333334cm" y="84.58200000000001cm" /><rect fill="white" height="1.5333333333333332cm" shape-rendering="crispEdges" width="1.5333333333333332cm" x="86.11533333333334cm" y="86.11533333333334cm" /><rect fill="white" height="1.5333333333333332cm" shape-rendering="crispEdges" width="1.5333333333333332cm" x="83.04866666666666cm" y="81.51533333333333cm" /><rect fill="white" height="1.5333333333333332cm" shape-rendering="crispEdges" width="1.5333333333333332cm" x="86.11533333333334cm" y="81.51533333333333cm" /><rect fill="white" height="1.5333333333333332cm" shape-rendering="crispEdges" width="6.133333333333333cm" x="81.51533333333333cm" y="83.04866666666666cm" /><rect fill="white" height="1.5333333333333332cm" shape-rendering="crispEdges" width="4.6cm" x="83.04866666666666cm" y="83.04866666666666cm" /><rect fill="white" height="1.5333333333333332cm" shape-rendering="crispEdges" width="3.0666666666666664cm" x="84.58200000000001cm" y="83.04866666666666cm" /><rect fill="white" height="1.5333333333333332cm" shape-rendering="crispEdges" width="1.5333333333333332cm" x="86.11533333333334cm" y="83.04866666666666cm" /><rect fill="white" height="1.5333333333333332cm" shape-rendering="crispEdges" width="1.5333333333333332cm" x="81.51533333333333cm" y="84.58200000000001cm" /><rect fill="white" height="1.5333333333333332cm" shape-rendering="crispEdges" width="1.5333333333333332cm" x="86.11533333333334cm" y="84.58200000000001cm" /><rect fill="white" height="1.5333333333333332cm" shape-rendering="crispEdges" width="4.6cm" x="83.04866666666666cm" y="86.11533333333334cm" /><rect fill="white" height="1.5333333333333332cm" shape-rendering="crispEdges" width="3.0666666666666664cm" x="84.58200000000001cm" y="86.11533333333334cm" /><rect fill="white" height="1.5333333333333332cm" shape-rendering="crispEdges" width="1.5333333333333332cm" x="86.11533333333334cm" y="86.11533333333334cm" /><text fill="black" font-family="Arial, Helvetica, sans-serif" font-size="1.5240000000000002cm" shape-rendering="crispEdges" text-anchor="middle" x="84.58200000000001cm" y="78.486cm">53</text><text fill="white" font-family="Arial, Helvetica, sans-serif" font-size="0.9144000000000001cm" shape-rendering="crispEdges" text-anchor="middle" x="23.622cm" y="2.2860000000000005cm">4X4_250, 0.1524, 0.092</text><line fill="none" shape-rendering="crispEdges" stroke="black" stroke-width="1" x1="0.0cm" x2="4.572cm" y1="0.7620000000000001cm" y2="0.7620000000000001cm" /><line fill="none" shape-rendering="crispEdges" stroke="black" stroke-width="1" x1="0.7620000000000001cm" x2="0.7620000000000001cm" y1="0.0cm" y2="4.572cm" /><line fill="none" shape-rendering="crispEdges" stroke="black" stroke-width="1" x1="92.964cm" x2="88.39200000000001cm" y1="0.7620000000000001cm" y2="0.7620000000000001cm" /><line fill="none" shape-rendering="crispEdges" stroke="black" stroke-width="1" x1="92.20200000000001cm" x2="92.20200000000001cm" y1="0.0cm" y2="4.572cm" /><line fill="none" shape-rendering="crispEdges" stroke="black" stroke-width="1" x1="0.0cm" x2="4.572cm" y1="92.20200000000001cm" y2="92.20200000000001cm" /><line fill="none" shape-rendering="crispEdges" stroke="black" stroke-width="1" x1="0.7620000000000001cm" x2="0.7620000000000001cm" y1="92.964cm" y2="88.39200000000001cm" /><line fill="none" shape-rendering="crispEdges" stroke="black" stroke-width="1" x1="92.964cm" x2="88.39200000000001cm" y1="92.20200000000001cm" y2="92.20200000000001cm" /><line fill="none" shape-rendering="crispEdges" stroke="black" stroke-width="1" x1="92.20200000000001cm" x2="92.20200000000001cm" y1="92.964cm" y2="88.39200000000001cm" /></svg>