<?xml version="1.0" encoding="utf-8" ?>
<svg baseProfile="full" height="99.0cm" version="1.1" width="99.0cm" xmlns="http://www.w3.org/2000/svg" xmlns:ev="http://www.w3.org/2001/xml-events" xmlns:xlink="http://www.w3.org/1999/xlink"><defs /><rect fill="white" height="16.5cm" shape-rendering="crispEdges" width="16.5cm" x="0.0cm" y="0.0cm" /><rect fill="black" height="10.0cm" shape-rendering="crispEdges" width="10.0cm" x="3.25cm" y="3.25cm" /><rect fill="white" height="3.3333333333333335cm" shape-rendering="crispEdges" width="1.6666666666666667cm" x="6.583333333333333cm" y="4.916666666666666cm" /><rect fill="white" height="1.6666666666666667cm" shape-rendering="crispEdges" width="1.6666666666666667cm" x="6.583333333333333cm" y="6.583333333333333cm" /><rect fill="white" height="1.6666666666666667cm" shape-rendering="crispEdges" width="1.6666666666666667cm" x="6.583333333333333cm" y="9.916666666666666cm" /><rect fill="white" height="3.3333333333333335cm" shape-rendering="crispEdges" width="1.6666666666666667cm" x="8.25cm" y="4.916666666666666cm" /><rect fill="white" height="1.6666666666666667cm" shape-rendering="crispEdges" width="1.6666666666666667cm" x="8.25cm" y="6.583333333333333cm" /><rect fill="white" height="1.6666666666666667cm" shape-rendering="crispEdges" width="1.6666666666666667cm" x="8.25cm" y="9.916666666666666cm" /><rect fill="white" height="1.6666666666666667cm" shape-rendering="crispEdges" width="1.6666666666666667cm" x="9.916666666666666cm" y="4.916666666666666cm" /><rect fill="white" height="3.3333333333333335cm" shape-rendering="crispEdges" width="1.6666666666666667cm" x="9.916666666666666cm" y="8.25cm" /><rect fill="white" height="1.6666666666666667cm" shape-rendering="crispEdges" width="1.6666666666666667cm" x="9.916666666666666cm" y="9.916666666666666cm" /><rect fill="white" height="1.6666666666666667cm" shape-rendering="crispEdges" width="5.0cm" x="6.583333333333333cm" y="4.916666666666666cm" /><rect fill="white" height="1.6666666666666667cm" shape-rendering="crispEdges" width="3.3333333333333335cm" x="8.25cm" y="4.916666666666666cm" /><rect fill="white" height="1.6666666666666667cm" shape-rendering="crispEdges" width="1.6666666666666667cm" x="9.916666666666666cm" y="4.916666666666666cm" /><rect fill="white" height="1.6666666666666667cm" shape-rendering="crispEdges" width="3.3333333333333335cm" x="6.583333333333333cm" y="6.583333333333333cm" /><rect fill="white" height="1.6666666666666667cm" shape-rendering="crispEdges" width="1.6666666666666667cm" x="8.25cm" y="6.583333333333333cm" /><rect fill="white" height="1.6666666666666667cm" shape-rendering="crispEdges" width="1.6666666666666667cm" x="9.916666666666666cm" y="8.25cm" /><rect fill="white" height="1.6666666666666667cm" shape-rendering="crispEdges" width="5.0cm" x="6.583333333333333cm" y="9.916666666666666cm" /><rect fill="white" height="1.6666666666666667cm" shape-rendering="crispEdges" width="3.3333333333333335cm" x="8.25cm" y="9.916666666666666cm" /><rect fill="white" height="1.6666666666666667cm" shape-rendering="crispEdges" width="1.6666666666666667cm" x="9.916666666666666cm" y="9.916666666666666cm" /><text fill="black" font-family="Arial, Helvetica, sans-serif" font-size="1.6500000000000001cm" shape-rendering="crispEdges" text-anchor="middle" x="8.25cm" y="1.6500000000000001cm">90</text><rect fill="black" height="16.5cm" shape-rendering="crispEdges" width="16.5cm" x="16.5cm" y="0.0cm" /><rect fill="white" height="16.5cm" shape-rendering="crispEdges" width="16.5cm" x="33.0cm" y="0.0cm" /><rect fill="black" height="10.0cm" shape-rendering="crispEdges" width="10.0cm" x="36.25000000000001cm" y="3.25cm" /><rect fill="white" height="5.0cm" shape-rendering="crispEdges" width="1.6666666666666667cm" x="37.91666666666667cm" y="6.583333333333333cm" /><rect fill="white" height="3.3333333333333335cm" shape-rendering="crispEdges" width="1.6666666666666667cm" x="37.91666666666667cm" y="8.25cm" /><rect fill="white" height="1.6666666666666667cm" shape-rendering="crispEdges" width="1.6666666666666667cm" x="37.91666666666667cm" y="9.916666666666666cm" /><rect fill="white" height="3.3333333333333335cm" shape-rendering="crispEdges" width="1.6666666666666667cm" x="39.583333333333336cm" y="8.25cm" /><rect fill="white" height="1.6666666666666667cm" shape-rendering="crispEdges" width="1.6666666666666667cm" x="39.583333333333336cm" y="9.916666666666666cm" /><rect fill="white" height="1.6666666666666667cm" shape-rendering="crispEdges" width="1.6666666666666667cm" x="41.25cm" y="6.583333333333333cm" /><rect fill="white" height="1.6666666666666667cm" shape-rendering="crispEdges" width="1.6666666666666667cm" x="41.25cm" y="9.916666666666666cm" /><rect fill="white" height="1.6666666666666667cm" shape-rendering="crispEdges" width="1.6666666666666667cm" x="42.91666666666667cm" y="9.916666666666666cm" /><rect fill="white" height="1.6666666666666667cm" shape-rendering="crispEdges" width="1.6666666666666667cm" x="37.91666666666667cm" y="6.583333333333333cm" /><rect fill="white" height="1.6666666666666667cm" shape-rendering="crispEdges" width="1.6666666666666667cm" x="41.25cm" y="6.583333333333333cm" /><rect fill="white" height="1.6666666666666667cm" shape-rendering="crispEdges" width="3.3333333333333335cm" x="37.91666666666667cm" y="8.25cm" /><rect fill="white" height="1.6666666666666667cm" shape-rendering="crispEdges" width="1.6666666666666667cm" x="39.583333333333336cm" y="8.25cm" /><rect fill="white" height="1.6666666666666667cm" shape-rendering="crispEdges" width="6.666666666666667cm" x="37.91666666666667cm" y="9.916666666666666cm" /><rect fill="white" height="1.6666666666666667cm" shape-rendering="crispEdges" width="5.0cm" x="39.583333333333336cm" y="9.916666666666666cm" /><rect fill="white" height="1.6666666666666667cm" shape-rendering="crispEdges" width="3.3333333333333335cm" x="41.25cm" y="9.916666666666666cm" /><rect fill="white" height="1.6666666666666667cm" shape-rendering="crispEdges" width="1.6666666666666667cm" x="42.91666666666667cm" y="9.916666666666666cm" /><text fill="black" font-family="Arial, Helvetica, sans-serif" font-size="1.6500000000000001cm" shape-rendering="crispEdges" text-anchor="middle" x="41.25cm" y="1.6500000000000001cm">91</text><rect fill="black" height="16.5cm" shape-rendering="crispEdges" width="16.5cm" x="49.5cm" y="0.0cm" /><rect fill="white" height="16.5cm" shape-rendering="crispEdges" width="16.5cm" x="66.0cm" y="0.0cm" /><rect fill="black" height="10.0cm" shape-rendering="crispEdges" width="10.0cm" x="69.25cm" y="3.25cm" /><rect fill="white" height="1.6666666666666667cm" shape-rendering="crispEdges" width="1.6666666666666667cm" x="70.91666666666667cm" y="9.916666666666666cm" /><rect fill="white" height="3.3333333333333335cm" shape-rendering="crispEdges" width="1.6666666666666667cm" x="72.58333333333333cm" y="6.583333333333333cm" /><rect fill="white" height="1.6666666666666667cm" shape-rendering="crispEdges" width="1.6666666666666667cm" x="72.58333333333333cm" y="8.25cm" /><rect fill="white" height="1.6666666666666667cm" shape-rendering="crispEdges" width="1.6666666666666667cm" x="74.25cm" y="6.583333333333333cm" /><rect fill="white" height="1.6666666666666667cm" shape-rendering="crispEdges" width="1.6666666666666667cm" x="74.25cm" y="9.916666666666666cm" /><rect fill="white" height="1.6666666666666667cm" shape-rendering="crispEdges" width="1.6666666666666667cm" x="75.91666666666667cm" y="9.916666666666666cm" /><rect fill="white" height="1.6666666666666667cm" shape-rendering="crispEdges" width="3.3333333333333335cm" x="72.58333333333333cm" y="6.583333333333333cm" /><rect fill="white" height="1.6666666666666667cm" shape-rendering="crispEdges" width="1.6666666666666667cm" x="74.25cm" y="6.583333333333333cm" /><rect fill="white" height="1.6666666666666667cm" shape-rendering="crispEdges" width="1.6666666666666667cm" x="72.58333333333333cm" y="8.25cm" /><rect fill="white" height="1.6666666666666667cm" shape-rendering="crispEdges" width="1.6666666666666667cm" x="70.91666666666667cm" y="9.916666666666666cm" /><rect fill="white" height="1.6666666666666667cm" shape-rendering="crispEdges" width="3.3333333333333335cm" x="74.25cm" y="9.916666666666666cm" /><rect fill="white" height="1.6666666666666667cm" shape-rendering="crispEdges" width="1.6666666666666667cm" x="75.91666666666667cm" y="9.916666666666666cm" /><text fill="black" font-family="Arial, Helvetica, sans-serif" font-size="1.6500000000000001cm" shape-rendering="crispEdges" text-anchor="middle" x="74.25cm" y="1.6500000000000001cm">92</text><rect fill="black" height="16.5cm" shape-rendering="crispEdges" width="16.5cm" x="82.5cm" y="0.0cm" /><rect fill="black" height="16.5cm" shape-rendering="crispEdges" width="16.5cm" x="0.0cm" y="16.5cm" /><rect fill="white" height="16.5cm" shape-rendering="crispEdges" width="16.5cm" x="16.5cm" y="16.5cm" /><rect fill="black" height="10.0cm" shape-rendering="crispEdges" width="10.0cm" x="19.75cm" y="19.75cm" /><rect fill="white" height="3.3333333333333335cm" shape-rendering="crispEdges" width="1.6666666666666667cm" x="21.416666666666668cm" y="23.083333333333332cm" /><rect fill="white" height="1.6666666666666667cm" shape-rendering="crispEdges" width="1.6666666666666667cm" x="21.416666666666668cm" y="24.75cm" /><rect fill="white" height="3.3333333333333335cm" shape-rendering="crispEdges" width="1.6666666666666667cm" x="23.083333333333332cm" y="23.083333333333332cm" /><rect fill="white" height="1.6666666666666667cm" shape-rendering="crispEdges" width="1.6666666666666667cm" x="23.083333333333332cm" y="24.75cm" /><rect fill="white" height="1.6666666666666667cm" shape-rendering="crispEdges" width="1.6666666666666667cm" x="24.75cm" y="21.416666666666668cm" /><rect fill="white" height="1.6666666666666667cm" shape-rendering="crispEdges" width="1.6666666666666667cm" x="26.416666666666664cm" y="23.083333333333332cm" /><rect fill="white" height="1.6666666666666667cm" shape-rendering="crispEdges" width="1.6666666666666667cm" x="26.416666666666664cm" y="26.416666666666664cm" /><rect fill="white" height="1.6666666666666667cm" shape-rendering="crispEdges" width="1.6666666666666667cm" x="24.75cm" y="21.416666666666668cm" /><rect fill="white" height="1.6666666666666667cm" shape-rendering="crispEdges" width="3.3333333333333335cm" x="21.416666666666668cm" y="23.083333333333332cm" /><rect fill="white" height="1.6666666666666667cm" shape-rendering="crispEdges" width="1.6666666666666667cm" x="23.083333333333332cm" y="23.083333333333332cm" /><rect fill="white" height="1.6666666666666667cm" shape-rendering="crispEdges" width="1.6666666666666667cm" x="26.416666666666664cm" y="23.083333333333332cm" /><rect fill="white" height="1.6666666666666667cm" shape-rendering="crispEdges" width="3.3333333333333335cm" x="21.416666666666668cm" y="24.75cm" /><rect fill="white" height="1.6666666666666667cm" shape-rendering="crispEdges" width="1.6666666666666667cm" x="23.083333333333332cm" y="24.75cm" /><rect fill="white" height="1.6666666666666667cm" shape-rendering="crispEdges" width="1.6666666666666667cm" x="26.416666666666664cm" y="26.416666666666664cm" /><text fill="black" font-family="Arial, Helvetica, sans-serif" font-size="1.6500000000000001cm" shape-rendering="crispEdges" text-anchor="middle" x="24.75cm" y="18.150000000000002cm">93</text><rect fill="black" height="16.5cm" shape-rendering="crispEdges" width="16.5cm" x="33.0cm" y="16.5cm" /><rect fill="white" height="16.5cm" shape-rendering="crispEdges" width="16.5cm" x="49.5cm" y="16.5cm" /><rect fill="black" height="10.0cm" shape-rendering="crispEdges" width="10.0cm" x="52.75cm" y="19.75cm" /><rect fill="white" height="5.0cm" shape-rendering="crispEdges" width="1.6666666666666667cm" x="54.41666666666667cm" y="23.083333333333332cm" /><rect fill="white" height="3.3333333333333335cm" shape-rendering="crispEdges" width="1.6666666666666667cm" x="54.41666666666667cm" y="24.75cm" /><rect fill="white" height="1.6666666666666667cm" shape-rendering="crispEdges" width="1.6666666666666667cm" x="54.41666666666667cm" y="26.416666666666664cm" /><rect fill="white" height="1.6666666666666667cm" shape-rendering="crispEdges" width="1.6666666666666667cm" x="56.08333333333333cm" y="21.416666666666668cm" /><rect fill="white" height="1.6666666666666667cm" shape-rendering="crispEdges" width="1.6666666666666667cm" x="56.08333333333333cm" y="24.75cm" /><rect fill="white" height="3.3333333333333335cm" shape-rendering="crispEdges" width="1.6666666666666667cm" x="59.416666666666664cm" y="23.083333333333332cm" /><rect fill="white" height="1.6666666666666667cm" shape-rendering="crispEdges" width="1.6666666666666667cm" x="59.416666666666664cm" y="24.75cm" /><rect fill="white" height="1.6666666666666667cm" shape-rendering="crispEdges" width="1.6666666666666667cm" x="56.08333333333333cm" y="21.416666666666668cm" /><rect fill="white" height="1.6666666666666667cm" shape-rendering="crispEdges" width="1.6666666666666667cm" x="54.41666666666667cm" y="23.083333333333332cm" /><rect fill="white" height="1.6666666666666667cm" shape-rendering="crispEdges" width="1.6666666666666667cm" x="59.416666666666664cm" y="23.083333333333332cm" /><rect fill="white" height="1.6666666666666667cm" shape-rendering="crispEdges" width="3.3333333333333335cm" x="54.41666666666667cm" y="24.75cm" /><rect fill="white" height="1.6666666666666667cm" shape-rendering="crispEdges" width="1.6666666666666667cm" x="56.08333333333333cm" y="24.75cm" /><rect fill="white" height="1.6666666666666667cm" shape-rendering="crispEdges" width="1.6666666666666667cm" x="59.416666666666664cm" y="24.75cm" /><rect fill="white" height="1.6666666666666667cm" shape-rendering="crispEdges" width="1.6666666666666667cm" x="54.41666666666667cm" y="26.416666666666664cm" /><text fill="black" font-family="Arial, Helvetica, sans-serif" font-size="1.6500000000000001cm" shape-rendering="crispEdges" text-anchor="middle" x="57.75cm" y="18.150000000000002cm">94</text><rect fill="black" height="16.5cm" shape-rendering="crispEdges" width="16.5cm" x="66.0cm" y="16.5cm" /><rect fill="white" height="16.5cm" shape-rendering="crispEdges" width="16.5cm" x="82.5cm" y="16.5cm" /><rect fill="black" height="10.0cm" shape-rendering="crispEdges" width="10.0cm" x="85.75cm" y="19.75cm" /><rect fill="white" height="1.6666666666666667cm" shape-rendering="crispEdges" width="1.6666666666666667cm" x="87.41666666666667cm" y="24.75cm" /><rect fill="white" height="1.6666666666666667cm" shape-rendering="crispEdges" width="1.6666666666666667cm" x="89.08333333333334cm" y="21.416666666666668cm" /><rect fill="white" height="3.3333333333333335cm" shape-rendering="crispEdges" width="1.6666666666666667cm" x="89.08333333333334cm" y="24.75cm" /><rect fill="white" height="1.6666666666666667cm" shape-rendering="crispEdges" width="1.6666666666666667cm" x="89.08333333333334cm" y="26.416666666666664cm" /><rect fill="white" height="3.3333333333333335cm" shape-rendering="crispEdges" width="1.6666666666666667cm" x="90.75000000000001cm" y="23.083333333333332cm" /><rect fill="white" height="1.6666666666666667cm" shape-rendering="crispEdges" width="1.6666666666666667cm" x="90.75000000000001cm" y="24.75cm" /><rect fill="white" height="3.3333333333333335cm" shape-rendering="crispEdges" width="1.6666666666666667cm" x="92.41666666666667cm" y="23.083333333333332cm" /><rect fill="white" height="1.6666666666666667cm" shape-rendering="crispEdges" width="1.6666666666666667cm" x="92.41666666666667cm" y="24.75cm" /><rect fill="white" height="1.6666666666666667cm" shape-rendering="crispEdges" width="1.6666666666666667cm" x="89.08333333333334cm" y="21.416666666666668cm" /><rect fill="white" height="1.6666666666666667cm" shape-rendering="crispEdges" width="3.3333333333333335cm" x="90.75000000000001cm" y="23.083333333333332cm" /><rect fill="white" height="1.6666666666666667cm" shape-rendering="crispEdges" width="1.6666666666666667cm" x="92.41666666666667cm" y="23.083333333333332cm" /><rect fill="white" height="1.6666666666666667cm" shape-rendering="crispEdges" width="6.666666666666667cm" x="87.41666666666667cm" y="24.75cm" /><rect fill="white" height="1.6666666666666667cm" shape-rendering="crispEdges" width="5.0cm" x="89.08333333333334cm" y="24.75cm" /><rect fill="white" height="1.6666666666666667cm" shape-rendering="crispEdges" width="3.3333333333333335cm" x="90.75000000000001cm" y="24.75cm" /><rect fill="white" height="1.6666666666666667cm" shape-rendering="crispEdges" width="1.6666666666666667cm" x="92.41666666666667cm" y="24.75cm" /><rect fill="white" height="1.6666666666666667cm" shape-rendering="crispEdges" width="1.6666666666666667cm" x="89.08333333333334cm" y="26.416666666666664cm" /><text fill="black" font-family="Arial, Helvetica, sans-serif" font-size="1.6500000000000001cm" shape-rendering="crispEdges" text-anchor="middle" x="90.75000000000001cm" y="18.150000000000002cm">95</text><rect fill="white" height="16.5cm" shape-rendering="crispEdges" width="16.5cm" x="0.0cm" y="33.0cm" /><rect fill="black" height="10.0cm" shape-rendering="crispEdges" width="10.0cm" x="3.25cm" y="36.25000000000001cm" /><rect fill="white" height="1.6666666666666667cm" shape-rendering="crispEdges" width="1.6666666666666667cm" x="4.916666666666666cm" y="39.583333333333336cm" /><rect fill="white" height="3.3333333333333335cm" shape-rendering="crispEdges" width="1.6666666666666667cm" x="6.583333333333333cm" y="37.91666666666667cm" /><rect fill="white" height="1.6666666666666667cm" shape-rendering="crispEdges" width="1.6666666666666667cm" x="6.583333333333333cm" y="39.583333333333336cm" /><rect fill="white" height="1.6666666666666667cm" shape-rendering="crispEdges" width="1.6666666666666667cm" x="6.583333333333333cm" y="42.91666666666667cm" /><rect fill="white" height="5.0cm" shape-rendering="crispEdges" width="1.6666666666666667cm" x="8.25cm" y="39.583333333333336cm" /><rect fill="white" height="3.3333333333333335cm" shape-rendering="crispEdges" width="1.6666666666666667cm" x="8.25cm" y="41.25cm" /><rect fill="white" height="1.6666666666666667cm" shape-rendering="crispEdges" width="1.6666666666666667cm" x="8.25cm" y="42.91666666666667cm" /><rect fill="white" height="3.3333333333333335cm" shape-rendering="crispEdges" width="1.6666666666666667cm" x="9.916666666666666cm" y="39.583333333333336cm" /><rect fill="white" height="1.6666666666666667cm" shape-rendering="crispEdges" width="1.6666666666666667cm" x="9.916666666666666cm" y="41.25cm" /><rect fill="white" height="1.6666666666666667cm" shape-rendering="crispEdges" width="1.6666666666666667cm" x="6.583333333333333cm" y="37.91666666666667cm" /><rect fill="white" height="1.6666666666666667cm" shape-rendering="crispEdges" width="6.666666666666667cm" x="4.916666666666666cm" y="39.583333333333336cm" /><rect fill="white" height="1.6666666666666667cm" shape-rendering="crispEdges" width="5.0cm" x="6.583333333333333cm" y="39.583333333333336cm" /><rect fill="white" height="1.6666666666666667cm" shape-rendering="crispEdges" width="3.3333333333333335cm" x="8.25cm" y="39.583333333333336cm" /><rect fill="white" height="1.6666666666666667cm" shape-rendering="crispEdges" width="1.6666666666666667cm" x="9.916666666666666cm" y="39.583333333333336cm" /><rect fill="white" height="1.6666666666666667cm" shape-rendering="crispEdges" width="3.3333333333333335cm" x="8.25cm" y="41.25cm" /><rect fill="white" height="1.6666666666666667cm" shape-rendering="crispEdges" width="1.6666666666666667cm" x="9.916666666666666cm" y="41.25cm" /><rect fill="white" height="1.6666666666666667cm" shape-rendering="crispEdges" width="3.3333333333333335cm" x="6.583333333333333cm" y="42.91666666666667cm" /><rect fill="white" height="1.6666666666666667cm" shape-rendering="crispEdges" width="1.6666666666666667cm" x="8.25cm" y="42.91666666666667cm" /><text fill="black" font-family="Arial, Helvetica, sans-serif" font-size="1.6500000000000001cm" shape-rendering="crispEdges" text-anchor="middle" x="8.25cm" y="34.650000000000006cm">96</text><rect fill="black" height="16.5cm" shape-rendering="crispEdges" width="16.5cm" x="16.5cm" y="33.0cm" /><rect fill="white" height="16.5cm" shape-rendering="crispEdges" width="16.5cm" x="33.0cm" y="33.0cm" /><rect fill="black" height="10.0cm" shape-rendering="crispEdges" width="10.0cm" x="36.25000000000001cm" y="36.25000000000001cm" /><rect fill="white" height="3.3333333333333335cm" shape-rendering="crispEdges" width="1.6666666666666667cm" x="37.91666666666667cm" y="39.583333333333336cm" /><rect fill="white" height="1.6666666666666667cm" shape-rendering="crispEdges" width="1.6666666666666667cm" x="37.91666666666667cm" y="41.25cm" /><rect fill="white" height="5.0cm" shape-rendering="crispEdges" width="1.6666666666666667cm" x="39.583333333333336cm" y="37.91666666666667cm" /><rect fill="white" height="3.3333333333333335cm" shape-rendering="crispEdges" width="1.6666666666666667cm" x="39.583333333333336cm" y="39.583333333333336cm" /><rect fill="white" height="1.6666666666666667cm" shape-rendering="crispEdges" width="1.6666666666666667cm" x="39.583333333333336cm" y="41.25cm" /><rect fill="white" height="1.6666666666666667cm" shape-rendering="crispEdges" width="1.6666666666666667cm" x="41.25cm" y="39.583333333333336cm" /><rect fill="white" height="1.6666666666666667cm" shape-rendering="crispEdges" width="1.6666666666666667cm" x="41.25cm" y="42.91666666666667cm" /><rect fill="white" height="5.0cm" shape-rendering="crispEdges" width="1.6666666666666667cm" x="42.91666666666667cm" y="39.583333333333336cm" /><rect fill="white" height="3.3333333333333335cm" shape-rendering="crispEdges" width="1.6666666666666667cm" x="42.91666666666667cm" y="41.25cm" /><rect fill="white" height="1.6666666666666667cm" shape-rendering="crispEdges" width="1.6666666666666667cm" x="42.91666666666667cm" y="42.91666666666667cm" /><rect fill="white" height="1.6666666666666667cm" shape-rendering="crispEdges" width="1.6666666666666667cm" x="39.583333333333336cm" y="37.91666666666667cm" /><rect fill="white" height="1.6666666666666667cm" shape-rendering="crispEdges" width="6.666666666666667cm" x="37.91666666666667cm" y="39.583333333333336cm" /><rect fill="white" height="1.6666666666666667cm" shape-rendering="crispEdges" width="5.0cm" x="39.583333333333336cm" y="39.583333333333336cm" /><rect fill="white" height="1.6666666666666667cm" shape-rendering="crispEdges" width="3.3333333333333335cm" x="41.25cm" y="39.583333333333336cm" /><rect fill="white" height="1.6666666666666667cm" shape-rendering="crispEdges" width="1.6666666666666667cm" x="42.91666666666667cm" y="39.583333333333336cm" /><rect fill="white" height="1.6666666666666667cm" shape-rendering="crispEdges" width="3.3333333333333335cm" x="37.91666666666667cm" y="41.25cm" /><rect fill="white" height="1.6666666666666667cm" shape-rendering="crispEdges" width="1.6666666666666667cm" x="39.583333333333336cm" y="41.25cm" /><rect fill="white" height="1.6666666666666667cm" shape-rendering="crispEdges" width="1.6666666666666667cm" x="42.91666666666667cm" y="41.25cm" /><rect fill="white" height="1.6666666666666667cm" shape-rendering="crispEdges" width="3.3333333333333335cm" x="41.25cm" y="42.91666666666667cm" /><rect fill="white" height="1.6666666666666667cm" shape-rendering="crispEdges" width="1.6666666666666667cm" x="42.91666666666667cm" y="42.91666666666667cm" /><text fill="black" font-family="Arial, Helvetica, sans-serif" font-size="1.6500000000000001cm" shape-rendering="crispEdges" text-anchor="middle" x="41.25cm" y="34.650000000000006cm">97</text><rect fill="black" height="16.5cm" shape-rendering="crispEdges" width="16.5cm" x="49.5cm" y="33.0cm" /><rect fill="white" height="16.5cm" shape-rendering="crispEdges" width="16.5cm" x="66.0cm" y="33.0cm" /><rect fill="black" height="10.0cm" shape-rendering="crispEdges" width="10.0cm" x="69.25cm" y="36.25000000000001cm" /><rect fill="white" height="3.3333333333333335cm" shape-rendering="crispEdges" width="1.6666666666666667cm" x="70.91666666666667cm" y="39.583333333333336cm" /><rect fill="white" height="1.6666666666666667cm" shape-rendering="crispEdges" width="1.6666666666666667cm" x="70.91666666666667cm" y="41.25cm" /><rect fill="white" height="1.6666666666666667cm" shape-rendering="crispEdges" width="1.6666666666666667cm" x="72.58333333333333cm" y="37.91666666666667cm" /><rect fill="white" height="3.3333333333333335cm" shape-rendering="crispEdges" width="1.6666666666666667cm" x="72.58333333333333cm" y="41.25cm" /><rect fill="white" height="1.6666666666666667cm" shape-rendering="crispEdges" width="1.6666666666666667cm" x="72.58333333333333cm" y="42.91666666666667cm" /><rect fill="white" height="1.6666666666666667cm" shape-rendering="crispEdges" width="1.6666666666666667cm" x="74.25cm" y="37.91666666666667cm" /><rect fill="white" height="1.6666666666666667cm" shape-rendering="crispEdges" width="1.6666666666666667cm" x="74.25cm" y="41.25cm" /><rect fill="white" height="1.6666666666666667cm" shape-rendering="crispEdges" width="1.6666666666666667cm" x="75.91666666666667cm" y="39.583333333333336cm" /><rect fill="white" height="1.6666666666666667cm" shape-rendering="crispEdges" width="3.3333333333333335cm" x="72.58333333333333cm" y="37.91666666666667cm" /><rect fill="white" height="1.6666666666666667cm" shape-rendering="crispEdges" width="1.6666666666666667cm" x="74.25cm" y="37.91666666666667cm" /><rect fill="white" height="1.6666666666666667cm" shape-rendering="crispEdges" width="1.6666666666666667cm" x="70.91666666666667cm" y="39.583333333333336cm" /><rect fill="white" height="1.6666666666666667cm" shape-rendering="crispEdges" width="1.6666666666666667cm" x="75.91666666666667cm" y="39.583333333333336cm" /><rect fill="white" height="1.6666666666666667cm" shape-rendering="crispEdges" width="5.0cm" x="70.91666666666667cm" y="41.25cm" /><rect fill="white" height="1.6666666666666667cm" shape-rendering="crispEdges" width="3.3333333333333335cm" x="72.58333333333333cm" y="41.25cm" /><rect fill="white" height="1.6666666666666667cm" shape-rendering="crispEdges" width="1.6666666666666667cm" x="74.25cm" y="41.25cm" /><rect fill="white" height="1.6666666666666667cm" shape-rendering="crispEdges" width="1.6666666666666667cm" x="72.58333333333333cm" y="42.91666666666667cm" /><text fill="black" font-family="Arial, Helvetica, sans-serif" font-size="1.6500000000000001cm" shape-rendering="crispEdges" text-anchor="middle" x="74.25cm" y="34.650000000000006cm">98</text><rect fill="black" height="16.5cm" shape-rendering="crispEdges" width="16.5cm" x="82.5cm" y="33.0cm" /><rect fill="black" height="16.5cm" shape-rendering="crispEdges" width="16.5cm" x="0.0cm" y="49.5cm" /><rect fill="white" height="16.5cm" shape-rendering="crispEdges" width="16.5cm" x="16.5cm" y="49.5cm" /><rect fill="black" height="10.0cm" shape-rendering="crispEdges" width="10.0cm" x="19.75cm" y="52.75cm" /><rect fill="white" height="1.6666666666666667cm" shape-rendering="crispEdges" width="1.6666666666666667cm" x="21.416666666666668cm" y="57.75cm" /><rect fill="white" height="1.6666666666666667cm" shape-rendering="crispEdges" width="1.6666666666666667cm" x="23.083333333333332cm" y="54.41666666666667cm" /><rect fill="white" height="3.3333333333333335cm" shape-rendering="crispEdges" width="1.6666666666666667cm" x="23.083333333333332cm" y="57.75cm" /><rect fill="white" height="1.6666666666666667cm" shape-rendering="crispEdges" width="1.6666666666666667cm" x="23.083333333333332cm" y="59.416666666666664cm" /><rect fill="white" height="1.6666666666666667cm" shape-rendering="crispEdges" width="1.6666666666666667cm" x="24.75cm" y="54.41666666666667cm" /><rect fill="white" height="1.6666666666666667cm" shape-rendering="crispEdges" width="1.6666666666666667cm" x="24.75cm" y="59.416666666666664cm" /><rect fill="white" height="1.6666666666666667cm" shape-rendering="crispEdges" width="1.6666666666666667cm" x="26.416666666666664cm" y="54.41666666666667cm" /><rect fill="white" height="1.6666666666666667cm" shape-rendering="crispEdges" width="1.6666666666666667cm" x="26.416666666666664cm" y="59.416666666666664cm" /><rect fill="white" height="1.6666666666666667cm" shape-rendering="crispEdges" width="5.0cm" x="23.083333333333332cm" y="54.41666666666667cm" /><rect fill="white" height="1.6666666666666667cm" shape-rendering="crispEdges" width="3.3333333333333335cm" x="24.75cm" y="54.41666666666667cm" /><rect fill="white" height="1.6666666666666667cm" shape-rendering="crispEdges" width="1.6666666666666667cm" x="26.416666666666664cm" y="54.41666666666667cm" /><rect fill="white" height="1.6666666666666667cm" shape-rendering="crispEdges" width="3.3333333333333335cm" x="21.416666666666668cm" y="57.75cm" /><rect fill="white" height="1.6666666666666667cm" shape-rendering="crispEdges" width="1.6666666666666667cm" x="23.083333333333332cm" y="57.75cm" /><rect fill="white" height="1.6666666666666667cm" shape-rendering="crispEdges" width="5.0cm" x="23.083333333333332cm" y="59.416666666666664cm" /><rect fill="white" height="1.6666666666666667cm" shape-rendering="crispEdges" width="3.3333333333333335cm" x="24.75cm" y="59.416666666666664cm" /><rect fill="white" height="1.6666666666666667cm" shape-rendering="crispEdges" width="1.6666666666666667cm" x="26.416666666666664cm" y="59.416666666666664cm" /><text fill="black" font-family="Arial, Helvetica, sans-serif" font-size="1.6500000000000001cm" shape-rendering="crispEdges" text-anchor="middle" x="24.75cm" y="51.150000000000006cm">99</text><rect fill="black" height="16.5cm" shape-rendering="crispEdges" width="16.5cm" x="33.0cm" y="49.5cm" /><rect fill="white" height="16.5cm" shape-rendering="crispEdges" width="16.5cm" x="49.5cm" y="49.5cm" /><rect fill="black" height="10.0cm" shape-rendering="crispEdges" width="10.0cm" x="52.75cm" y="52.75cm" /><rect fill="white" height="1.6666666666666667cm" shape-rendering="crispEdges" width="1.6666666666666667cm" x="54.41666666666667cm" y="56.08333333333333cm" /><rect fill="white" height="1.6666666666666667cm" shape-rendering="crispEdges" width="1.6666666666666667cm" x="54.41666666666667cm" y="59.416666666666664cm" /><rect fill="white" height="1.6666666666666667cm" shape-rendering="crispEdges" width="1.6666666666666667cm" x="56.08333333333333cm" y="54.41666666666667cm" /><rect fill="white" height="3.3333333333333335cm" shape-rendering="crispEdges" width="1.6666666666666667cm" x="56.08333333333333cm" y="57.75cm" /><rect fill="white" height="1.6666666666666667cm" shape-rendering="crispEdges" width="1.6666666666666667cm" x="56.08333333333333cm" y="59.416666666666664cm" /><rect fill="white" height="6.666666666666667cm" shape-rendering="crispEdges" width="1.6666666666666667cm" x="57.75cm" y="54.41666666666667cm" /><rect fill="white" height="5.0cm" shape-rendering="crispEdges" width="1.6666666666666667cm" x="57.75cm" y="56.08333333333333cm" /><rect fill="white" height="3.3333333333333335cm" shape-rendering="crispEdges" width="1.6666666666666667cm" x="57.75cm" y="57.75cm" /><rect fill="white" height="1.6666666666666667cm" shape-rendering="crispEdges" width="1.6666666666666667cm" x="57.75cm" y="59.416666666666664cm" /><rect fill="white" height="1.6666666666666667cm" shape-rendering="crispEdges" width="1.6666666666666667cm" x="59.416666666666664cm" y="54.41666666666667cm" /><rect fill="white" height="1.6666666666666667cm" shape-rendering="crispEdges" width="5.0cm" x="56.08333333333333cm" y="54.41666666666667cm" /><rect fill="white" height="1.6666666666666667cm" shape-rendering="crispEdges" width="3.3333333333333335cm" x="57.75cm" y="54.41666666666667cm" /><rect fill="white" height="1.6666666666666667cm" shape-rendering="crispEdges" width="1.6666666666666667cm" x="59.416666666666664cm" y="54.41666666666667cm" /><rect fill="white" height="1.6666666666666667cm" shape-rendering="crispEdges" width="1.6666666666666667cm" x="54.41666666666667cm" y="56.08333333333333cm" /><rect fill="white" height="1.6666666666666667cm" shape-rendering="crispEdges" width="1.6666666666666667cm" x="57.75cm" y="56.08333333333333cm" /><rect fill="white" height="1.6666666666666667cm" shape-rendering="crispEdges" width="3.3333333333333335cm" x="56.08333333333333cm" y="57.75cm" /><rect fill="white" height="1.6666666666666667cm" shape-rendering="crispEdges" width="1.6666666666666667cm" x="57.75cm" y="57.75cm" /><rect fill="white" height="1.6666666666666667cm" shape-rendering="crispEdges" width="5.0cm" x="54.41666666666667cm" y="59.416666666666664cm" /><rect fill="white" height="1.6666666666666667cm" shape-rendering="crispEdges" width="3.3333333333333335cm" x="56.08333333333333cm" y="59.416666666666664cm" /><rect fill="white" height="1.6666666666666667cm" shape-rendering="crispEdges" width="1.6666666666666667cm" x="57.75cm" y="59.416666666666664cm" /><text fill="black" font-family="Arial, Helvetica, sans-serif" font-size="1.6500000000000001cm" shape-rendering="crispEdges" text-anchor="middle" x="57.75cm" y="51.150000000000006cm">100</text><rect fill="black" height="16.5cm" shape-rendering="crispEdges" width="16.5cm" x="66.0cm" y="49.5cm" /><rect fill="white" height="16.5cm" shape-rendering="crispEdges" width="16.5cm" x="82.5cm" y="49.5cm" /><rect fill="black" height="10.0cm" shape-rendering="crispEdges" width="10.0cm" x="85.75cm" y="52.75cm" /><rect fill="white" height="1.6666666666666667cm" shape-rendering="crispEdges" width="1.6666666666666667cm" x="87.41666666666667cm" y="54.41666666666667cm" /><rect fill="white" height="3.3333333333333335cm" shape-rendering="crispEdges" width="1.6666666666666667cm" x="87.41666666666667cm" y="57.75cm" /><rect fill="white" height="1.6666666666666667cm" shape-rendering="crispEdges" width="1.6666666666666667cm" x="87.41666666666667cm" y="59.416666666666664cm" /><rect fill="white" height="3.3333333333333335cm" shape-rendering="crispEdges" width="1.6666666666666667cm" x="89.08333333333334cm" y="56.08333333333333cm" /><rect fill="white" height="1.6666666666666667cm" shape-rendering="crispEdges" width="1.6666666666666667cm" x="89.08333333333334cm" y="57.75cm" /><rect fill="white" height="1.6666666666666667cm" shape-rendering="crispEdges" width="1.6666666666666667cm" x="90.75000000000001cm" y="54.41666666666667cm" /><rect fill="white" height="3.3333333333333335cm" shape-rendering="crispEdges" width="1.6666666666666667cm" x="90.75000000000001cm" y="57.75cm" /><rect fill="white" height="1.6666666666666667cm" shape-rendering="crispEdges" width="1.6666666666666667cm" x="90.75000000000001cm" y="59.416666666666664cm" /><rect fill="white" height="1.6666666666666667cm" shape-rendering="crispEdges" width="1.6666666666666667cm" x="92.41666666666667cm" y="54.41666666666667cm" /><rect fill="white" height="1.6666666666666667cm" shape-rendering="crispEdges" width="1.6666666666666667cm" x="87.41666666666667cm" y="54.41666666666667cm" /><rect fill="white" height="1.6666666666666667cm" shape-rendering="crispEdges" width="3.3333333333333335cm" x="90.75000000000001cm" y="54.41666666666667cm" /><rect fill="white" height="1.6666666666666667cm" shape-rendering="crispEdges" width="1.6666666666666667cm" x="92.41666666666667cm" y="54.41666666666667cm" /><rect fill="white" height="1.6666666666666667cm" shape-rendering="crispEdges" width="1.6666666666666667cm" x="89.08333333333334cm" y="56.08333333333333cm" /><rect fill="white" height="1.6666666666666667cm" shape-rendering="crispEdges" width="5.0cm" x="87.41666666666667cm" y="57.75cm" /><rect fill="white" height="1.6666666666666667cm" shape-rendering="crispEdges" width="3.3333333333333335cm" x="89.08333333333334cm" y="57.75cm" /><rect fill="white" height="1.6666666666666667cm" shape-rendering="crispEdges" width="1.6666666666666667cm" x="90.75000000000001cm" y="57.75cm" /><rect fill="white" height="1.6666666666666667cm" shape-rendering="crispEdges" width="1.6666666666666667cm" x="87.41666666666667cm" y="59.416666666666664cm" /><rect fill="white" height="1.6666666666666667cm" shape-rendering="crispEdges" width="1.6666666666666667cm" x="90.75000000000001cm" y="59.416666666666664cm" /><text fill="black" font-family="Arial, Helvetica, sans-serif" font-size="1.6500000000000001cm" shape-rendering="crispEdges" text-anchor="middle" x="90.75000000000001cm" y="51.150000000000006cm">101</text><rect fill="white" height="16.5cm" shape-rendering="crispEdges" width="16.5cm" x="0.0cm" y="66.0cm" /><rect fill="black" height="10.0cm" shape-rendering="crispEdges" width="10.0cm" x="3.25cm" y="69.25cm" /><rect fill="white" height="3.3333333333333335cm" shape-rendering="crispEdges" width="1.6666666666666667cm" x="4.916666666666666cm" y="70.91666666666667cm" /><rect fill="white" height="1.6666666666666667cm" shape-rendering="crispEdges" width="1.6666666666666667cm" x="4.916666666666666cm" y="72.58333333333333cm" /><rect fill="white" height="1.6666666666666667cm" shape-rendering="crispEdges" width="1.6666666666666667cm" x="4.916666666666666cm" y="75.91666666666667cm" /><rect fill="white" height="6.666666666666667cm" shape-rendering="crispEdges" width="1.6666666666666667cm" x="6.583333333333333cm" y="70.91666666666667cm" /><rect fill="white" height="5.0cm" shape-rendering="crispEdges" width="1.6666666666666667cm" x="6.583333333333333cm" y="72.58333333333333cm" /><rect fill="white" height="3.3333333333333335cm" shape-rendering="crispEdges" width="1.6666666666666667cm" x="6.583333333333333cm" y="74.25cm" /><rect fill="white" height="1.6666666666666667cm" shape-rendering="crispEdges" width="1.6666666666666667cm" x="6.583333333333333cm" y="75.91666666666667cm" /><rect fill="white" height="1.6666666666666667cm" shape-rendering="crispEdges" width="1.6666666666666667cm" x="8.25cm" y="70.91666666666667cm" /><rect fill="white" height="1.6666666666666667cm" shape-rendering="crispEdges" width="1.6666666666666667cm" x="8.25cm" y="75.91666666666667cm" /><rect fill="white" height="1.6666666666666667cm" shape-rendering="crispEdges" width="1.6666666666666667cm" x="9.916666666666666cm" y="72.58333333333333cm" /><rect fill="white" height="1.6666666666666667cm" shape-rendering="crispEdges" width="1.6666666666666667cm" x="9.916666666666666cm" y="75.91666666666667cm" /><rect fill="white" height="1.6666666666666667cm" shape-rendering="crispEdges" width="5.0cm" x="4.916666666666666cm" y="70.91666666666667cm" /><rect fill="white" height="1.6666666666666667cm" shape-rendering="crispEdges" width="3.3333333333333335cm" x="6.583333333333333cm" y="70.91666666666667cm" /><rect fill="white" height="1.6666666666666667cm" shape-rendering="crispEdges" width="1.6666666666666667cm" x="8.25cm" y="70.91666666666667cm" /><rect fill="white" height="1.6666666666666667cm" shape-rendering="crispEdges" width="3.3333333333333335cm" x="4.916666666666666cm" y="72.58333333333333cm" /><rect fill="white" height="1.6666666666666667cm" shape-rendering="crispEdges" width="1.6666666666666667cm" x="6.583333333333333cm" y="72.58333333333333cm" /><rect fill="white" height="1.6666666666666667cm" shape-rendering="crispEdges" width="1.6666666666666667cm" x="9.916666666666666cm" y="72.58333333333333cm" /><rect fill="white" height="1.6666666666666667cm" shape-rendering="crispEdges" width="1.6666666666666667cm" x="6.583333333333333cm" y="74.25cm" /><rect fill="white" height="1.6666666666666667cm" shape-rendering="crispEdges" width="6.666666666666667cm" x="4.916666666666666cm" y="75.91666666666667cm" /><rect fill="white" height="1.6666666666666667cm" shape-rendering="crispEdges" width="5.0cm" x="6.583333333333333cm" y="75.91666666666667cm" /><rect fill="white" height="1.6666666666666667cm" shape-rendering="crispEdges" width="3.3333333333333335cm" x="8.25cm" y="75.91666666666667cm" /><rect fill="white" height="1.6666666666666667cm" shape-rendering="crispEdges" width="1.6666666666666667cm" x="9.916666666666666cm" y="75.91666666666667cm" /><text fill="black" font-family="Arial, Helvetica, sans-serif" font-size="1.6500000000000001cm" shape-rendering="crispEdges" text-anchor="middle" x="8.25cm" y="67.65cm">102</text><rect fill="black" height="16.5cm" shape-rendering="crispEdges" width="16.5cm" x="16.5cm" y="66.0cm" /><rect fill="white" height="16.5cm" shape-rendering="crispEdges" width="16.5cm" x="33.0cm" y="66.0cm" /><rect fill="black" height="10.0cm" shape-rendering="crispEdges" width="10.0cm" x="36.25000000000001cm" y="69.25cm" /><rect fill="white" height="5.0cm" shape-rendering="crispEdges" width="1.6666666666666667cm" x="37.91666666666667cm" y="70.91666666666667cm" /><rect fill="white" height="3.3333333333333335cm" shape-rendering="crispEdges" width="1.6666666666666667cm" x="37.91666666666667cm" y="72.58333333333333cm" /><rect fill="white" height="1.6666666666666667cm" shape-rendering="crispEdges" width="1.6666666666666667cm" x="37.91666666666667cm" y="74.25cm" /><rect fill="white" height="6.666666666666667cm" shape-rendering="crispEdges" width="1.6666666666666667cm" x="39.583333333333336cm" y="70.91666666666667cm" /><rect fill="white" height="5.0cm" shape-rendering="crispEdges" width="1.6666666666666667cm" x="39.583333333333336cm" y="72.58333333333333cm" /><rect fill="white" height="3.3333333333333335cm" shape-rendering="crispEdges" width="1.6666666666666667cm" x="39.583333333333336cm" y="74.25cm" /><rect fill="white" height="1.6666666666666667cm" shape-rendering="crispEdges" width="1.6666666666666667cm" x="39.583333333333336cm" y="75.91666666666667cm" /><rect fill="white" height="1.6666666666666667cm" shape-rendering="crispEdges" width="1.6666666666666667cm" x="41.25cm" y="70.91666666666667cm" /><rect fill="white" height="3.3333333333333335cm" shape-rendering="crispEdges" width="1.6666666666666667cm" x="41.25cm" y="74.25cm" /><rect fill="white" height="1.6666666666666667cm" shape-rendering="crispEdges" width="1.6666666666666667cm" x="41.25cm" y="75.91666666666667cm" /><rect fill="white" height="1.6666666666666667cm" shape-rendering="crispEdges" width="1.6666666666666667cm" x="42.91666666666667cm" y="70.91666666666667cm" /><rect fill="white" height="1.6666666666666667cm" shape-rendering="crispEdges" width="1.6666666666666667cm" x="42.91666666666667cm" y="75.91666666666667cm" /><rect fill="white" height="1.6666666666666667cm" shape-rendering="crispEdges" width="6.666666666666667cm" x="37.91666666666667cm" y="70.91666666666667cm" /><rect fill="white" height="1.6666666666666667cm" shape-rendering="crispEdges" width="5.0cm" x="39.583333333333336cm" y="70.91666666666667cm" /><rect fill="white" height="1.6666666666666667cm" shape-rendering="crispEdges" width="3.3333333333333335cm" x="41.25cm" y="70.91666666666667cm" /><rect fill="white" height="1.6666666666666667cm" shape-rendering="crispEdges" width="1.6666666666666667cm" x="42.91666666666667cm" y="70.91666666666667cm" /><rect fill="white" height="1.6666666666666667cm" shape-rendering="crispEdges" width="3.3333333333333335cm" x="37.91666666666667cm" y="72.58333333333333cm" /><rect fill="white" height="1.6666666666666667cm" shape-rendering="crispEdges" width="1.6666666666666667cm" x="39.583333333333336cm" y="72.58333333333333cm" /><rect fill="white" height="1.6666666666666667cm" shape-rendering="crispEdges" width="5.0cm" x="37.91666666666667cm" y="74.25cm" /><rect fill="white" height="1.6666666666666667cm" shape-rendering="crispEdges" width="3.3333333333333335cm" x="39.583333333333336cm" y="74.25cm" /><rect fill="white" height="1.6666666666666667cm" shape-rendering="crispEdges" width="1.6666666666666667cm" x="41.25cm" y="74.25cm" /><rect fill="white" height="1.6666666666666667cm" shape-rendering="crispEdges" width="5.0cm" x="39.583333333333336cm" y="75.91666666666667cm" /><rect fill="white" height="1.6666666666666667cm" shape-rendering="crispEdges" width="3.3333333333333335cm" x="41.25cm" y="75.91666666666667cm" /><rect fill="white" height="1.6666666666666667cm" shape-rendering="crispEdges" width="1.6666666666666667cm" x="42.91666666666667cm" y="75.91666666666667cm" /><text fill="black" font-family="Arial, Helvetica, sans-serif" font-size="1.6500000000000001cm" shape-rendering="crispEdges" text-anchor="middle" x="41.25cm" y="67.65cm">103</text><rect fill="black" height="16.5cm" shape-rendering="crispEdges" width="16.5cm" x="49.5cm" y="66.0cm" /><rect fill="white" height="16.5cm" shape-rendering="crispEdges" width="16.5cm" x="66.0cm" y="66.0cm" /><rect fill="black" height="10.0cm" shape-rendering="crispEdges" width="10.0cm" x="69.25cm" y="69.25cm" /><rect fill="white" height="5.0cm" shape-rendering="crispEdges" width="1.6666666666666667cm" x="70.91666666666667cm" y="70.91666666666667cm" /><rect fill="white" height="3.3333333333333335cm" shape-rendering="crispEdges" width="1.6666666666666667cm" x="70.91666666666667cm" y="72.58333333333333cm" /><rect fill="white" height="1.6666666666666667cm" shape-rendering="crispEdges" width="1.6666666666666667cm" x="70.91666666666667cm" y="74.25cm" /><rect fill="white" height="3.3333333333333335cm" shape-rendering="crispEdges" width="1.6666666666666667cm" x="72.58333333333333cm" y="70.91666666666667cm" /><rect fill="white" height="1.6666666666666667cm" shape-rendering="crispEdges" width="1.6666666666666667cm" x="72.58333333333333cm" y="72.58333333333333cm" /><rect fill="white" height="1.6666666666666667cm" shape-rendering="crispEdges" width="1.6666666666666667cm" x="72.58333333333333cm" y="75.91666666666667cm" /><rect fill="white" height="6.666666666666667cm" shape-rendering="crispEdges" width="1.6666666666666667cm" x="74.25cm" y="70.91666666666667cm" /><rect fill="white" height="5.0cm" shape-rendering="crispEdges" width="1.6666666666666667cm" x="74.25cm" y="72.58333333333333cm" /><rect fill="white" height="3.3333333333333335cm" shape-rendering="crispEdges" width="1.6666666666666667cm" x="74.25cm" y="74.25cm" /><rect fill="white" height="1.6666666666666667cm" shape-rendering="crispEdges" width="1.6666666666666667cm" x="74.25cm" y="75.91666666666667cm" /><rect fill="white" height="1.6666666666666667cm" shape-rendering="crispEdges" width="1.6666666666666667cm" x="75.91666666666667cm" y="70.91666666666667cm" /><rect fill="white" height="1.6666666666666667cm" shape-rendering="crispEdges" width="6.666666666666667cm" x="70.91666666666667cm" y="70.91666666666667cm" /><rect fill="white" height="1.6666666666666667cm" shape-rendering="crispEdges" width="5.0cm" x="72.58333333333333cm" y="70.91666666666667cm" /><rect fill="white" height="1.6666666666666667cm" shape-rendering="crispEdges" width="3.3333333333333335cm" x="74.25cm" y="70.91666666666667cm" /><rect fill="white" height="1.6666666666666667cm" shape-rendering="crispEdges" width="1.6666666666666667cm" x="75.91666666666667cm" y="70.91666666666667cm" /><rect fill="white" height="1.6666666666666667cm" shape-rendering="crispEdges" width="5.0cm" x="70.91666666666667cm" y="72.58333333333333cm" /><rect fill="white" height="1.6666666666666667cm" shape-rendering="crispEdges" width="3.3333333333333335cm" x="72.58333333333333cm" y="72.58333333333333cm" /><rect fill="white" height="1.6666666666666667cm" shape-rendering="crispEdges" width="1.6666666666666667cm" x="74.25cm" y="72.58333333333333cm" /><rect fill="white" height="1.6666666666666667cm" shape-rendering="crispEdges" width="1.6666666666666667cm" x="70.91666666666667cm" y="74.25cm" /><rect fill="white" height="1.6666666666666667cm" shape-rendering="crispEdges" width="1.6666666666666667cm" x="74.25cm" y="74.25cm" /><rect fill="white" height="1.6666666666666667cm" shape-rendering="crispEdges" width="3.3333333333333335cm" x="72.58333333333333cm" y="75.91666666666667cm" /><rect fill="white" height="1.6666666666666667cm" shape-rendering="crispEdges" width="1.6666666666666667cm" x="74.25cm" y="75.91666666666667cm" /><text fill="black" font-family="Arial, Helvetica, sans-serif" font-size="1.6500000000000001cm" shape-rendering="crispEdges" text-anchor="middle" x="74.25cm" y="67.65cm">104</text><rect fill="black" height="16.5cm" shape-rendering="crispEdges" width="16.5cm" x="82.5cm" y="66.0cm" /><rect fill="black" height="16.5cm" shape-rendering="crispEdges" width="16.5cm" x="0.0cm" y="82.5cm" /><rect fill="white" height="16.5cm" shape-rendering="crispEdges" width="16.5cm" x="16.5cm" y="82.5cm" /><rect fill="black" height="10.0cm" shape-rendering="crispEdges" width="10.0cm" x="19.75cm" y="85.75cm" /><rect fill="white" height="1.6666666666666667cm" shape-rendering="crispEdges" width="1.6666666666666667cm" x="23.083333333333332cm" y="92.41666666666667cm" /><rect fill="white" height="1.6666666666666667cm" shape-rendering="crispEdges" width="1.6666666666666667cm" x="24.75cm" y="90.75000000000001cm" /><rect fill="white" height="1.6666666666666667cm" shape-rendering="crispEdges" width="1.6666666666666667cm" x="26.416666666666664cm" y="92.41666666666667cm" /><rect fill="white" height="1.6666666666666667cm" shape-rendering="crispEdges" width="1.6666666666666667cm" x="24.75cm" y="90.75000000000001cm" /><rect fill="white" height="1.6666666666666667cm" shape-rendering="crispEdges" width="1.6666666666666667cm" x="23.083333333333332cm" y="92.41666666666667cm" /><rect fill="white" height="1.6666666666666667cm" shape-rendering="crispEdges" width="1.6666666666666667cm" x="26.416666666666664cm" y="92.41666666666667cm" /><text fill="black" font-family="Arial, Helvetica, sans-serif" font-size="1.6500000000000001cm" shape-rendering="crispEdges" text-anchor="middle" x="24.75cm" y="84.15cm">105</text><rect fill="black" height="16.5cm" shape-rendering="crispEdges" width="16.5cm" x="33.0cm" y="82.5cm" /><rect fill="white" height="16.5cm" shape-rendering="crispEdges" width="16.5cm" x="49.5cm" y="82.5cm" /><rect fill="black" height="10.0cm" shape-rendering="crispEdges" width="10.0cm" x="52.75cm" y="85.75cm" /><rect fill="white" height="1.6666666666666667cm" shape-rendering="crispEdges" width="1.6666666666666667cm" x="56.08333333333333cm" y="90.75000000000001cm" /><rect fill="white" height="1.6666666666666667cm" shape-rendering="crispEdges" width="1.6666666666666667cm" x="57.75cm" y="92.41666666666667cm" /><rect fill="white" height="1.6666666666666667cm" shape-rendering="crispEdges" width="1.6666666666666667cm" x="59.416666666666664cm" y="92.41666666666667cm" /><rect fill="white" height="1.6666666666666667cm" shape-rendering="crispEdges" width="1.6666666666666667cm" x="56.08333333333333cm" y="90.75000000000001cm" /><rect fill="white" height="1.6666666666666667cm" shape-rendering="crispEdges" width="3.3333333333333335cm" x="57.75cm" y="92.41666666666667cm" /><rect fill="white" height="1.6666666666666667cm" shape-rendering="crispEdges" width="1.6666666666666667cm" x="59.416666666666664cm" y="92.41666666666667cm" /><text fill="black" font-family="Arial, Helvetica, sans-serif" font-size="1.6500000000000001cm" shape-rendering="crispEdges" text-anchor="middle" x="57.75cm" y="84.15cm">106</text><rect fill="black" height="16.5cm" shape-rendering="crispEdges" width="16.5cm" x="66.0cm" y="82.5cm" /><rect fill="white" height="16.5cm" shape-rendering="crispEdges" width="16.5cm" x="82.5cm" y="82.5cm" /><rect fill="black" height="10.0cm" shape-rendering="crispEdges" width="10.0cm" x="85.75cm" y="85.75cm" /><rect fill="white" height="5.0cm" shape-rendering="crispEdges" width="1.6666666666666667cm" x="87.41666666666667cm" y="89.08333333333334cm" /><rect fill="white" height="3.3333333333333335cm" shape-rendering="crispEdges" width="1.6666666666666667cm" x="87.41666666666667cm" y="90.75000000000001cm" /><rect fill="white" height="1.6666666666666667cm" shape-rendering="crispEdges" width="1.6666666666666667cm" x="87.41666666666667cm" y="92.41666666666667cm" /><rect fill="white" height="1.6666666666666667cm" shape-rendering="crispEdges" width="1.6666666666666667cm" x="90.75000000000001cm" y="89.08333333333334cm" /><rect fill="white" height="1.6666666666666667cm" shape-rendering="crispEdges" width="1.6666666666666667cm" x="87.41666666666667cm" y="89.08333333333334cm" /><rect fill="white" height="1.6666666666666667cm" shape-rendering="crispEdges" width="1.6666666666666667cm" x="90.75000000000001cm" y="89.08333333333334cm" /><rect fill="white" height="1.6666666666666667cm" shape-rendering="crispEdges" width="1.6666666666666667cm" x="87.41666666666667cm" y="90.75000000000001cm" /><rect fill="white" height="1.6666666666666667cm" shape-rendering="crispEdges" width="1.6666666666666667cm" x="87.41666666666667cm" y="92.41666666666667cm" /><text fill="black" font-family="Arial, Helvetica, sans-serif" font-size="1.6500000000000001cm" shape-rendering="crispEdges" text-anchor="middle" x="90.75000000000001cm" y="84.15cm">107</text><text fill="white" font-family="Arial, Helvetica, sans-serif" font-size="0.9900000000000001cm" shape-rendering="crispEdges" text-anchor="middle" x="24.75cm" y="1.6500000000000001cm">4X4_250, 0.165, 0.1</text></svg>