<?xml version="1.0" encoding="utf-8"?>
<svg baseProfile="full" height="20.0cm" version="1.1" width="20.0cm" xmlns="http://www.w3.org/2000/svg" xmlns:ev="http://www.w3.org/2001/xml-events" xmlns:xlink="http://www.w3.org/1999/xlink">
	<defs />
	<rect fill="black" height="3.0cm" width="3.0cm" x="1.0000000000000002cm" y="1.0000000000000002cm" />
	<rect fill="white" height="0.375cm" width="0.375cm" x="2.5cm" y="1.3750000000000002cm" />
	<rect fill="white" height="0.375cm" width="0.375cm" x="2.875cm" y="1.3750000000000002cm" />
	<rect fill="white" height="0.375cm" width="0.375cm" x="3.25cm" y="1.3750000000000002cm" />
	<rect fill="white" height="0.375cm" width="0.375cm" x="1.3750000000000002cm" y="1.7500000000000002cm" />
	<rect fill="white" height="0.375cm" width="0.375cm" x="2.875cm" y="1.7500000000000002cm" />
	<rect fill="white" height="0.375cm" width="0.375cm" x="3.25cm" y="1.7500000000000002cm" />
	<rect fill="white" height="0.375cm" width="0.375cm" x="1.3750000000000002cm" y="2.125cm" />
	<rect fill="white" height="0.375cm" width="0.375cm" x="1.7500000000000002cm" y="2.125cm" />
	<rect fill="white" height="0.375cm" width="0.375cm" x="2.5cm" y="2.125cm" />
	<rect fill="white" height="0.375cm" width="0.375cm" x="2.875cm" y="2.125cm" />
	<rect fill="white" height="0.375cm" width="0.375cm" x="3.25cm" y="2.125cm" />
	<rect fill="white" height="0.375cm" width="0.375cm" x="1.7500000000000002cm" y="2.5cm" />
	<rect fill="white" height="0.375cm" width="0.375cm" x="2.125cm" y="2.5cm" />
	<rect fill="white" height="0.375cm" width="0.375cm" x="2.125cm" y="2.875cm" />
	<rect fill="white" height="0.375cm" width="0.375cm" x="2.875cm" y="2.875cm" />
	<rect fill="white" height="0.375cm" width="0.375cm" x="1.3750000000000002cm" y="3.25cm" />
	<rect fill="white" height="0.375cm" width="0.375cm" x="2.5cm" y="3.25cm" />
	<rect fill="white" height="0.375cm" width="0.375cm" x="2.875cm" y="3.25cm" />
	<rect fill="black" height="5.0cm" width="5.0cm" x="5.0cm" y="0.0cm" />
	<rect fill="black" height="3.0cm" width="3.0cm" x="11.000000000000002cm" y="1.0000000000000002cm" />
	<rect fill="white" height="0.375cm" width="0.375cm" x="12.875000000000004cm" y="1.3750000000000002cm" />
	<rect fill="white" height="0.375cm" width="0.375cm" x="13.25cm" y="1.3750000000000002cm" />
	<rect fill="white" height="0.375cm" width="0.375cm" x="11.375000000000002cm" y="1.7500000000000002cm" />
	<rect fill="white" height="0.375cm" width="0.375cm" x="12.125000000000002cm" y="1.7500000000000002cm" />
	<rect fill="white" height="0.375cm" width="0.375cm" x="12.500000000000004cm" y="1.7500000000000002cm" />
	<rect fill="white" height="0.375cm" width="0.375cm" x="12.875000000000004cm" y="1.7500000000000002cm" />
	<rect fill="white" height="0.375cm" width="0.375cm" x="13.25cm" y="1.7500000000000002cm" />
	<rect fill="white" height="0.375cm" width="0.375cm" x="11.375000000000002cm" y="2.125cm" />
	<rect fill="white" height="0.375cm" width="0.375cm" x="12.125000000000002cm" y="2.125cm" />
	<rect fill="white" height="0.375cm" width="0.375cm" x="12.500000000000004cm" y="2.125cm" />
	<rect fill="white" height="0.375cm" width="0.375cm" x="12.875000000000004cm" y="2.125cm" />
	<rect fill="white" height="0.375cm" width="0.375cm" x="11.375000000000002cm" y="2.5cm" />
	<rect fill="white" height="0.375cm" width="0.375cm" x="12.875000000000004cm" y="2.5cm" />
	<rect fill="white" height="0.375cm" width="0.375cm" x="13.25cm" y="2.5cm" />
	<rect fill="white" height="0.375cm" width="0.375cm" x="11.375000000000002cm" y="2.875cm" />
	<rect fill="white" height="0.375cm" width="0.375cm" x="12.875000000000004cm" y="2.875cm" />
	<rect fill="white" height="0.375cm" width="0.375cm" x="11.750000000000002cm" y="3.25cm" />
	<rect fill="white" height="0.375cm" width="0.375cm" x="13.25cm" y="3.25cm" />
	<rect fill="black" height="5.0cm" width="5.0cm" x="15.000000000000002cm" y="0.0cm" />
	<rect fill="black" height="5.0cm" width="5.0cm" x="0.0cm" y="5.0cm" />
	<rect fill="black" height="3.0cm" width="3.0cm" x="6.000000000000001cm" y="6.000000000000001cm" />
	<rect fill="white" height="0.375cm" width="0.375cm" x="7.5cm" y="6.375cm" />
	<rect fill="white" height="0.375cm" width="0.375cm" x="8.25cm" y="6.375cm" />
	<rect fill="white" height="0.375cm" width="0.375cm" x="6.75cm" y="6.75cm" />
	<rect fill="white" height="0.375cm" width="0.375cm" x="7.125000000000001cm" y="6.75cm" />
	<rect fill="white" height="0.375cm" width="0.375cm" x="8.25cm" y="6.75cm" />
	<rect fill="white" height="0.375cm" width="0.375cm" x="8.25cm" y="7.125000000000001cm" />
	<rect fill="white" height="0.375cm" width="0.375cm" x="6.375cm" y="7.5cm" />
	<rect fill="white" height="0.375cm" width="0.375cm" x="6.75cm" y="7.5cm" />
	<rect fill="white" height="0.375cm" width="0.375cm" x="7.125000000000001cm" y="7.5cm" />
	<rect fill="white" height="0.375cm" width="0.375cm" x="7.5cm" y="7.5cm" />
	<rect fill="white" height="0.375cm" width="0.375cm" x="7.875cm" y="7.5cm" />
	<rect fill="white" height="0.375cm" width="0.375cm" x="6.375cm" y="7.875cm" />
	<rect fill="white" height="0.375cm" width="0.375cm" x="7.125000000000001cm" y="7.875cm" />
	<rect fill="white" height="0.375cm" width="0.375cm" x="7.875cm" y="7.875cm" />
	<rect fill="white" height="0.375cm" width="0.375cm" x="8.25cm" y="7.875cm" />
	<rect fill="white" height="0.375cm" width="0.375cm" x="7.125000000000001cm" y="8.25cm" />
	<rect fill="white" height="0.375cm" width="0.375cm" x="7.5cm" y="8.25cm" />
	<rect fill="white" height="0.375cm" width="0.375cm" x="8.25cm" y="8.25cm" />
	<rect fill="black" height="5.0cm" width="5.0cm" x="10.0cm" y="5.0cm" />
	<rect fill="black" height="3.0cm" width="3.0cm" x="16.000000000000004cm" y="6.000000000000001cm" />
	<rect fill="white" height="0.375cm" width="0.375cm" x="16.375000000000004cm" y="6.375cm" />
	<rect fill="white" height="0.375cm" width="0.375cm" x="16.750000000000004cm" y="6.375cm" />
	<rect fill="white" height="0.375cm" width="0.375cm" x="17.875000000000004cm" y="6.375cm" />
	<rect fill="white" height="0.375cm" width="0.375cm" x="16.750000000000004cm" y="6.75cm" />
	<rect fill="white" height="0.375cm" width="0.375cm" x="18.250000000000004cm" y="6.75cm" />
	<rect fill="white" height="0.375cm" width="0.375cm" x="16.375000000000004cm" y="7.125000000000001cm" />
	<rect fill="white" height="0.375cm" width="0.375cm" x="17.125000000000004cm" y="7.125000000000001cm" />
	<rect fill="white" height="0.375cm" width="0.375cm" x="17.500000000000004cm" y="7.125000000000001cm" />
	<rect fill="white" height="0.375cm" width="0.375cm" x="16.375000000000004cm" y="7.5cm" />
	<rect fill="white" height="0.375cm" width="0.375cm" x="16.750000000000004cm" y="7.5cm" />
	<rect fill="white" height="0.375cm" width="0.375cm" x="16.750000000000004cm" y="7.875cm" />
	<rect fill="white" height="0.375cm" width="0.375cm" x="17.125000000000004cm" y="7.875cm" />
	<rect fill="white" height="0.375cm" width="0.375cm" x="17.875000000000004cm" y="7.875cm" />
	<rect fill="white" height="0.375cm" width="0.375cm" x="16.750000000000004cm" y="8.25cm" />
	<rect fill="white" height="0.375cm" width="0.375cm" x="17.125000000000004cm" y="8.25cm" />
	<rect fill="white" height="0.375cm" width="0.375cm" x="17.500000000000004cm" y="8.25cm" />
	<rect fill="white" height="0.375cm" width="0.375cm" x="17.875000000000004cm" y="8.25cm" />
	<rect fill="black" height="3.0cm" width="3.0cm" x="1.0000000000000002cm" y="11.000000000000002cm" />
	<rect fill="white" height="0.375cm" width="0.375cm" x="1.3750000000000002cm" y="11.375000000000002cm" />
	<rect fill="white" height="0.375cm" width="0.375cm" x="1.7500000000000002cm" y="11.375000000000002cm" />
	<rect fill="white" height="0.375cm" width="0.375cm" x="2.5cm" y="11.375000000000002cm" />
	<rect fill="white" height="0.375cm" width="0.375cm" x="3.25cm" y="11.375000000000002cm" />
	<rect fill="white" height="0.375cm" width="0.375cm" x="1.3750000000000002cm" y="11.750000000000002cm" />
	<rect fill="white" height="0.375cm" width="0.375cm" x="1.7500000000000002cm" y="12.125000000000002cm" />
	<rect fill="white" height="0.375cm" width="0.375cm" x="2.125cm" y="12.125000000000002cm" />
	<rect fill="white" height="0.375cm" width="0.375cm" x="2.5cm" y="12.125000000000002cm" />
	<rect fill="white" height="0.375cm" width="0.375cm" x="2.875cm" y="12.125000000000002cm" />
	<rect fill="white" height="0.375cm" width="0.375cm" x="3.25cm" y="12.125000000000002cm" />
	<rect fill="white" height="0.375cm" width="0.375cm" x="1.7500000000000002cm" y="12.500000000000004cm" />
	<rect fill="white" height="0.375cm" width="0.375cm" x="2.5cm" y="12.500000000000004cm" />
	<rect fill="white" height="0.375cm" width="0.375cm" x="2.875cm" y="12.500000000000004cm" />
	<rect fill="white" height="0.375cm" width="0.375cm" x="1.3750000000000002cm" y="12.875000000000004cm" />
	<rect fill="white" height="0.375cm" width="0.375cm" x="1.7500000000000002cm" y="12.875000000000004cm" />
	<rect fill="white" height="0.375cm" width="0.375cm" x="2.125cm" y="12.875000000000004cm" />
	<rect fill="white" height="0.375cm" width="0.375cm" x="1.7500000000000002cm" y="13.25cm" />
	<rect fill="white" height="0.375cm" width="0.375cm" x="2.5cm" y="13.25cm" />
	<rect fill="white" height="0.375cm" width="0.375cm" x="3.25cm" y="13.25cm" />
	<rect fill="black" height="5.0cm" width="5.0cm" x="5.0cm" y="10.0cm" />
	<rect fill="black" height="3.0cm" width="3.0cm" x="11.000000000000002cm" y="11.000000000000002cm" />
	<rect fill="white" height="0.375cm" width="0.375cm" x="11.375000000000002cm" y="11.375000000000002cm" />
	<rect fill="white" height="0.375cm" width="0.375cm" x="11.750000000000002cm" y="11.375000000000002cm" />
	<rect fill="white" height="0.375cm" width="0.375cm" x="12.500000000000004cm" y="11.375000000000002cm" />
	<rect fill="white" height="0.375cm" width="0.375cm" x="12.875000000000004cm" y="11.375000000000002cm" />
	<rect fill="white" height="0.375cm" width="0.375cm" x="12.125000000000002cm" y="11.750000000000002cm" />
	<rect fill="white" height="0.375cm" width="0.375cm" x="12.500000000000004cm" y="11.750000000000002cm" />
	<rect fill="white" height="0.375cm" width="0.375cm" x="12.875000000000004cm" y="11.750000000000002cm" />
	<rect fill="white" height="0.375cm" width="0.375cm" x="11.375000000000002cm" y="12.125000000000002cm" />
	<rect fill="white" height="0.375cm" width="0.375cm" x="12.875000000000004cm" y="12.125000000000002cm" />
	<rect fill="white" height="0.375cm" width="0.375cm" x="13.25cm" y="12.125000000000002cm" />
	<rect fill="white" height="0.375cm" width="0.375cm" x="11.375000000000002cm" y="12.500000000000004cm" />
	<rect fill="white" height="0.375cm" width="0.375cm" x="11.375000000000002cm" y="12.875000000000004cm" />
	<rect fill="white" height="0.375cm" width="0.375cm" x="11.750000000000002cm" y="12.875000000000004cm" />
	<rect fill="white" height="0.375cm" width="0.375cm" x="12.125000000000002cm" y="12.875000000000004cm" />
	<rect fill="white" height="0.375cm" width="0.375cm" x="13.25cm" y="12.875000000000004cm" />
	<rect fill="white" height="0.375cm" width="0.375cm" x="11.375000000000002cm" y="13.25cm" />
	<rect fill="white" height="0.375cm" width="0.375cm" x="12.125000000000002cm" y="13.25cm" />
	<rect fill="black" height="5.0cm" width="5.0cm" x="15.000000000000002cm" y="10.0cm" />
	<rect fill="black" height="5.0cm" width="5.0cm" x="0.0cm" y="15.000000000000002cm" />
	<rect fill="black" height="3.0cm" width="3.0cm" x="6.000000000000001cm" y="16.000000000000004cm" />
	<rect fill="white" height="0.375cm" width="0.375cm" x="6.75cm" y="16.375000000000004cm" />
	<rect fill="white" height="0.375cm" width="0.375cm" x="6.375cm" y="16.750000000000004cm" />
	<rect fill="white" height="0.375cm" width="0.375cm" x="7.5cm" y="16.750000000000004cm" />
	<rect fill="white" height="0.375cm" width="0.375cm" x="7.875cm" y="16.750000000000004cm" />
	<rect fill="white" height="0.375cm" width="0.375cm" x="6.375cm" y="17.125000000000004cm" />
	<rect fill="white" height="0.375cm" width="0.375cm" x="7.875cm" y="17.125000000000004cm" />
	<rect fill="white" height="0.375cm" width="0.375cm" x="6.375cm" y="17.500000000000004cm" />
	<rect fill="white" height="0.375cm" width="0.375cm" x="6.75cm" y="17.500000000000004cm" />
	<rect fill="white" height="0.375cm" width="0.375cm" x="7.5cm" y="17.500000000000004cm" />
	<rect fill="white" height="0.375cm" width="0.375cm" x="7.5cm" y="17.875000000000004cm" />
	<rect fill="white" height="0.375cm" width="0.375cm" x="7.875cm" y="17.875000000000004cm" />
	<rect fill="white" height="0.375cm" width="0.375cm" x="8.25cm" y="17.875000000000004cm" />
	<rect fill="white" height="0.375cm" width="0.375cm" x="6.375cm" y="18.250000000000004cm" />
	<rect fill="white" height="0.375cm" width="0.375cm" x="6.75cm" y="18.250000000000004cm" />
	<rect fill="white" height="0.375cm" width="0.375cm" x="7.5cm" y="18.250000000000004cm" />
	<rect fill="white" height="0.375cm" width="0.375cm" x="8.25cm" y="18.250000000000004cm" />
	<rect fill="black" height="5.0cm" width="5.0cm" x="10.0cm" y="15.000000000000002cm" />
	<rect fill="black" height="3.0cm" width="3.0cm" x="16.000000000000004cm" y="16.000000000000004cm" />
	<rect fill="white" height="0.375cm" width="0.375cm" x="16.375000000000004cm" y="16.375000000000004cm" />
	<rect fill="white" height="0.375cm" width="0.375cm" x="17.875000000000004cm" y="16.375000000000004cm" />
	<rect fill="white" height="0.375cm" width="0.375cm" x="17.125000000000004cm" y="16.750000000000004cm" />
	<rect fill="white" height="0.375cm" width="0.375cm" x="17.875000000000004cm" y="16.750000000000004cm" />
	<rect fill="white" height="0.375cm" width="0.375cm" x="16.750000000000004cm" y="17.125000000000004cm" />
	<rect fill="white" height="0.375cm" width="0.375cm" x="17.500000000000004cm" y="17.125000000000004cm" />
	<rect fill="white" height="0.375cm" width="0.375cm" x="17.125000000000004cm" y="17.500000000000004cm" />
	<rect fill="white" height="0.375cm" width="0.375cm" x="17.500000000000004cm" y="17.500000000000004cm" />
	<rect fill="white" height="0.375cm" width="0.375cm" x="17.875000000000004cm" y="17.500000000000004cm" />
	<rect fill="white" height="0.375cm" width="0.375cm" x="18.250000000000004cm" y="17.500000000000004cm" />
	<rect fill="white" height="0.375cm" width="0.375cm" x="17.125000000000004cm" y="17.875000000000004cm" />
	<rect fill="white" height="0.375cm" width="0.375cm" x="17.875000000000004cm" y="17.875000000000004cm" />
	<rect fill="white" height="0.375cm" width="0.375cm" x="16.750000000000004cm" y="18.250000000000004cm" />
	<rect fill="white" height="0.375cm" width="0.375cm" x="17.125000000000004cm" y="18.250000000000004cm" />
	<rect fill="white" height="0.375cm" width="0.375cm" x="17.875000000000004cm" y="18.250000000000004cm" />
</svg>
