<?xml version="1.0" encoding="utf-8" ?>
<svg baseProfile="full" height="36.08cm" version="1.1" width="53.67999999999999cm" xmlns="http://www.w3.org/2000/svg" xmlns:ev="http://www.w3.org/2001/xml-events" xmlns:xlink="http://www.w3.org/1999/xlink"><defs /><circle cx="0.44cm" cy="0.44cm" fill="none" r="0.3111269837220809cm" shape-rendering="crispEdges" stroke="black" stroke-width="1" /><circle cx="53.239999999999995cm" cy="0.44cm" fill="none" r="0.3111269837220809cm" shape-rendering="crispEdges" stroke="black" stroke-width="1" /><circle cx="0.44cm" cy="35.63999999999999cm" fill="none" r="0.3111269837220809cm" shape-rendering="crispEdges" stroke="black" stroke-width="1" /><circle cx="53.239999999999995cm" cy="35.63999999999999cm" fill="none" r="0.3111269837220809cm" shape-rendering="crispEdges" stroke="black" stroke-width="1" /><rect fill="white" height="8.799999999999999cm" shape-rendering="crispEdges" width="8.799999999999999cm" x="0.44cm" y="0.44cm" /><rect fill="black" height="5.4cm" shape-rendering="crispEdges" width="5.4cm" x="2.1399999999999997cm" y="2.1399999999999997cm" /><rect fill="white" height="0.8999999999999999cm" shape-rendering="crispEdges" width="0.8999999999999999cm" x="3.0399999999999996cm" y="3.0399999999999996cm" /><rect fill="white" height="0.8999999999999999cm" shape-rendering="crispEdges" width="0.8999999999999999cm" x="3.94cm" y="3.94cm" /><rect fill="white" height="0.8999999999999999cm" shape-rendering="crispEdges" width="0.8999999999999999cm" x="4.84cm" y="3.0399999999999996cm" /><rect fill="white" height="1.7999999999999998cm" shape-rendering="crispEdges" width="0.8999999999999999cm" x="4.84cm" y="4.84cm" /><rect fill="white" height="0.8999999999999999cm" shape-rendering="crispEdges" width="0.8999999999999999cm" x="4.84cm" y="5.739999999999999cm" /><rect fill="white" height="2.6999999999999997cm" shape-rendering="crispEdges" width="0.8999999999999999cm" x="5.739999999999999cm" y="3.0399999999999996cm" /><rect fill="white" height="1.7999999999999998cm" shape-rendering="crispEdges" width="0.8999999999999999cm" x="5.739999999999999cm" y="3.94cm" /><rect fill="white" height="0.8999999999999999cm" shape-rendering="crispEdges" width="0.8999999999999999cm" x="5.739999999999999cm" y="4.84cm" /><rect fill="white" height="0.8999999999999999cm" shape-rendering="crispEdges" width="0.8999999999999999cm" x="3.0399999999999996cm" y="3.0399999999999996cm" /><rect fill="white" height="0.8999999999999999cm" shape-rendering="crispEdges" width="1.7999999999999998cm" x="4.84cm" y="3.0399999999999996cm" /><rect fill="white" height="0.8999999999999999cm" shape-rendering="crispEdges" width="0.8999999999999999cm" x="5.739999999999999cm" y="3.0399999999999996cm" /><rect fill="white" height="0.8999999999999999cm" shape-rendering="crispEdges" width="0.8999999999999999cm" x="3.94cm" y="3.94cm" /><rect fill="white" height="0.8999999999999999cm" shape-rendering="crispEdges" width="0.8999999999999999cm" x="5.739999999999999cm" y="3.94cm" /><rect fill="white" height="0.8999999999999999cm" shape-rendering="crispEdges" width="1.7999999999999998cm" x="4.84cm" y="4.84cm" /><rect fill="white" height="0.8999999999999999cm" shape-rendering="crispEdges" width="0.8999999999999999cm" x="5.739999999999999cm" y="4.84cm" /><rect fill="white" height="0.8999999999999999cm" shape-rendering="crispEdges" width="0.8999999999999999cm" x="4.84cm" y="5.739999999999999cm" /><text fill="black" font-family="Arial, Helvetica, sans-serif" font-size="0.88cm" shape-rendering="crispEdges" text-anchor="middle" x="4.84cm" y="1.32cm">0</text><rect fill="black" height="8.799999999999999cm" shape-rendering="crispEdges" width="8.799999999999999cm" x="9.24cm" y="0.44cm" /><rect fill="white" height="8.799999999999999cm" shape-rendering="crispEdges" width="8.799999999999999cm" x="18.04cm" y="0.44cm" /><rect fill="black" height="5.4cm" shape-rendering="crispEdges" width="5.4cm" x="19.739999999999995cm" y="2.1399999999999997cm" /><rect fill="white" height="2.6999999999999997cm" shape-rendering="crispEdges" width="0.8999999999999999cm" x="20.639999999999997cm" y="3.94cm" /><rect fill="white" height="1.7999999999999998cm" shape-rendering="crispEdges" width="0.8999999999999999cm" x="20.639999999999997cm" y="4.84cm" /><rect fill="white" height="0.8999999999999999cm" shape-rendering="crispEdges" width="0.8999999999999999cm" x="20.639999999999997cm" y="5.739999999999999cm" /><rect fill="white" height="0.8999999999999999cm" shape-rendering="crispEdges" width="0.8999999999999999cm" x="21.539999999999996cm" y="3.94cm" /><rect fill="white" height="0.8999999999999999cm" shape-rendering="crispEdges" width="0.8999999999999999cm" x="22.439999999999998cm" y="3.94cm" /><rect fill="white" height="0.8999999999999999cm" shape-rendering="crispEdges" width="0.8999999999999999cm" x="22.439999999999998cm" y="5.739999999999999cm" /><rect fill="white" height="1.7999999999999998cm" shape-rendering="crispEdges" width="0.8999999999999999cm" x="23.339999999999996cm" y="3.94cm" /><rect fill="white" height="0.8999999999999999cm" shape-rendering="crispEdges" width="0.8999999999999999cm" x="23.339999999999996cm" y="4.84cm" /><rect fill="white" height="0.8999999999999999cm" shape-rendering="crispEdges" width="3.5999999999999996cm" x="20.639999999999997cm" y="3.94cm" /><rect fill="white" height="0.8999999999999999cm" shape-rendering="crispEdges" width="2.6999999999999997cm" x="21.539999999999996cm" y="3.94cm" /><rect fill="white" height="0.8999999999999999cm" shape-rendering="crispEdges" width="1.7999999999999998cm" x="22.439999999999998cm" y="3.94cm" /><rect fill="white" height="0.8999999999999999cm" shape-rendering="crispEdges" width="0.8999999999999999cm" x="23.339999999999996cm" y="3.94cm" /><rect fill="white" height="0.8999999999999999cm" shape-rendering="crispEdges" width="0.8999999999999999cm" x="20.639999999999997cm" y="4.84cm" /><rect fill="white" height="0.8999999999999999cm" shape-rendering="crispEdges" width="0.8999999999999999cm" x="23.339999999999996cm" y="4.84cm" /><rect fill="white" height="0.8999999999999999cm" shape-rendering="crispEdges" width="0.8999999999999999cm" x="20.639999999999997cm" y="5.739999999999999cm" /><rect fill="white" height="0.8999999999999999cm" shape-rendering="crispEdges" width="0.8999999999999999cm" x="22.439999999999998cm" y="5.739999999999999cm" /><text fill="black" font-family="Arial, Helvetica, sans-serif" font-size="0.88cm" shape-rendering="crispEdges" text-anchor="middle" x="22.439999999999998cm" y="1.32cm">1</text><rect fill="black" height="8.799999999999999cm" shape-rendering="crispEdges" width="8.799999999999999cm" x="26.839999999999996cm" y="0.44cm" /><rect fill="white" height="8.799999999999999cm" shape-rendering="crispEdges" width="8.799999999999999cm" x="35.63999999999999cm" y="0.44cm" /><rect fill="black" height="5.4cm" shape-rendering="crispEdges" width="5.4cm" x="37.339999999999996cm" y="2.1399999999999997cm" /><rect fill="white" height="0.8999999999999999cm" shape-rendering="crispEdges" width="0.8999999999999999cm" x="38.239999999999995cm" y="5.739999999999999cm" /><rect fill="white" height="0.8999999999999999cm" shape-rendering="crispEdges" width="0.8999999999999999cm" x="39.14cm" y="5.739999999999999cm" /><rect fill="white" height="2.6999999999999997cm" shape-rendering="crispEdges" width="0.8999999999999999cm" x="40.04cm" y="3.0399999999999996cm" /><rect fill="white" height="1.7999999999999998cm" shape-rendering="crispEdges" width="0.8999999999999999cm" x="40.04cm" y="3.94cm" /><rect fill="white" height="0.8999999999999999cm" shape-rendering="crispEdges" width="0.8999999999999999cm" x="40.04cm" y="4.84cm" /><rect fill="white" height="1.7999999999999998cm" shape-rendering="crispEdges" width="0.8999999999999999cm" x="40.93999999999999cm" y="3.0399999999999996cm" /><rect fill="white" height="0.8999999999999999cm" shape-rendering="crispEdges" width="0.8999999999999999cm" x="40.93999999999999cm" y="3.94cm" /><rect fill="white" height="0.8999999999999999cm" shape-rendering="crispEdges" width="0.8999999999999999cm" x="40.93999999999999cm" y="5.739999999999999cm" /><rect fill="white" height="0.8999999999999999cm" shape-rendering="crispEdges" width="1.7999999999999998cm" x="40.04cm" y="3.0399999999999996cm" /><rect fill="white" height="0.8999999999999999cm" shape-rendering="crispEdges" width="0.8999999999999999cm" x="40.93999999999999cm" y="3.0399999999999996cm" /><rect fill="white" height="0.8999999999999999cm" shape-rendering="crispEdges" width="1.7999999999999998cm" x="40.04cm" y="3.94cm" /><rect fill="white" height="0.8999999999999999cm" shape-rendering="crispEdges" width="0.8999999999999999cm" x="40.93999999999999cm" y="3.94cm" /><rect fill="white" height="0.8999999999999999cm" shape-rendering="crispEdges" width="0.8999999999999999cm" x="40.04cm" y="4.84cm" /><rect fill="white" height="0.8999999999999999cm" shape-rendering="crispEdges" width="1.7999999999999998cm" x="38.239999999999995cm" y="5.739999999999999cm" /><rect fill="white" height="0.8999999999999999cm" shape-rendering="crispEdges" width="0.8999999999999999cm" x="39.14cm" y="5.739999999999999cm" /><rect fill="white" height="0.8999999999999999cm" shape-rendering="crispEdges" width="0.8999999999999999cm" x="40.93999999999999cm" y="5.739999999999999cm" /><text fill="black" font-family="Arial, Helvetica, sans-serif" font-size="0.88cm" shape-rendering="crispEdges" text-anchor="middle" x="40.04cm" y="1.32cm">2</text><rect fill="black" height="8.799999999999999cm" shape-rendering="crispEdges" width="8.799999999999999cm" x="44.44cm" y="0.44cm" /><rect fill="black" height="8.799999999999999cm" shape-rendering="crispEdges" width="8.799999999999999cm" x="0.44cm" y="9.24cm" /><rect fill="white" height="8.799999999999999cm" shape-rendering="crispEdges" width="8.799999999999999cm" x="9.24cm" y="9.24cm" /><rect fill="black" height="5.4cm" shape-rendering="crispEdges" width="5.4cm" x="10.94cm" y="10.94cm" /><rect fill="white" height="1.7999999999999998cm" shape-rendering="crispEdges" width="0.8999999999999999cm" x="11.84cm" y="11.84cm" /><rect fill="white" height="0.8999999999999999cm" shape-rendering="crispEdges" width="0.8999999999999999cm" x="11.84cm" y="12.739999999999998cm" /><rect fill="white" height="1.7999999999999998cm" shape-rendering="crispEdges" width="0.8999999999999999cm" x="12.739999999999998cm" y="13.639999999999999cm" /><rect fill="white" height="0.8999999999999999cm" shape-rendering="crispEdges" width="0.8999999999999999cm" x="12.739999999999998cm" y="14.540000000000001cm" /><rect fill="white" height="0.8999999999999999cm" shape-rendering="crispEdges" width="0.8999999999999999cm" x="13.639999999999999cm" y="14.540000000000001cm" /><rect fill="white" height="1.7999999999999998cm" shape-rendering="crispEdges" width="0.8999999999999999cm" x="14.540000000000001cm" y="11.84cm" /><rect fill="white" height="0.8999999999999999cm" shape-rendering="crispEdges" width="0.8999999999999999cm" x="14.540000000000001cm" y="12.739999999999998cm" /><rect fill="white" height="0.8999999999999999cm" shape-rendering="crispEdges" width="0.8999999999999999cm" x="11.84cm" y="11.84cm" /><rect fill="white" height="0.8999999999999999cm" shape-rendering="crispEdges" width="0.8999999999999999cm" x="14.540000000000001cm" y="11.84cm" /><rect fill="white" height="0.8999999999999999cm" shape-rendering="crispEdges" width="0.8999999999999999cm" x="11.84cm" y="12.739999999999998cm" /><rect fill="white" height="0.8999999999999999cm" shape-rendering="crispEdges" width="0.8999999999999999cm" x="14.540000000000001cm" y="12.739999999999998cm" /><rect fill="white" height="0.8999999999999999cm" shape-rendering="crispEdges" width="0.8999999999999999cm" x="12.739999999999998cm" y="13.639999999999999cm" /><rect fill="white" height="0.8999999999999999cm" shape-rendering="crispEdges" width="1.7999999999999998cm" x="12.739999999999998cm" y="14.540000000000001cm" /><rect fill="white" height="0.8999999999999999cm" shape-rendering="crispEdges" width="0.8999999999999999cm" x="13.639999999999999cm" y="14.540000000000001cm" /><text fill="black" font-family="Arial, Helvetica, sans-serif" font-size="0.88cm" shape-rendering="crispEdges" text-anchor="middle" x="13.639999999999999cm" y="10.120000000000001cm">3</text><rect fill="black" height="8.799999999999999cm" shape-rendering="crispEdges" width="8.799999999999999cm" x="18.04cm" y="9.24cm" /><rect fill="white" height="8.799999999999999cm" shape-rendering="crispEdges" width="8.799999999999999cm" x="26.839999999999996cm" y="9.24cm" /><rect fill="black" height="5.4cm" shape-rendering="crispEdges" width="5.4cm" x="28.54cm" y="10.94cm" /><rect fill="white" height="1.7999999999999998cm" shape-rendering="crispEdges" width="0.8999999999999999cm" x="29.439999999999998cm" y="13.639999999999999cm" /><rect fill="white" height="0.8999999999999999cm" shape-rendering="crispEdges" width="0.8999999999999999cm" x="29.439999999999998cm" y="14.540000000000001cm" /><rect fill="white" height="1.7999999999999998cm" shape-rendering="crispEdges" width="0.8999999999999999cm" x="30.34cm" y="11.84cm" /><rect fill="white" height="0.8999999999999999cm" shape-rendering="crispEdges" width="0.8999999999999999cm" x="30.34cm" y="12.739999999999998cm" /><rect fill="white" height="0.8999999999999999cm" shape-rendering="crispEdges" width="0.8999999999999999cm" x="30.34cm" y="14.540000000000001cm" /><rect fill="white" height="0.8999999999999999cm" shape-rendering="crispEdges" width="0.8999999999999999cm" x="31.240000000000002cm" y="14.540000000000001cm" /><rect fill="white" height="0.8999999999999999cm" shape-rendering="crispEdges" width="0.8999999999999999cm" x="32.13999999999999cm" y="11.84cm" /><rect fill="white" height="0.8999999999999999cm" shape-rendering="crispEdges" width="0.8999999999999999cm" x="32.13999999999999cm" y="13.639999999999999cm" /><rect fill="white" height="0.8999999999999999cm" shape-rendering="crispEdges" width="0.8999999999999999cm" x="30.34cm" y="11.84cm" /><rect fill="white" height="0.8999999999999999cm" shape-rendering="crispEdges" width="0.8999999999999999cm" x="32.13999999999999cm" y="11.84cm" /><rect fill="white" height="0.8999999999999999cm" shape-rendering="crispEdges" width="0.8999999999999999cm" x="30.34cm" y="12.739999999999998cm" /><rect fill="white" height="0.8999999999999999cm" shape-rendering="crispEdges" width="0.8999999999999999cm" x="29.439999999999998cm" y="13.639999999999999cm" /><rect fill="white" height="0.8999999999999999cm" shape-rendering="crispEdges" width="0.8999999999999999cm" x="32.13999999999999cm" y="13.639999999999999cm" /><rect fill="white" height="0.8999999999999999cm" shape-rendering="crispEdges" width="2.6999999999999997cm" x="29.439999999999998cm" y="14.540000000000001cm" /><rect fill="white" height="0.8999999999999999cm" shape-rendering="crispEdges" width="1.7999999999999998cm" x="30.34cm" y="14.540000000000001cm" /><rect fill="white" height="0.8999999999999999cm" shape-rendering="crispEdges" width="0.8999999999999999cm" x="31.240000000000002cm" y="14.540000000000001cm" /><text fill="black" font-family="Arial, Helvetica, sans-serif" font-size="0.88cm" shape-rendering="crispEdges" text-anchor="middle" x="31.239999999999995cm" y="10.120000000000001cm">4</text><rect fill="black" height="8.799999999999999cm" shape-rendering="crispEdges" width="8.799999999999999cm" x="35.63999999999999cm" y="9.24cm" /><rect fill="white" height="8.799999999999999cm" shape-rendering="crispEdges" width="8.799999999999999cm" x="44.44cm" y="9.24cm" /><rect fill="black" height="5.4cm" shape-rendering="crispEdges" width="5.4cm" x="46.14cm" y="10.94cm" /><rect fill="white" height="2.6999999999999997cm" shape-rendering="crispEdges" width="0.8999999999999999cm" x="47.04cm" y="12.739999999999998cm" /><rect fill="white" height="1.7999999999999998cm" shape-rendering="crispEdges" width="0.8999999999999999cm" x="47.04cm" y="13.639999999999999cm" /><rect fill="white" height="0.8999999999999999cm" shape-rendering="crispEdges" width="0.8999999999999999cm" x="47.04cm" y="14.540000000000001cm" /><rect fill="white" height="0.8999999999999999cm" shape-rendering="crispEdges" width="0.8999999999999999cm" x="47.94cm" y="11.84cm" /><rect fill="white" height="1.7999999999999998cm" shape-rendering="crispEdges" width="0.8999999999999999cm" x="47.94cm" y="13.639999999999999cm" /><rect fill="white" height="0.8999999999999999cm" shape-rendering="crispEdges" width="0.8999999999999999cm" x="47.94cm" y="14.540000000000001cm" /><rect fill="white" height="0.8999999999999999cm" shape-rendering="crispEdges" width="0.8999999999999999cm" x="48.839999999999996cm" y="11.84cm" /><rect fill="white" height="1.7999999999999998cm" shape-rendering="crispEdges" width="0.8999999999999999cm" x="49.739999999999995cm" y="11.84cm" /><rect fill="white" height="0.8999999999999999cm" shape-rendering="crispEdges" width="0.8999999999999999cm" x="49.739999999999995cm" y="12.739999999999998cm" /><rect fill="white" height="0.8999999999999999cm" shape-rendering="crispEdges" width="0.8999999999999999cm" x="49.739999999999995cm" y="14.540000000000001cm" /><rect fill="white" height="0.8999999999999999cm" shape-rendering="crispEdges" width="2.6999999999999997cm" x="47.94cm" y="11.84cm" /><rect fill="white" height="0.8999999999999999cm" shape-rendering="crispEdges" width="1.7999999999999998cm" x="48.839999999999996cm" y="11.84cm" /><rect fill="white" height="0.8999999999999999cm" shape-rendering="crispEdges" width="0.8999999999999999cm" x="49.739999999999995cm" y="11.84cm" /><rect fill="white" height="0.8999999999999999cm" shape-rendering="crispEdges" width="0.8999999999999999cm" x="47.04cm" y="12.739999999999998cm" /><rect fill="white" height="0.8999999999999999cm" shape-rendering="crispEdges" width="0.8999999999999999cm" x="49.739999999999995cm" y="12.739999999999998cm" /><rect fill="white" height="0.8999999999999999cm" shape-rendering="crispEdges" width="1.7999999999999998cm" x="47.04cm" y="13.639999999999999cm" /><rect fill="white" height="0.8999999999999999cm" shape-rendering="crispEdges" width="0.8999999999999999cm" x="47.94cm" y="13.639999999999999cm" /><rect fill="white" height="0.8999999999999999cm" shape-rendering="crispEdges" width="1.7999999999999998cm" x="47.04cm" y="14.540000000000001cm" /><rect fill="white" height="0.8999999999999999cm" shape-rendering="crispEdges" width="0.8999999999999999cm" x="47.94cm" y="14.540000000000001cm" /><rect fill="white" height="0.8999999999999999cm" shape-rendering="crispEdges" width="0.8999999999999999cm" x="49.739999999999995cm" y="14.540000000000001cm" /><text fill="black" font-family="Arial, Helvetica, sans-serif" font-size="0.88cm" shape-rendering="crispEdges" text-anchor="middle" x="48.839999999999996cm" y="10.120000000000001cm">5</text><rect fill="white" height="8.799999999999999cm" shape-rendering="crispEdges" width="8.799999999999999cm" x="0.44cm" y="18.04cm" /><rect fill="black" height="5.4cm" shape-rendering="crispEdges" width="5.4cm" x="2.1399999999999997cm" y="19.739999999999995cm" /><rect fill="white" height="1.7999999999999998cm" shape-rendering="crispEdges" width="0.8999999999999999cm" x="3.0399999999999996cm" y="20.639999999999997cm" /><rect fill="white" height="0.8999999999999999cm" shape-rendering="crispEdges" width="0.8999999999999999cm" x="3.0399999999999996cm" y="21.539999999999996cm" /><rect fill="white" height="0.8999999999999999cm" shape-rendering="crispEdges" width="0.8999999999999999cm" x="3.0399999999999996cm" y="23.339999999999996cm" /><rect fill="white" height="0.8999999999999999cm" shape-rendering="crispEdges" width="0.8999999999999999cm" x="3.94cm" y="21.539999999999996cm" /><rect fill="white" height="0.8999999999999999cm" shape-rendering="crispEdges" width="0.8999999999999999cm" x="3.94cm" y="23.339999999999996cm" /><rect fill="white" height="2.6999999999999997cm" shape-rendering="crispEdges" width="0.8999999999999999cm" x="4.84cm" y="21.539999999999996cm" /><rect fill="white" height="1.7999999999999998cm" shape-rendering="crispEdges" width="0.8999999999999999cm" x="4.84cm" y="22.439999999999998cm" /><rect fill="white" height="0.8999999999999999cm" shape-rendering="crispEdges" width="0.8999999999999999cm" x="4.84cm" y="23.339999999999996cm" /><rect fill="white" height="0.8999999999999999cm" shape-rendering="crispEdges" width="0.8999999999999999cm" x="5.739999999999999cm" y="20.639999999999997cm" /><rect fill="white" height="0.8999999999999999cm" shape-rendering="crispEdges" width="0.8999999999999999cm" x="3.0399999999999996cm" y="20.639999999999997cm" /><rect fill="white" height="0.8999999999999999cm" shape-rendering="crispEdges" width="0.8999999999999999cm" x="5.739999999999999cm" y="20.639999999999997cm" /><rect fill="white" height="0.8999999999999999cm" shape-rendering="crispEdges" width="2.6999999999999997cm" x="3.0399999999999996cm" y="21.539999999999996cm" /><rect fill="white" height="0.8999999999999999cm" shape-rendering="crispEdges" width="1.7999999999999998cm" x="3.94cm" y="21.539999999999996cm" /><rect fill="white" height="0.8999999999999999cm" shape-rendering="crispEdges" width="0.8999999999999999cm" x="4.84cm" y="21.539999999999996cm" /><rect fill="white" height="0.8999999999999999cm" shape-rendering="crispEdges" width="0.8999999999999999cm" x="4.84cm" y="22.439999999999998cm" /><rect fill="white" height="0.8999999999999999cm" shape-rendering="crispEdges" width="2.6999999999999997cm" x="3.0399999999999996cm" y="23.339999999999996cm" /><rect fill="white" height="0.8999999999999999cm" shape-rendering="crispEdges" width="1.7999999999999998cm" x="3.94cm" y="23.339999999999996cm" /><rect fill="white" height="0.8999999999999999cm" shape-rendering="crispEdges" width="0.8999999999999999cm" x="4.84cm" y="23.339999999999996cm" /><text fill="black" font-family="Arial, Helvetica, sans-serif" font-size="0.88cm" shape-rendering="crispEdges" text-anchor="middle" x="4.84cm" y="18.919999999999998cm">6</text><rect fill="black" height="8.799999999999999cm" shape-rendering="crispEdges" width="8.799999999999999cm" x="9.24cm" y="18.04cm" /><rect fill="white" height="8.799999999999999cm" shape-rendering="crispEdges" width="8.799999999999999cm" x="18.04cm" y="18.04cm" /><rect fill="black" height="5.4cm" shape-rendering="crispEdges" width="5.4cm" x="19.739999999999995cm" y="19.739999999999995cm" /><rect fill="white" height="0.8999999999999999cm" shape-rendering="crispEdges" width="0.8999999999999999cm" x="20.639999999999997cm" y="20.639999999999997cm" /><rect fill="white" height="0.8999999999999999cm" shape-rendering="crispEdges" width="0.8999999999999999cm" x="20.639999999999997cm" y="22.439999999999998cm" /><rect fill="white" height="2.6999999999999997cm" shape-rendering="crispEdges" width="0.8999999999999999cm" x="21.539999999999996cm" y="20.639999999999997cm" /><rect fill="white" height="1.7999999999999998cm" shape-rendering="crispEdges" width="0.8999999999999999cm" x="21.539999999999996cm" y="21.539999999999996cm" /><rect fill="white" height="0.8999999999999999cm" shape-rendering="crispEdges" width="0.8999999999999999cm" x="21.539999999999996cm" y="22.439999999999998cm" /><rect fill="white" height="1.7999999999999998cm" shape-rendering="crispEdges" width="0.8999999999999999cm" x="22.439999999999998cm" y="22.439999999999998cm" /><rect fill="white" height="0.8999999999999999cm" shape-rendering="crispEdges" width="0.8999999999999999cm" x="22.439999999999998cm" y="23.339999999999996cm" /><rect fill="white" height="0.8999999999999999cm" shape-rendering="crispEdges" width="0.8999999999999999cm" x="23.339999999999996cm" y="22.439999999999998cm" /><rect fill="white" height="0.8999999999999999cm" shape-rendering="crispEdges" width="1.7999999999999998cm" x="20.639999999999997cm" y="20.639999999999997cm" /><rect fill="white" height="0.8999999999999999cm" shape-rendering="crispEdges" width="0.8999999999999999cm" x="21.539999999999996cm" y="20.639999999999997cm" /><rect fill="white" height="0.8999999999999999cm" shape-rendering="crispEdges" width="0.8999999999999999cm" x="21.539999999999996cm" y="21.539999999999996cm" /><rect fill="white" height="0.8999999999999999cm" shape-rendering="crispEdges" width="3.5999999999999996cm" x="20.639999999999997cm" y="22.439999999999998cm" /><rect fill="white" height="0.8999999999999999cm" shape-rendering="crispEdges" width="2.6999999999999997cm" x="21.539999999999996cm" y="22.439999999999998cm" /><rect fill="white" height="0.8999999999999999cm" shape-rendering="crispEdges" width="1.7999999999999998cm" x="22.439999999999998cm" y="22.439999999999998cm" /><rect fill="white" height="0.8999999999999999cm" shape-rendering="crispEdges" width="0.8999999999999999cm" x="23.339999999999996cm" y="22.439999999999998cm" /><rect fill="white" height="0.8999999999999999cm" shape-rendering="crispEdges" width="0.8999999999999999cm" x="22.439999999999998cm" y="23.339999999999996cm" /><text fill="black" font-family="Arial, Helvetica, sans-serif" font-size="0.88cm" shape-rendering="crispEdges" text-anchor="middle" x="22.439999999999998cm" y="18.919999999999998cm">7</text><rect fill="black" height="8.799999999999999cm" shape-rendering="crispEdges" width="8.799999999999999cm" x="26.839999999999996cm" y="18.04cm" /><rect fill="white" height="8.799999999999999cm" shape-rendering="crispEdges" width="8.799999999999999cm" x="35.63999999999999cm" y="18.04cm" /><rect fill="black" height="5.4cm" shape-rendering="crispEdges" width="5.4cm" x="37.339999999999996cm" y="19.739999999999995cm" /><rect fill="white" height="3.5999999999999996cm" shape-rendering="crispEdges" width="0.8999999999999999cm" x="38.239999999999995cm" y="20.639999999999997cm" /><rect fill="white" height="2.6999999999999997cm" shape-rendering="crispEdges" width="0.8999999999999999cm" x="38.239999999999995cm" y="21.539999999999996cm" /><rect fill="white" height="1.7999999999999998cm" shape-rendering="crispEdges" width="0.8999999999999999cm" x="38.239999999999995cm" y="22.439999999999998cm" /><rect fill="white" height="0.8999999999999999cm" shape-rendering="crispEdges" width="0.8999999999999999cm" x="38.239999999999995cm" y="23.339999999999996cm" /><rect fill="white" height="2.6999999999999997cm" shape-rendering="crispEdges" width="0.8999999999999999cm" x="39.14cm" y="20.639999999999997cm" /><rect fill="white" height="1.7999999999999998cm" shape-rendering="crispEdges" width="0.8999999999999999cm" x="39.14cm" y="21.539999999999996cm" /><rect fill="white" height="0.8999999999999999cm" shape-rendering="crispEdges" width="0.8999999999999999cm" x="39.14cm" y="22.439999999999998cm" /><rect fill="white" height="1.7999999999999998cm" shape-rendering="crispEdges" width="0.8999999999999999cm" x="40.04cm" y="20.639999999999997cm" /><rect fill="white" height="0.8999999999999999cm" shape-rendering="crispEdges" width="0.8999999999999999cm" x="40.04cm" y="21.539999999999996cm" /><rect fill="white" height="0.8999999999999999cm" shape-rendering="crispEdges" width="0.8999999999999999cm" x="40.04cm" y="23.339999999999996cm" /><rect fill="white" height="0.8999999999999999cm" shape-rendering="crispEdges" width="0.8999999999999999cm" x="40.93999999999999cm" y="20.639999999999997cm" /><rect fill="white" height="0.8999999999999999cm" shape-rendering="crispEdges" width="0.8999999999999999cm" x="40.93999999999999cm" y="22.439999999999998cm" /><rect fill="white" height="0.8999999999999999cm" shape-rendering="crispEdges" width="3.5999999999999996cm" x="38.239999999999995cm" y="20.639999999999997cm" /><rect fill="white" height="0.8999999999999999cm" shape-rendering="crispEdges" width="2.6999999999999997cm" x="39.14cm" y="20.639999999999997cm" /><rect fill="white" height="0.8999999999999999cm" shape-rendering="crispEdges" width="1.7999999999999998cm" x="40.04cm" y="20.639999999999997cm" /><rect fill="white" height="0.8999999999999999cm" shape-rendering="crispEdges" width="0.8999999999999999cm" x="40.93999999999999cm" y="20.639999999999997cm" /><rect fill="white" height="0.8999999999999999cm" shape-rendering="crispEdges" width="2.6999999999999997cm" x="38.239999999999995cm" y="21.539999999999996cm" /><rect fill="white" height="0.8999999999999999cm" shape-rendering="crispEdges" width="1.7999999999999998cm" x="39.14cm" y="21.539999999999996cm" /><rect fill="white" height="0.8999999999999999cm" shape-rendering="crispEdges" width="0.8999999999999999cm" x="40.04cm" y="21.539999999999996cm" /><rect fill="white" height="0.8999999999999999cm" shape-rendering="crispEdges" width="1.7999999999999998cm" x="38.239999999999995cm" y="22.439999999999998cm" /><rect fill="white" height="0.8999999999999999cm" shape-rendering="crispEdges" width="0.8999999999999999cm" x="39.14cm" y="22.439999999999998cm" /><rect fill="white" height="0.8999999999999999cm" shape-rendering="crispEdges" width="0.8999999999999999cm" x="40.93999999999999cm" y="22.439999999999998cm" /><rect fill="white" height="0.8999999999999999cm" shape-rendering="crispEdges" width="0.8999999999999999cm" x="38.239999999999995cm" y="23.339999999999996cm" /><rect fill="white" height="0.8999999999999999cm" shape-rendering="crispEdges" width="0.8999999999999999cm" x="40.04cm" y="23.339999999999996cm" /><text fill="black" font-family="Arial, Helvetica, sans-serif" font-size="0.88cm" shape-rendering="crispEdges" text-anchor="middle" x="40.04cm" y="18.919999999999998cm">8</text><rect fill="black" height="8.799999999999999cm" shape-rendering="crispEdges" width="8.799999999999999cm" x="44.44cm" y="18.04cm" /><rect fill="black" height="8.799999999999999cm" shape-rendering="crispEdges" width="8.799999999999999cm" x="0.44cm" y="26.839999999999996cm" /><rect fill="white" height="8.799999999999999cm" shape-rendering="crispEdges" width="8.799999999999999cm" x="9.24cm" y="26.839999999999996cm" /><rect fill="black" height="5.4cm" shape-rendering="crispEdges" width="5.4cm" x="10.94cm" y="28.54cm" /><rect fill="white" height="1.7999999999999998cm" shape-rendering="crispEdges" width="0.8999999999999999cm" x="11.84cm" y="29.439999999999998cm" /><rect fill="white" height="0.8999999999999999cm" shape-rendering="crispEdges" width="0.8999999999999999cm" x="11.84cm" y="30.34cm" /><rect fill="white" height="3.5999999999999996cm" shape-rendering="crispEdges" width="0.8999999999999999cm" x="12.739999999999998cm" y="29.439999999999998cm" /><rect fill="white" height="2.6999999999999997cm" shape-rendering="crispEdges" width="0.8999999999999999cm" x="12.739999999999998cm" y="30.34cm" /><rect fill="white" height="1.7999999999999998cm" shape-rendering="crispEdges" width="0.8999999999999999cm" x="12.739999999999998cm" y="31.240000000000002cm" /><rect fill="white" height="0.8999999999999999cm" shape-rendering="crispEdges" width="0.8999999999999999cm" x="12.739999999999998cm" y="32.13999999999999cm" /><rect fill="white" height="0.8999999999999999cm" shape-rendering="crispEdges" width="0.8999999999999999cm" x="13.639999999999999cm" y="30.34cm" /><rect fill="white" height="0.8999999999999999cm" shape-rendering="crispEdges" width="0.8999999999999999cm" x="13.639999999999999cm" y="32.13999999999999cm" /><rect fill="white" height="1.7999999999999998cm" shape-rendering="crispEdges" width="0.8999999999999999cm" x="14.540000000000001cm" y="30.34cm" /><rect fill="white" height="0.8999999999999999cm" shape-rendering="crispEdges" width="0.8999999999999999cm" x="14.540000000000001cm" y="31.240000000000002cm" /><rect fill="white" height="0.8999999999999999cm" shape-rendering="crispEdges" width="1.7999999999999998cm" x="11.84cm" y="29.439999999999998cm" /><rect fill="white" height="0.8999999999999999cm" shape-rendering="crispEdges" width="0.8999999999999999cm" x="12.739999999999998cm" y="29.439999999999998cm" /><rect fill="white" height="0.8999999999999999cm" shape-rendering="crispEdges" width="3.5999999999999996cm" x="11.84cm" y="30.34cm" /><rect fill="white" height="0.8999999999999999cm" shape-rendering="crispEdges" width="2.6999999999999997cm" x="12.739999999999998cm" y="30.34cm" /><rect fill="white" height="0.8999999999999999cm" shape-rendering="crispEdges" width="1.7999999999999998cm" x="13.639999999999999cm" y="30.34cm" /><rect fill="white" height="0.8999999999999999cm" shape-rendering="crispEdges" width="0.8999999999999999cm" x="14.540000000000001cm" y="30.34cm" /><rect fill="white" height="0.8999999999999999cm" shape-rendering="crispEdges" width="0.8999999999999999cm" x="12.739999999999998cm" y="31.240000000000002cm" /><rect fill="white" height="0.8999999999999999cm" shape-rendering="crispEdges" width="0.8999999999999999cm" x="14.540000000000001cm" y="31.240000000000002cm" /><rect fill="white" height="0.8999999999999999cm" shape-rendering="crispEdges" width="1.7999999999999998cm" x="12.739999999999998cm" y="32.13999999999999cm" /><rect fill="white" height="0.8999999999999999cm" shape-rendering="crispEdges" width="0.8999999999999999cm" x="13.639999999999999cm" y="32.13999999999999cm" /><text fill="black" font-family="Arial, Helvetica, sans-serif" font-size="0.88cm" shape-rendering="crispEdges" text-anchor="middle" x="13.639999999999999cm" y="27.72cm">9</text><rect fill="black" height="8.799999999999999cm" shape-rendering="crispEdges" width="8.799999999999999cm" x="18.04cm" y="26.839999999999996cm" /><rect fill="white" height="8.799999999999999cm" shape-rendering="crispEdges" width="8.799999999999999cm" x="26.839999999999996cm" y="26.839999999999996cm" /><rect fill="black" height="5.4cm" shape-rendering="crispEdges" width="5.4cm" x="28.54cm" y="28.54cm" /><rect fill="white" height="2.6999999999999997cm" shape-rendering="crispEdges" width="0.8999999999999999cm" x="29.439999999999998cm" y="29.439999999999998cm" /><rect fill="white" height="1.7999999999999998cm" shape-rendering="crispEdges" width="0.8999999999999999cm" x="29.439999999999998cm" y="30.34cm" /><rect fill="white" height="0.8999999999999999cm" shape-rendering="crispEdges" width="0.8999999999999999cm" x="29.439999999999998cm" y="31.240000000000002cm" /><rect fill="white" height="0.8999999999999999cm" shape-rendering="crispEdges" width="0.8999999999999999cm" x="30.34cm" y="29.439999999999998cm" /><rect fill="white" height="0.8999999999999999cm" shape-rendering="crispEdges" width="0.8999999999999999cm" x="31.240000000000002cm" y="29.439999999999998cm" /><rect fill="white" height="3.5999999999999996cm" shape-rendering="crispEdges" width="0.8999999999999999cm" x="32.13999999999999cm" y="29.439999999999998cm" /><rect fill="white" height="2.6999999999999997cm" shape-rendering="crispEdges" width="0.8999999999999999cm" x="32.13999999999999cm" y="30.34cm" /><rect fill="white" height="1.7999999999999998cm" shape-rendering="crispEdges" width="0.8999999999999999cm" x="32.13999999999999cm" y="31.240000000000002cm" /><rect fill="white" height="0.8999999999999999cm" shape-rendering="crispEdges" width="0.8999999999999999cm" x="32.13999999999999cm" y="32.13999999999999cm" /><rect fill="white" height="0.8999999999999999cm" shape-rendering="crispEdges" width="3.5999999999999996cm" x="29.439999999999998cm" y="29.439999999999998cm" /><rect fill="white" height="0.8999999999999999cm" shape-rendering="crispEdges" width="2.6999999999999997cm" x="30.34cm" y="29.439999999999998cm" /><rect fill="white" height="0.8999999999999999cm" shape-rendering="crispEdges" width="1.7999999999999998cm" x="31.240000000000002cm" y="29.439999999999998cm" /><rect fill="white" height="0.8999999999999999cm" shape-rendering="crispEdges" width="0.8999999999999999cm" x="32.13999999999999cm" y="29.439999999999998cm" /><rect fill="white" height="0.8999999999999999cm" shape-rendering="crispEdges" width="0.8999999999999999cm" x="29.439999999999998cm" y="30.34cm" /><rect fill="white" height="0.8999999999999999cm" shape-rendering="crispEdges" width="0.8999999999999999cm" x="32.13999999999999cm" y="30.34cm" /><rect fill="white" height="0.8999999999999999cm" shape-rendering="crispEdges" width="0.8999999999999999cm" x="29.439999999999998cm" y="31.240000000000002cm" /><rect fill="white" height="0.8999999999999999cm" shape-rendering="crispEdges" width="0.8999999999999999cm" x="32.13999999999999cm" y="31.240000000000002cm" /><rect fill="white" height="0.8999999999999999cm" shape-rendering="crispEdges" width="0.8999999999999999cm" x="32.13999999999999cm" y="32.13999999999999cm" /><text fill="black" font-family="Arial, Helvetica, sans-serif" font-size="0.88cm" shape-rendering="crispEdges" text-anchor="middle" x="31.239999999999995cm" y="27.72cm">10</text><rect fill="black" height="8.799999999999999cm" shape-rendering="crispEdges" width="8.799999999999999cm" x="35.63999999999999cm" y="26.839999999999996cm" /><rect fill="white" height="8.799999999999999cm" shape-rendering="crispEdges" width="8.799999999999999cm" x="44.44cm" y="26.839999999999996cm" /><rect fill="black" height="5.4cm" shape-rendering="crispEdges" width="5.4cm" x="46.14cm" y="28.54cm" /><rect fill="white" height="0.8999999999999999cm" shape-rendering="crispEdges" width="0.8999999999999999cm" x="47.04cm" y="31.240000000000002cm" /><rect fill="white" height="0.8999999999999999cm" shape-rendering="crispEdges" width="0.8999999999999999cm" x="47.94cm" y="32.13999999999999cm" /><rect fill="white" height="1.7999999999999998cm" shape-rendering="crispEdges" width="0.8999999999999999cm" x="48.839999999999996cm" y="31.240000000000002cm" /><rect fill="white" height="0.8999999999999999cm" shape-rendering="crispEdges" width="0.8999999999999999cm" x="48.839999999999996cm" y="32.13999999999999cm" /><rect fill="white" height="1.7999999999999998cm" shape-rendering="crispEdges" width="0.8999999999999999cm" x="49.739999999999995cm" y="29.439999999999998cm" /><rect fill="white" height="0.8999999999999999cm" shape-rendering="crispEdges" width="0.8999999999999999cm" x="49.739999999999995cm" y="30.34cm" /><rect fill="white" height="0.8999999999999999cm" shape-rendering="crispEdges" width="0.8999999999999999cm" x="49.739999999999995cm" y="32.13999999999999cm" /><rect fill="white" height="0.8999999999999999cm" shape-rendering="crispEdges" width="0.8999999999999999cm" x="49.739999999999995cm" y="29.439999999999998cm" /><rect fill="white" height="0.8999999999999999cm" shape-rendering="crispEdges" width="0.8999999999999999cm" x="49.739999999999995cm" y="30.34cm" /><rect fill="white" height="0.8999999999999999cm" shape-rendering="crispEdges" width="0.8999999999999999cm" x="47.04cm" y="31.240000000000002cm" /><rect fill="white" height="0.8999999999999999cm" shape-rendering="crispEdges" width="0.8999999999999999cm" x="48.839999999999996cm" y="31.240000000000002cm" /><rect fill="white" height="0.8999999999999999cm" shape-rendering="crispEdges" width="2.6999999999999997cm" x="47.94cm" y="32.13999999999999cm" /><rect fill="white" height="0.8999999999999999cm" shape-rendering="crispEdges" width="1.7999999999999998cm" x="48.839999999999996cm" y="32.13999999999999cm" /><rect fill="white" height="0.8999999999999999cm" shape-rendering="crispEdges" width="0.8999999999999999cm" x="49.739999999999995cm" y="32.13999999999999cm" /><text fill="black" font-family="Arial, Helvetica, sans-serif" font-size="0.88cm" shape-rendering="crispEdges" text-anchor="middle" x="48.839999999999996cm" y="27.72cm">11</text><text fill="white" font-family="Arial, Helvetica, sans-serif" font-size="0.528cm" shape-rendering="crispEdges" text-anchor="middle" x="13.639999999999999cm" y="1.32cm">4X4_250, 0.088, 0.054</text><line fill="none" shape-rendering="crispEdges" stroke="black" stroke-width="1" x1="0.0cm" x2="2.6399999999999997cm" y1="0.44cm" y2="0.44cm" /><line fill="none" shape-rendering="crispEdges" stroke="black" stroke-width="1" x1="0.44cm" x2="0.44cm" y1="0.0cm" y2="2.6399999999999997cm" /><line fill="none" shape-rendering="crispEdges" stroke="black" stroke-width="1" x1="53.67999999999999cm" x2="51.04cm" y1="0.44cm" y2="0.44cm" /><line fill="none" shape-rendering="crispEdges" stroke="black" stroke-width="1" x1="53.239999999999995cm" x2="53.239999999999995cm" y1="0.0cm" y2="2.6399999999999997cm" /><line fill="none" shape-rendering="crispEdges" stroke="black" stroke-width="1" x1="0.0cm" x2="2.6399999999999997cm" y1="35.63999999999999cm" y2="35.63999999999999cm" /><line fill="none" shape-rendering="crispEdges" stroke="black" stroke-width="1" x1="0.44cm" x2="0.44cm" y1="36.08cm" y2="33.44cm" /><line fill="none" shape-rendering="crispEdges" stroke="black" stroke-width="1" x1="53.67999999999999cm" x2="51.04cm" y1="35.63999999999999cm" y2="35.63999999999999cm" /><line fill="none" shape-rendering="crispEdges" stroke="black" stroke-width="1" x1="53.239999999999995cm" x2="53.239999999999995cm" y1="36.08cm" y2="33.44cm" /></svg>