<?xml version="1.0" encoding="utf-8" ?>
<svg baseProfile="full" height="35.199999999999996cm" version="1.1" width="52.800000000000004cm" xmlns="http://www.w3.org/2000/svg" xmlns:ev="http://www.w3.org/2001/xml-events" xmlns:xlink="http://www.w3.org/1999/xlink"><defs /><rect fill="white" height="8.799999999999999cm" shape-rendering="crispEdges" width="8.799999999999999cm" x="0.0cm" y="0.0cm" /><rect fill="black" height="5.4cm" shape-rendering="crispEdges" width="5.4cm" x="1.6999999999999997cm" y="1.6999999999999997cm" /><rect fill="white" height="1.7999999999999998cm" shape-rendering="crispEdges" width="0.8999999999999999cm" x="2.5999999999999996cm" y="4.3999999999999995cm" /><rect fill="white" height="0.8999999999999999cm" shape-rendering="crispEdges" width="0.8999999999999999cm" x="2.5999999999999996cm" y="5.299999999999999cm" /><rect fill="white" height="3.5999999999999996cm" shape-rendering="crispEdges" width="0.8999999999999999cm" x="3.4999999999999996cm" y="2.5999999999999996cm" /><rect fill="white" height="2.6999999999999997cm" shape-rendering="crispEdges" width="0.8999999999999999cm" x="3.4999999999999996cm" y="3.4999999999999996cm" /><rect fill="white" height="1.7999999999999998cm" shape-rendering="crispEdges" width="0.8999999999999999cm" x="3.4999999999999996cm" y="4.3999999999999995cm" /><rect fill="white" height="0.8999999999999999cm" shape-rendering="crispEdges" width="0.8999999999999999cm" x="3.4999999999999996cm" y="5.299999999999999cm" /><rect fill="white" height="1.7999999999999998cm" shape-rendering="crispEdges" width="0.8999999999999999cm" x="4.3999999999999995cm" y="2.5999999999999996cm" /><rect fill="white" height="0.8999999999999999cm" shape-rendering="crispEdges" width="0.8999999999999999cm" x="4.3999999999999995cm" y="3.4999999999999996cm" /><rect fill="white" height="0.8999999999999999cm" shape-rendering="crispEdges" width="0.8999999999999999cm" x="4.3999999999999995cm" y="5.299999999999999cm" /><rect fill="white" height="2.6999999999999997cm" shape-rendering="crispEdges" width="0.8999999999999999cm" x="5.299999999999999cm" y="3.4999999999999996cm" /><rect fill="white" height="1.7999999999999998cm" shape-rendering="crispEdges" width="0.8999999999999999cm" x="5.299999999999999cm" y="4.3999999999999995cm" /><rect fill="white" height="0.8999999999999999cm" shape-rendering="crispEdges" width="0.8999999999999999cm" x="5.299999999999999cm" y="5.299999999999999cm" /><rect fill="white" height="0.8999999999999999cm" shape-rendering="crispEdges" width="1.7999999999999998cm" x="3.4999999999999996cm" y="2.5999999999999996cm" /><rect fill="white" height="0.8999999999999999cm" shape-rendering="crispEdges" width="0.8999999999999999cm" x="4.3999999999999995cm" y="2.5999999999999996cm" /><rect fill="white" height="0.8999999999999999cm" shape-rendering="crispEdges" width="2.6999999999999997cm" x="3.4999999999999996cm" y="3.4999999999999996cm" /><rect fill="white" height="0.8999999999999999cm" shape-rendering="crispEdges" width="1.7999999999999998cm" x="4.3999999999999995cm" y="3.4999999999999996cm" /><rect fill="white" height="0.8999999999999999cm" shape-rendering="crispEdges" width="0.8999999999999999cm" x="5.299999999999999cm" y="3.4999999999999996cm" /><rect fill="white" height="0.8999999999999999cm" shape-rendering="crispEdges" width="1.7999999999999998cm" x="2.5999999999999996cm" y="4.3999999999999995cm" /><rect fill="white" height="0.8999999999999999cm" shape-rendering="crispEdges" width="0.8999999999999999cm" x="3.4999999999999996cm" y="4.3999999999999995cm" /><rect fill="white" height="0.8999999999999999cm" shape-rendering="crispEdges" width="0.8999999999999999cm" x="5.299999999999999cm" y="4.3999999999999995cm" /><rect fill="white" height="0.8999999999999999cm" shape-rendering="crispEdges" width="3.5999999999999996cm" x="2.5999999999999996cm" y="5.299999999999999cm" /><rect fill="white" height="0.8999999999999999cm" shape-rendering="crispEdges" width="2.6999999999999997cm" x="3.4999999999999996cm" y="5.299999999999999cm" /><rect fill="white" height="0.8999999999999999cm" shape-rendering="crispEdges" width="1.7999999999999998cm" x="4.3999999999999995cm" y="5.299999999999999cm" /><rect fill="white" height="0.8999999999999999cm" shape-rendering="crispEdges" width="0.8999999999999999cm" x="5.299999999999999cm" y="5.299999999999999cm" /><text fill="black" font-family="Arial, Helvetica, sans-serif" font-size="0.88cm" shape-rendering="crispEdges" text-anchor="middle" x="4.3999999999999995cm" y="0.88cm">60</text><rect fill="black" height="8.799999999999999cm" shape-rendering="crispEdges" width="8.799999999999999cm" x="8.799999999999999cm" y="0.0cm" /><rect fill="white" height="8.799999999999999cm" shape-rendering="crispEdges" width="8.799999999999999cm" x="17.599999999999998cm" y="0.0cm" /><rect fill="black" height="5.4cm" shape-rendering="crispEdges" width="5.4cm" x="19.299999999999997cm" y="1.6999999999999997cm" /><rect fill="white" height="0.8999999999999999cm" shape-rendering="crispEdges" width="0.8999999999999999cm" x="20.2cm" y="3.4999999999999996cm" /><rect fill="white" height="0.8999999999999999cm" shape-rendering="crispEdges" width="0.8999999999999999cm" x="20.2cm" y="5.299999999999999cm" /><rect fill="white" height="1.7999999999999998cm" shape-rendering="crispEdges" width="0.8999999999999999cm" x="21.099999999999998cm" y="2.5999999999999996cm" /><rect fill="white" height="0.8999999999999999cm" shape-rendering="crispEdges" width="0.8999999999999999cm" x="21.099999999999998cm" y="3.4999999999999996cm" /><rect fill="white" height="1.7999999999999998cm" shape-rendering="crispEdges" width="0.8999999999999999cm" x="21.999999999999996cm" y="2.5999999999999996cm" /><rect fill="white" height="0.8999999999999999cm" shape-rendering="crispEdges" width="0.8999999999999999cm" x="21.999999999999996cm" y="3.4999999999999996cm" /><rect fill="white" height="0.8999999999999999cm" shape-rendering="crispEdges" width="0.8999999999999999cm" x="21.999999999999996cm" y="5.299999999999999cm" /><rect fill="white" height="0.8999999999999999cm" shape-rendering="crispEdges" width="0.8999999999999999cm" x="22.9cm" y="2.5999999999999996cm" /><rect fill="white" height="1.7999999999999998cm" shape-rendering="crispEdges" width="0.8999999999999999cm" x="22.9cm" y="4.3999999999999995cm" /><rect fill="white" height="0.8999999999999999cm" shape-rendering="crispEdges" width="0.8999999999999999cm" x="22.9cm" y="5.299999999999999cm" /><rect fill="white" height="0.8999999999999999cm" shape-rendering="crispEdges" width="2.6999999999999997cm" x="21.099999999999998cm" y="2.5999999999999996cm" /><rect fill="white" height="0.8999999999999999cm" shape-rendering="crispEdges" width="1.7999999999999998cm" x="21.999999999999996cm" y="2.5999999999999996cm" /><rect fill="white" height="0.8999999999999999cm" shape-rendering="crispEdges" width="0.8999999999999999cm" x="22.9cm" y="2.5999999999999996cm" /><rect fill="white" height="0.8999999999999999cm" shape-rendering="crispEdges" width="2.6999999999999997cm" x="20.2cm" y="3.4999999999999996cm" /><rect fill="white" height="0.8999999999999999cm" shape-rendering="crispEdges" width="1.7999999999999998cm" x="21.099999999999998cm" y="3.4999999999999996cm" /><rect fill="white" height="0.8999999999999999cm" shape-rendering="crispEdges" width="0.8999999999999999cm" x="21.999999999999996cm" y="3.4999999999999996cm" /><rect fill="white" height="0.8999999999999999cm" shape-rendering="crispEdges" width="0.8999999999999999cm" x="22.9cm" y="4.3999999999999995cm" /><rect fill="white" height="0.8999999999999999cm" shape-rendering="crispEdges" width="0.8999999999999999cm" x="20.2cm" y="5.299999999999999cm" /><rect fill="white" height="0.8999999999999999cm" shape-rendering="crispEdges" width="1.7999999999999998cm" x="21.999999999999996cm" y="5.299999999999999cm" /><rect fill="white" height="0.8999999999999999cm" shape-rendering="crispEdges" width="0.8999999999999999cm" x="22.9cm" y="5.299999999999999cm" /><text fill="black" font-family="Arial, Helvetica, sans-serif" font-size="0.88cm" shape-rendering="crispEdges" text-anchor="middle" x="21.999999999999996cm" y="0.88cm">61</text><rect fill="black" height="8.799999999999999cm" shape-rendering="crispEdges" width="8.799999999999999cm" x="26.400000000000002cm" y="0.0cm" /><rect fill="white" height="8.799999999999999cm" shape-rendering="crispEdges" width="8.799999999999999cm" x="35.199999999999996cm" y="0.0cm" /><rect fill="black" height="5.4cm" shape-rendering="crispEdges" width="5.4cm" x="36.9cm" y="1.6999999999999997cm" /><rect fill="white" height="0.8999999999999999cm" shape-rendering="crispEdges" width="0.8999999999999999cm" x="37.8cm" y="2.5999999999999996cm" /><rect fill="white" height="0.8999999999999999cm" shape-rendering="crispEdges" width="0.8999999999999999cm" x="37.8cm" y="4.3999999999999995cm" /><rect fill="white" height="0.8999999999999999cm" shape-rendering="crispEdges" width="0.8999999999999999cm" x="39.6cm" y="4.3999999999999995cm" /><rect fill="white" height="0.8999999999999999cm" shape-rendering="crispEdges" width="0.8999999999999999cm" x="37.8cm" y="2.5999999999999996cm" /><rect fill="white" height="0.8999999999999999cm" shape-rendering="crispEdges" width="0.8999999999999999cm" x="37.8cm" y="4.3999999999999995cm" /><rect fill="white" height="0.8999999999999999cm" shape-rendering="crispEdges" width="0.8999999999999999cm" x="39.6cm" y="4.3999999999999995cm" /><text fill="black" font-family="Arial, Helvetica, sans-serif" font-size="0.88cm" shape-rendering="crispEdges" text-anchor="middle" x="39.599999999999994cm" y="0.88cm">62</text><rect fill="black" height="8.799999999999999cm" shape-rendering="crispEdges" width="8.799999999999999cm" x="43.99999999999999cm" y="0.0cm" /><rect fill="black" height="8.799999999999999cm" shape-rendering="crispEdges" width="8.799999999999999cm" x="0.0cm" y="8.799999999999999cm" /><rect fill="white" height="8.799999999999999cm" shape-rendering="crispEdges" width="8.799999999999999cm" x="8.799999999999999cm" y="8.799999999999999cm" /><rect fill="black" height="5.4cm" shape-rendering="crispEdges" width="5.4cm" x="10.5cm" y="10.5cm" /><rect fill="white" height="0.8999999999999999cm" shape-rendering="crispEdges" width="0.8999999999999999cm" x="11.399999999999999cm" y="11.399999999999999cm" /><rect fill="white" height="1.7999999999999998cm" shape-rendering="crispEdges" width="0.8999999999999999cm" x="12.3cm" y="13.200000000000001cm" /><rect fill="white" height="0.8999999999999999cm" shape-rendering="crispEdges" width="0.8999999999999999cm" x="12.3cm" y="14.099999999999998cm" /><rect fill="white" height="0.8999999999999999cm" shape-rendering="crispEdges" width="0.8999999999999999cm" x="13.200000000000001cm" y="12.3cm" /><rect fill="white" height="0.8999999999999999cm" shape-rendering="crispEdges" width="0.8999999999999999cm" x="14.099999999999998cm" y="12.3cm" /><rect fill="white" height="0.8999999999999999cm" shape-rendering="crispEdges" width="0.8999999999999999cm" x="11.399999999999999cm" y="11.399999999999999cm" /><rect fill="white" height="0.8999999999999999cm" shape-rendering="crispEdges" width="1.7999999999999998cm" x="13.200000000000001cm" y="12.3cm" /><rect fill="white" height="0.8999999999999999cm" shape-rendering="crispEdges" width="0.8999999999999999cm" x="14.099999999999998cm" y="12.3cm" /><rect fill="white" height="0.8999999999999999cm" shape-rendering="crispEdges" width="0.8999999999999999cm" x="12.3cm" y="13.200000000000001cm" /><rect fill="white" height="0.8999999999999999cm" shape-rendering="crispEdges" width="0.8999999999999999cm" x="12.3cm" y="14.099999999999998cm" /><text fill="black" font-family="Arial, Helvetica, sans-serif" font-size="0.88cm" shape-rendering="crispEdges" text-anchor="middle" x="13.200000000000001cm" y="9.68cm">63</text><rect fill="black" height="8.799999999999999cm" shape-rendering="crispEdges" width="8.799999999999999cm" x="17.599999999999998cm" y="8.799999999999999cm" /><rect fill="white" height="8.799999999999999cm" shape-rendering="crispEdges" width="8.799999999999999cm" x="26.400000000000002cm" y="8.799999999999999cm" /><rect fill="black" height="5.4cm" shape-rendering="crispEdges" width="5.4cm" x="28.1cm" y="10.5cm" /><rect fill="white" height="2.6999999999999997cm" shape-rendering="crispEdges" width="0.8999999999999999cm" x="29.000000000000004cm" y="11.399999999999999cm" /><rect fill="white" height="1.7999999999999998cm" shape-rendering="crispEdges" width="0.8999999999999999cm" x="29.000000000000004cm" y="12.3cm" /><rect fill="white" height="0.8999999999999999cm" shape-rendering="crispEdges" width="0.8999999999999999cm" x="29.000000000000004cm" y="13.200000000000001cm" /><rect fill="white" height="2.6999999999999997cm" shape-rendering="crispEdges" width="0.8999999999999999cm" x="30.800000000000004cm" y="12.3cm" /><rect fill="white" height="1.7999999999999998cm" shape-rendering="crispEdges" width="0.8999999999999999cm" x="30.800000000000004cm" y="13.200000000000001cm" /><rect fill="white" height="0.8999999999999999cm" shape-rendering="crispEdges" width="0.8999999999999999cm" x="30.800000000000004cm" y="14.099999999999998cm" /><rect fill="white" height="0.8999999999999999cm" shape-rendering="crispEdges" width="0.8999999999999999cm" x="31.7cm" y="12.3cm" /><rect fill="white" height="0.8999999999999999cm" shape-rendering="crispEdges" width="0.8999999999999999cm" x="29.000000000000004cm" y="11.399999999999999cm" /><rect fill="white" height="0.8999999999999999cm" shape-rendering="crispEdges" width="0.8999999999999999cm" x="29.000000000000004cm" y="12.3cm" /><rect fill="white" height="0.8999999999999999cm" shape-rendering="crispEdges" width="1.7999999999999998cm" x="30.800000000000004cm" y="12.3cm" /><rect fill="white" height="0.8999999999999999cm" shape-rendering="crispEdges" width="0.8999999999999999cm" x="31.7cm" y="12.3cm" /><rect fill="white" height="0.8999999999999999cm" shape-rendering="crispEdges" width="0.8999999999999999cm" x="29.000000000000004cm" y="13.200000000000001cm" /><rect fill="white" height="0.8999999999999999cm" shape-rendering="crispEdges" width="0.8999999999999999cm" x="30.800000000000004cm" y="13.200000000000001cm" /><rect fill="white" height="0.8999999999999999cm" shape-rendering="crispEdges" width="0.8999999999999999cm" x="30.800000000000004cm" y="14.099999999999998cm" /><text fill="black" font-family="Arial, Helvetica, sans-serif" font-size="0.88cm" shape-rendering="crispEdges" text-anchor="middle" x="30.8cm" y="9.68cm">64</text><rect fill="black" height="8.799999999999999cm" shape-rendering="crispEdges" width="8.799999999999999cm" x="35.199999999999996cm" y="8.799999999999999cm" /><rect fill="white" height="8.799999999999999cm" shape-rendering="crispEdges" width="8.799999999999999cm" x="43.99999999999999cm" y="8.799999999999999cm" /><rect fill="black" height="5.4cm" shape-rendering="crispEdges" width="5.4cm" x="45.699999999999996cm" y="10.5cm" /><rect fill="white" height="0.8999999999999999cm" shape-rendering="crispEdges" width="0.8999999999999999cm" x="46.599999999999994cm" y="11.399999999999999cm" /><rect fill="white" height="0.8999999999999999cm" shape-rendering="crispEdges" width="0.8999999999999999cm" x="46.599999999999994cm" y="14.099999999999998cm" /><rect fill="white" height="0.8999999999999999cm" shape-rendering="crispEdges" width="0.8999999999999999cm" x="47.5cm" y="13.200000000000001cm" /><rect fill="white" height="2.6999999999999997cm" shape-rendering="crispEdges" width="0.8999999999999999cm" x="48.4cm" y="12.3cm" /><rect fill="white" height="1.7999999999999998cm" shape-rendering="crispEdges" width="0.8999999999999999cm" x="48.4cm" y="13.200000000000001cm" /><rect fill="white" height="0.8999999999999999cm" shape-rendering="crispEdges" width="0.8999999999999999cm" x="48.4cm" y="14.099999999999998cm" /><rect fill="white" height="2.6999999999999997cm" shape-rendering="crispEdges" width="0.8999999999999999cm" x="49.3cm" y="11.399999999999999cm" /><rect fill="white" height="1.7999999999999998cm" shape-rendering="crispEdges" width="0.8999999999999999cm" x="49.3cm" y="12.3cm" /><rect fill="white" height="0.8999999999999999cm" shape-rendering="crispEdges" width="0.8999999999999999cm" x="49.3cm" y="13.200000000000001cm" /><rect fill="white" height="0.8999999999999999cm" shape-rendering="crispEdges" width="0.8999999999999999cm" x="46.599999999999994cm" y="11.399999999999999cm" /><rect fill="white" height="0.8999999999999999cm" shape-rendering="crispEdges" width="0.8999999999999999cm" x="49.3cm" y="11.399999999999999cm" /><rect fill="white" height="0.8999999999999999cm" shape-rendering="crispEdges" width="1.7999999999999998cm" x="48.4cm" y="12.3cm" /><rect fill="white" height="0.8999999999999999cm" shape-rendering="crispEdges" width="0.8999999999999999cm" x="49.3cm" y="12.3cm" /><rect fill="white" height="0.8999999999999999cm" shape-rendering="crispEdges" width="2.6999999999999997cm" x="47.5cm" y="13.200000000000001cm" /><rect fill="white" height="0.8999999999999999cm" shape-rendering="crispEdges" width="1.7999999999999998cm" x="48.4cm" y="13.200000000000001cm" /><rect fill="white" height="0.8999999999999999cm" shape-rendering="crispEdges" width="0.8999999999999999cm" x="49.3cm" y="13.200000000000001cm" /><rect fill="white" height="0.8999999999999999cm" shape-rendering="crispEdges" width="0.8999999999999999cm" x="46.599999999999994cm" y="14.099999999999998cm" /><rect fill="white" height="0.8999999999999999cm" shape-rendering="crispEdges" width="0.8999999999999999cm" x="48.4cm" y="14.099999999999998cm" /><text fill="black" font-family="Arial, Helvetica, sans-serif" font-size="0.88cm" shape-rendering="crispEdges" text-anchor="middle" x="48.4cm" y="9.68cm">65</text><rect fill="white" height="8.799999999999999cm" shape-rendering="crispEdges" width="8.799999999999999cm" x="0.0cm" y="17.599999999999998cm" /><rect fill="black" height="5.4cm" shape-rendering="crispEdges" width="5.4cm" x="1.6999999999999997cm" y="19.299999999999997cm" /><rect fill="white" height="0.8999999999999999cm" shape-rendering="crispEdges" width="0.8999999999999999cm" x="2.5999999999999996cm" y="20.2cm" /><rect fill="white" height="0.8999999999999999cm" shape-rendering="crispEdges" width="0.8999999999999999cm" x="2.5999999999999996cm" y="22.9cm" /><rect fill="white" height="2.6999999999999997cm" shape-rendering="crispEdges" width="0.8999999999999999cm" x="3.4999999999999996cm" y="21.099999999999998cm" /><rect fill="white" height="1.7999999999999998cm" shape-rendering="crispEdges" width="0.8999999999999999cm" x="3.4999999999999996cm" y="21.999999999999996cm" /><rect fill="white" height="0.8999999999999999cm" shape-rendering="crispEdges" width="0.8999999999999999cm" x="3.4999999999999996cm" y="22.9cm" /><rect fill="white" height="0.8999999999999999cm" shape-rendering="crispEdges" width="0.8999999999999999cm" x="4.3999999999999995cm" y="21.999999999999996cm" /><rect fill="white" height="0.8999999999999999cm" shape-rendering="crispEdges" width="0.8999999999999999cm" x="2.5999999999999996cm" y="20.2cm" /><rect fill="white" height="0.8999999999999999cm" shape-rendering="crispEdges" width="0.8999999999999999cm" x="3.4999999999999996cm" y="21.099999999999998cm" /><rect fill="white" height="0.8999999999999999cm" shape-rendering="crispEdges" width="1.7999999999999998cm" x="3.4999999999999996cm" y="21.999999999999996cm" /><rect fill="white" height="0.8999999999999999cm" shape-rendering="crispEdges" width="0.8999999999999999cm" x="4.3999999999999995cm" y="21.999999999999996cm" /><rect fill="white" height="0.8999999999999999cm" shape-rendering="crispEdges" width="1.7999999999999998cm" x="2.5999999999999996cm" y="22.9cm" /><rect fill="white" height="0.8999999999999999cm" shape-rendering="crispEdges" width="0.8999999999999999cm" x="3.4999999999999996cm" y="22.9cm" /><text fill="black" font-family="Arial, Helvetica, sans-serif" font-size="0.88cm" shape-rendering="crispEdges" text-anchor="middle" x="4.3999999999999995cm" y="18.48cm">66</text><rect fill="black" height="8.799999999999999cm" shape-rendering="crispEdges" width="8.799999999999999cm" x="8.799999999999999cm" y="17.599999999999998cm" /><rect fill="white" height="8.799999999999999cm" shape-rendering="crispEdges" width="8.799999999999999cm" x="17.599999999999998cm" y="17.599999999999998cm" /><rect fill="black" height="5.4cm" shape-rendering="crispEdges" width="5.4cm" x="19.299999999999997cm" y="19.299999999999997cm" /><rect fill="white" height="0.8999999999999999cm" shape-rendering="crispEdges" width="0.8999999999999999cm" x="20.2cm" y="20.2cm" /><rect fill="white" height="0.8999999999999999cm" shape-rendering="crispEdges" width="0.8999999999999999cm" x="20.2cm" y="22.9cm" /><rect fill="white" height="0.8999999999999999cm" shape-rendering="crispEdges" width="0.8999999999999999cm" x="21.099999999999998cm" y="21.099999999999998cm" /><rect fill="white" height="1.7999999999999998cm" shape-rendering="crispEdges" width="0.8999999999999999cm" x="21.999999999999996cm" y="21.999999999999996cm" /><rect fill="white" height="0.8999999999999999cm" shape-rendering="crispEdges" width="0.8999999999999999cm" x="21.999999999999996cm" y="22.9cm" /><rect fill="white" height="0.8999999999999999cm" shape-rendering="crispEdges" width="0.8999999999999999cm" x="22.9cm" y="21.099999999999998cm" /><rect fill="white" height="0.8999999999999999cm" shape-rendering="crispEdges" width="0.8999999999999999cm" x="20.2cm" y="20.2cm" /><rect fill="white" height="0.8999999999999999cm" shape-rendering="crispEdges" width="0.8999999999999999cm" x="21.099999999999998cm" y="21.099999999999998cm" /><rect fill="white" height="0.8999999999999999cm" shape-rendering="crispEdges" width="0.8999999999999999cm" x="22.9cm" y="21.099999999999998cm" /><rect fill="white" height="0.8999999999999999cm" shape-rendering="crispEdges" width="0.8999999999999999cm" x="21.999999999999996cm" y="21.999999999999996cm" /><rect fill="white" height="0.8999999999999999cm" shape-rendering="crispEdges" width="0.8999999999999999cm" x="20.2cm" y="22.9cm" /><rect fill="white" height="0.8999999999999999cm" shape-rendering="crispEdges" width="0.8999999999999999cm" x="21.999999999999996cm" y="22.9cm" /><text fill="black" font-family="Arial, Helvetica, sans-serif" font-size="0.88cm" shape-rendering="crispEdges" text-anchor="middle" x="21.999999999999996cm" y="18.48cm">67</text><rect fill="black" height="8.799999999999999cm" shape-rendering="crispEdges" width="8.799999999999999cm" x="26.400000000000002cm" y="17.599999999999998cm" /><rect fill="white" height="8.799999999999999cm" shape-rendering="crispEdges" width="8.799999999999999cm" x="35.199999999999996cm" y="17.599999999999998cm" /><rect fill="black" height="5.4cm" shape-rendering="crispEdges" width="5.4cm" x="36.9cm" y="19.299999999999997cm" /><rect fill="white" height="0.8999999999999999cm" shape-rendering="crispEdges" width="0.8999999999999999cm" x="37.8cm" y="20.2cm" /><rect fill="white" height="1.7999999999999998cm" shape-rendering="crispEdges" width="0.8999999999999999cm" x="37.8cm" y="21.999999999999996cm" /><rect fill="white" height="0.8999999999999999cm" shape-rendering="crispEdges" width="0.8999999999999999cm" x="37.8cm" y="22.9cm" /><rect fill="white" height="0.8999999999999999cm" shape-rendering="crispEdges" width="0.8999999999999999cm" x="38.7cm" y="21.099999999999998cm" /><rect fill="white" height="0.8999999999999999cm" shape-rendering="crispEdges" width="0.8999999999999999cm" x="38.7cm" y="22.9cm" /><rect fill="white" height="1.7999999999999998cm" shape-rendering="crispEdges" width="0.8999999999999999cm" x="40.5cm" y="21.099999999999998cm" /><rect fill="white" height="0.8999999999999999cm" shape-rendering="crispEdges" width="0.8999999999999999cm" x="40.5cm" y="21.999999999999996cm" /><rect fill="white" height="0.8999999999999999cm" shape-rendering="crispEdges" width="0.8999999999999999cm" x="37.8cm" y="20.2cm" /><rect fill="white" height="0.8999999999999999cm" shape-rendering="crispEdges" width="0.8999999999999999cm" x="38.7cm" y="21.099999999999998cm" /><rect fill="white" height="0.8999999999999999cm" shape-rendering="crispEdges" width="0.8999999999999999cm" x="40.5cm" y="21.099999999999998cm" /><rect fill="white" height="0.8999999999999999cm" shape-rendering="crispEdges" width="0.8999999999999999cm" x="37.8cm" y="21.999999999999996cm" /><rect fill="white" height="0.8999999999999999cm" shape-rendering="crispEdges" width="0.8999999999999999cm" x="40.5cm" y="21.999999999999996cm" /><rect fill="white" height="0.8999999999999999cm" shape-rendering="crispEdges" width="1.7999999999999998cm" x="37.8cm" y="22.9cm" /><rect fill="white" height="0.8999999999999999cm" shape-rendering="crispEdges" width="0.8999999999999999cm" x="38.7cm" y="22.9cm" /><text fill="black" font-family="Arial, Helvetica, sans-serif" font-size="0.88cm" shape-rendering="crispEdges" text-anchor="middle" x="39.599999999999994cm" y="18.48cm">68</text><rect fill="black" height="8.799999999999999cm" shape-rendering="crispEdges" width="8.799999999999999cm" x="43.99999999999999cm" y="17.599999999999998cm" /><rect fill="black" height="8.799999999999999cm" shape-rendering="crispEdges" width="8.799999999999999cm" x="0.0cm" y="26.400000000000002cm" /><rect fill="white" height="8.799999999999999cm" shape-rendering="crispEdges" width="8.799999999999999cm" x="8.799999999999999cm" y="26.400000000000002cm" /><rect fill="black" height="5.4cm" shape-rendering="crispEdges" width="5.4cm" x="10.5cm" y="28.1cm" /><rect fill="white" height="3.5999999999999996cm" shape-rendering="crispEdges" width="0.8999999999999999cm" x="11.399999999999999cm" y="29.000000000000004cm" /><rect fill="white" height="2.6999999999999997cm" shape-rendering="crispEdges" width="0.8999999999999999cm" x="11.399999999999999cm" y="29.900000000000006cm" /><rect fill="white" height="1.7999999999999998cm" shape-rendering="crispEdges" width="0.8999999999999999cm" x="11.399999999999999cm" y="30.800000000000004cm" /><rect fill="white" height="0.8999999999999999cm" shape-rendering="crispEdges" width="0.8999999999999999cm" x="11.399999999999999cm" y="31.7cm" /><rect fill="white" height="0.8999999999999999cm" shape-rendering="crispEdges" width="0.8999999999999999cm" x="12.3cm" y="29.900000000000006cm" /><rect fill="white" height="0.8999999999999999cm" shape-rendering="crispEdges" width="0.8999999999999999cm" x="14.099999999999998cm" y="29.000000000000004cm" /><rect fill="white" height="0.8999999999999999cm" shape-rendering="crispEdges" width="0.8999999999999999cm" x="14.099999999999998cm" y="31.7cm" /><rect fill="white" height="0.8999999999999999cm" shape-rendering="crispEdges" width="0.8999999999999999cm" x="11.399999999999999cm" y="29.000000000000004cm" /><rect fill="white" height="0.8999999999999999cm" shape-rendering="crispEdges" width="0.8999999999999999cm" x="14.099999999999998cm" y="29.000000000000004cm" /><rect fill="white" height="0.8999999999999999cm" shape-rendering="crispEdges" width="1.7999999999999998cm" x="11.399999999999999cm" y="29.900000000000006cm" /><rect fill="white" height="0.8999999999999999cm" shape-rendering="crispEdges" width="0.8999999999999999cm" x="12.3cm" y="29.900000000000006cm" /><rect fill="white" height="0.8999999999999999cm" shape-rendering="crispEdges" width="0.8999999999999999cm" x="11.399999999999999cm" y="30.800000000000004cm" /><rect fill="white" height="0.8999999999999999cm" shape-rendering="crispEdges" width="0.8999999999999999cm" x="11.399999999999999cm" y="31.7cm" /><rect fill="white" height="0.8999999999999999cm" shape-rendering="crispEdges" width="0.8999999999999999cm" x="14.099999999999998cm" y="31.7cm" /><text fill="black" font-family="Arial, Helvetica, sans-serif" font-size="0.88cm" shape-rendering="crispEdges" text-anchor="middle" x="13.200000000000001cm" y="27.279999999999998cm">69</text><rect fill="black" height="8.799999999999999cm" shape-rendering="crispEdges" width="8.799999999999999cm" x="17.599999999999998cm" y="26.400000000000002cm" /><rect fill="white" height="8.799999999999999cm" shape-rendering="crispEdges" width="8.799999999999999cm" x="26.400000000000002cm" y="26.400000000000002cm" /><rect fill="black" height="5.4cm" shape-rendering="crispEdges" width="5.4cm" x="28.1cm" y="28.1cm" /><rect fill="white" height="2.6999999999999997cm" shape-rendering="crispEdges" width="0.8999999999999999cm" x="29.000000000000004cm" y="29.000000000000004cm" /><rect fill="white" height="1.7999999999999998cm" shape-rendering="crispEdges" width="0.8999999999999999cm" x="29.000000000000004cm" y="29.900000000000006cm" /><rect fill="white" height="0.8999999999999999cm" shape-rendering="crispEdges" width="0.8999999999999999cm" x="29.000000000000004cm" y="30.800000000000004cm" /><rect fill="white" height="0.8999999999999999cm" shape-rendering="crispEdges" width="0.8999999999999999cm" x="29.900000000000006cm" y="29.900000000000006cm" /><rect fill="white" height="1.7999999999999998cm" shape-rendering="crispEdges" width="0.8999999999999999cm" x="30.800000000000004cm" y="29.900000000000006cm" /><rect fill="white" height="0.8999999999999999cm" shape-rendering="crispEdges" width="0.8999999999999999cm" x="30.800000000000004cm" y="30.800000000000004cm" /><rect fill="white" height="1.7999999999999998cm" shape-rendering="crispEdges" width="0.8999999999999999cm" x="31.7cm" y="29.000000000000004cm" /><rect fill="white" height="0.8999999999999999cm" shape-rendering="crispEdges" width="0.8999999999999999cm" x="31.7cm" y="29.900000000000006cm" /><rect fill="white" height="0.8999999999999999cm" shape-rendering="crispEdges" width="0.8999999999999999cm" x="31.7cm" y="31.7cm" /><rect fill="white" height="0.8999999999999999cm" shape-rendering="crispEdges" width="0.8999999999999999cm" x="29.000000000000004cm" y="29.000000000000004cm" /><rect fill="white" height="0.8999999999999999cm" shape-rendering="crispEdges" width="0.8999999999999999cm" x="31.7cm" y="29.000000000000004cm" /><rect fill="white" height="0.8999999999999999cm" shape-rendering="crispEdges" width="3.5999999999999996cm" x="29.000000000000004cm" y="29.900000000000006cm" /><rect fill="white" height="0.8999999999999999cm" shape-rendering="crispEdges" width="2.6999999999999997cm" x="29.900000000000006cm" y="29.900000000000006cm" /><rect fill="white" height="0.8999999999999999cm" shape-rendering="crispEdges" width="1.7999999999999998cm" x="30.800000000000004cm" y="29.900000000000006cm" /><rect fill="white" height="0.8999999999999999cm" shape-rendering="crispEdges" width="0.8999999999999999cm" x="31.7cm" y="29.900000000000006cm" /><rect fill="white" height="0.8999999999999999cm" shape-rendering="crispEdges" width="0.8999999999999999cm" x="29.000000000000004cm" y="30.800000000000004cm" /><rect fill="white" height="0.8999999999999999cm" shape-rendering="crispEdges" width="0.8999999999999999cm" x="30.800000000000004cm" y="30.800000000000004cm" /><rect fill="white" height="0.8999999999999999cm" shape-rendering="crispEdges" width="0.8999999999999999cm" x="31.7cm" y="31.7cm" /><text fill="black" font-family="Arial, Helvetica, sans-serif" font-size="0.88cm" shape-rendering="crispEdges" text-anchor="middle" x="30.8cm" y="27.279999999999998cm">70</text><rect fill="black" height="8.799999999999999cm" shape-rendering="crispEdges" width="8.799999999999999cm" x="35.199999999999996cm" y="26.400000000000002cm" /><rect fill="white" height="8.799999999999999cm" shape-rendering="crispEdges" width="8.799999999999999cm" x="43.99999999999999cm" y="26.400000000000002cm" /><rect fill="black" height="5.4cm" shape-rendering="crispEdges" width="5.4cm" x="45.699999999999996cm" y="28.1cm" /><rect fill="white" height="1.7999999999999998cm" shape-rendering="crispEdges" width="0.8999999999999999cm" x="46.599999999999994cm" y="29.000000000000004cm" /><rect fill="white" height="0.8999999999999999cm" shape-rendering="crispEdges" width="0.8999999999999999cm" x="46.599999999999994cm" y="29.900000000000006cm" /><rect fill="white" height="0.8999999999999999cm" shape-rendering="crispEdges" width="0.8999999999999999cm" x="46.599999999999994cm" y="31.7cm" /><rect fill="white" height="1.7999999999999998cm" shape-rendering="crispEdges" width="0.8999999999999999cm" x="47.5cm" y="30.800000000000004cm" /><rect fill="white" height="0.8999999999999999cm" shape-rendering="crispEdges" width="0.8999999999999999cm" x="47.5cm" y="31.7cm" /><rect fill="white" height="2.6999999999999997cm" shape-rendering="crispEdges" width="0.8999999999999999cm" x="48.4cm" y="29.000000000000004cm" /><rect fill="white" height="1.7999999999999998cm" shape-rendering="crispEdges" width="0.8999999999999999cm" x="48.4cm" y="29.900000000000006cm" /><rect fill="white" height="0.8999999999999999cm" shape-rendering="crispEdges" width="0.8999999999999999cm" x="48.4cm" y="30.800000000000004cm" /><rect fill="white" height="2.6999999999999997cm" shape-rendering="crispEdges" width="0.8999999999999999cm" x="49.3cm" y="29.000000000000004cm" /><rect fill="white" height="1.7999999999999998cm" shape-rendering="crispEdges" width="0.8999999999999999cm" x="49.3cm" y="29.900000000000006cm" /><rect fill="white" height="0.8999999999999999cm" shape-rendering="crispEdges" width="0.8999999999999999cm" x="49.3cm" y="30.800000000000004cm" /><rect fill="white" height="0.8999999999999999cm" shape-rendering="crispEdges" width="0.8999999999999999cm" x="46.599999999999994cm" y="29.000000000000004cm" /><rect fill="white" height="0.8999999999999999cm" shape-rendering="crispEdges" width="1.7999999999999998cm" x="48.4cm" y="29.000000000000004cm" /><rect fill="white" height="0.8999999999999999cm" shape-rendering="crispEdges" width="0.8999999999999999cm" x="49.3cm" y="29.000000000000004cm" /><rect fill="white" height="0.8999999999999999cm" shape-rendering="crispEdges" width="0.8999999999999999cm" x="46.599999999999994cm" y="29.900000000000006cm" /><rect fill="white" height="0.8999999999999999cm" shape-rendering="crispEdges" width="1.7999999999999998cm" x="48.4cm" y="29.900000000000006cm" /><rect fill="white" height="0.8999999999999999cm" shape-rendering="crispEdges" width="0.8999999999999999cm" x="49.3cm" y="29.900000000000006cm" /><rect fill="white" height="0.8999999999999999cm" shape-rendering="crispEdges" width="2.6999999999999997cm" x="47.5cm" y="30.800000000000004cm" /><rect fill="white" height="0.8999999999999999cm" shape-rendering="crispEdges" width="1.7999999999999998cm" x="48.4cm" y="30.800000000000004cm" /><rect fill="white" height="0.8999999999999999cm" shape-rendering="crispEdges" width="0.8999999999999999cm" x="49.3cm" y="30.800000000000004cm" /><rect fill="white" height="0.8999999999999999cm" shape-rendering="crispEdges" width="1.7999999999999998cm" x="46.599999999999994cm" y="31.7cm" /><rect fill="white" height="0.8999999999999999cm" shape-rendering="crispEdges" width="0.8999999999999999cm" x="47.5cm" y="31.7cm" /><text fill="black" font-family="Arial, Helvetica, sans-serif" font-size="0.88cm" shape-rendering="crispEdges" text-anchor="middle" x="48.4cm" y="27.279999999999998cm">71</text><text fill="white" font-family="Arial, Helvetica, sans-serif" font-size="0.528cm" shape-rendering="crispEdges" text-anchor="middle" x="13.200000000000001cm" y="0.88cm">4X4_250, 0.088, 0.054</text></svg>